<?xml version="1.0" standalone="no"?>
<!DOCTYPE svg PUBLIC "-//W3C//DTD SVG 20010904//EN"
 "http://www.w3.org/TR/2001/REC-SVG-20010904/DTD/svg10.dtd">
<svg version="1.0" xmlns="http://www.w3.org/2000/svg"
 width="140.000000pt" height="27.000000pt" viewBox="0 0 140.000000 27.000000"
 preserveAspectRatio="xMidYMid meet">
<metadata>
Created by potrace 1.16, written by Peter Selinger 2001-2019
</metadata>
<g transform="translate(0.000000,27.000000) scale(0.100000,-0.100000)"
fill="#000000" stroke="none">
<path d="M79 206 c10 -12 31 -16 85 -16 64 0 75 -3 96 -25 14 -15 23 -37 23
-55 0 -18 -9 -40 -23 -55 -19 -21 -33 -25 -77 -25 -29 0 -53 2 -53 4 0 3 10
21 22 42 20 34 22 35 35 18 7 -10 13 -21 13 -26 0 -4 7 -8 15 -8 12 0 10 10
-10 50 -14 28 -27 50 -29 50 -7 0 -86 -141 -86 -152 0 -19 148 -3 178 19 32
24 50 82 36 120 -17 49 -57 68 -152 72 -78 3 -85 2 -73 -13z"/>
<path d="M356 183 c-9 -30 -36 -154 -36 -164 0 -5 11 -9 25 -9 16 0 25 6 25
15 0 8 9 15 20 15 11 0 23 -7 26 -15 4 -8 17 -15 31 -15 17 0 23 4 20 14 -3 8
-13 50 -23 95 l-17 81 -33 0 c-22 0 -34 -5 -38 -17z"/>
<path d="M625 118 c-10 -46 -20 -89 -22 -95 -3 -8 4 -13 20 -13 14 0 27 7 31
15 7 20 46 20 46 0 0 -9 9 -15 25 -15 29 0 30 4 11 79 -8 31 -17 68 -20 84 -5
23 -12 27 -40 27 l-33 0 -18 -82z"/>
<path d="M770 106 l0 -96 26 0 27 0 -7 72 c-8 86 -1 85 17 -3 10 -52 17 -65
33 -67 18 -3 23 6 37 65 l15 68 1 -67 c1 -66 2 -68 26 -68 25 0 25 0 25 95 l0
95 -39 0 -40 0 -6 -47 c-12 -87 -18 -92 -29 -23 l-11 65 -37 3 -38 3 0 -95z"/>
<path d="M1004 105 l-21 -95 24 0 c13 0 26 7 29 15 8 19 40 19 48 0 8 -21 46
-19 46 3 -1 9 -9 51 -19 92 -18 74 -18 75 -52 78 l-34 3 -21 -96z"/>
<path d="M1166 178 c-10 -14 -16 -44 -16 -79 0 -51 3 -60 27 -79 19 -15 35
-19 53 -15 24 6 50 30 50 47 0 17 -31 20 -49 4 -24 -22 -31 -11 -31 51 0 39 4
53 14 53 8 0 18 -4 21 -10 9 -15 45 -12 45 3 0 45 -87 64 -114 25z"/>
<path d="M1300 105 l0 -95 50 0 c43 0 50 3 50 20 0 15 -7 20 -25 20 -16 0 -25
6 -25 15 0 8 9 15 20 15 13 0 20 7 20 19 0 10 -9 21 -20 24 -29 8 -26 37 5 37
18 0 25 5 25 20 0 17 -7 20 -50 20 l-50 0 0 -95z"/>
</g>
</svg>
