<svg width="412" height="280" viewBox="0 0 412 280" fill="none" xmlns="http://www.w3.org/2000/svg">
<rect width="412" height="280" rx="8" fill="#F4F5F7"/>
<path d="M16 160H190V256H16V160Z" fill="#C4C4C4"/>
<path d="M60.374 200.742V190.748H61.5361V200.742H60.374ZM73.6631 200.742V195.868C73.6631 195.271 73.5355 194.824 73.2803 194.528C73.0251 194.227 72.6286 194.077 72.0908 194.077C71.3844 194.077 70.8626 194.28 70.5254 194.685C70.1882 195.091 70.0195 195.715 70.0195 196.558V200.742H68.8848V195.868C68.8848 195.271 68.7572 194.824 68.502 194.528C68.2467 194.227 67.848 194.077 67.3057 194.077C66.5947 194.077 66.0729 194.291 65.7402 194.719C65.4121 195.143 65.248 195.841 65.248 196.811V200.742H64.1133V193.25H65.0361L65.2207 194.275H65.2754C65.4896 193.911 65.7904 193.626 66.1777 193.421C66.5697 193.216 67.0072 193.113 67.4902 193.113C68.6615 193.113 69.4271 193.537 69.7871 194.385H69.8418C70.0651 193.993 70.3887 193.683 70.8125 193.455C71.2363 193.227 71.7194 193.113 72.2617 193.113C73.1094 193.113 73.7428 193.332 74.1621 193.769C74.5859 194.202 74.7979 194.897 74.7979 195.854V200.742H73.6631ZM81.75 200.742L81.5244 199.676H81.4697C81.096 200.145 80.7223 200.464 80.3486 200.633C79.9795 200.797 79.5169 200.879 78.9609 200.879C78.2181 200.879 77.6348 200.687 77.2109 200.304C76.7917 199.922 76.582 199.377 76.582 198.671C76.582 197.158 77.792 196.365 80.2119 196.292L81.4834 196.251V195.786C81.4834 195.198 81.3558 194.765 81.1006 194.487C80.8499 194.205 80.4466 194.063 79.8906 194.063C79.2663 194.063 78.5599 194.255 77.7715 194.637L77.4229 193.769C77.792 193.569 78.1953 193.412 78.6328 193.298C79.0749 193.184 79.5169 193.127 79.959 193.127C80.8522 193.127 81.513 193.325 81.9414 193.721C82.3743 194.118 82.5908 194.754 82.5908 195.629V200.742H81.75ZM79.1865 199.942C79.8929 199.942 80.4466 199.748 80.8477 199.361C81.2533 198.974 81.4561 198.431 81.4561 197.734V197.057L80.3213 197.105C79.4189 197.137 78.7673 197.278 78.3662 197.529C77.9697 197.775 77.7715 198.16 77.7715 198.684C77.7715 199.094 77.8945 199.407 78.1406 199.621C78.3913 199.835 78.7399 199.942 79.1865 199.942ZM91.0674 193.25V193.968L89.6797 194.132C89.8073 194.291 89.9212 194.501 90.0215 194.76C90.1217 195.016 90.1719 195.305 90.1719 195.629C90.1719 196.362 89.9212 196.948 89.4199 197.385C88.9186 197.823 88.2305 198.042 87.3555 198.042C87.1322 198.042 86.9225 198.024 86.7266 197.987C86.2435 198.242 86.002 198.564 86.002 198.951C86.002 199.156 86.0863 199.309 86.2549 199.409C86.4235 199.505 86.7129 199.552 87.123 199.552H88.4492C89.2604 199.552 89.8825 199.723 90.3154 200.065C90.7529 200.407 90.9717 200.904 90.9717 201.555C90.9717 202.385 90.639 203.016 89.9736 203.449C89.3083 203.886 88.3376 204.105 87.0615 204.105C86.0817 204.105 85.3252 203.923 84.792 203.558C84.2633 203.194 83.999 202.679 83.999 202.013C83.999 201.558 84.1449 201.163 84.4365 200.831C84.7282 200.498 85.1383 200.273 85.667 200.154C85.4756 200.067 85.3138 199.933 85.1816 199.751C85.054 199.568 84.9902 199.357 84.9902 199.115C84.9902 198.842 85.0632 198.602 85.209 198.397C85.3548 198.192 85.585 197.994 85.8994 197.802C85.512 197.643 85.1953 197.372 84.9492 196.989C84.7077 196.606 84.5869 196.169 84.5869 195.677C84.5869 194.856 84.833 194.225 85.3252 193.783C85.8174 193.336 86.5146 193.113 87.417 193.113C87.8089 193.113 88.1621 193.159 88.4766 193.25H91.0674ZM85.0928 202C85.0928 202.405 85.2637 202.713 85.6055 202.923C85.9473 203.132 86.4372 203.237 87.0752 203.237C88.0277 203.237 88.7318 203.094 89.1875 202.806C89.6478 202.524 89.8779 202.139 89.8779 201.651C89.8779 201.246 89.7526 200.963 89.502 200.803C89.2513 200.649 88.7796 200.571 88.0869 200.571H86.7266C86.2116 200.571 85.8105 200.694 85.5234 200.94C85.2363 201.186 85.0928 201.539 85.0928 202ZM85.708 195.649C85.708 196.173 85.8561 196.57 86.1523 196.839C86.4486 197.108 86.861 197.242 87.3896 197.242C88.4971 197.242 89.0508 196.704 89.0508 195.629C89.0508 194.503 88.4902 193.94 87.3691 193.94C86.8359 193.94 86.4258 194.084 86.1387 194.371C85.8516 194.658 85.708 195.084 85.708 195.649ZM95.7705 200.879C94.6631 200.879 93.7881 200.541 93.1455 199.867C92.5075 199.192 92.1885 198.256 92.1885 197.057C92.1885 195.85 92.4847 194.89 93.0771 194.179C93.6742 193.469 94.474 193.113 95.4766 193.113C96.4154 193.113 97.1582 193.423 97.7051 194.043C98.252 194.658 98.5254 195.471 98.5254 196.483V197.201H93.3643C93.387 198.08 93.6081 198.748 94.0273 199.204C94.4512 199.66 95.0459 199.887 95.8115 199.887C96.6182 199.887 97.4157 199.719 98.2041 199.382V200.393C97.8031 200.566 97.4225 200.69 97.0625 200.762C96.707 200.84 96.2764 200.879 95.7705 200.879ZM95.4629 194.063C94.8613 194.063 94.3805 194.259 94.0205 194.651C93.665 195.043 93.4554 195.585 93.3916 196.278H97.3086C97.3086 195.563 97.1491 195.016 96.8301 194.637C96.5111 194.255 96.0553 194.063 95.4629 194.063ZM110.017 200.742V195.868C110.017 195.271 109.889 194.824 109.634 194.528C109.379 194.227 108.982 194.077 108.444 194.077C107.738 194.077 107.216 194.28 106.879 194.685C106.542 195.091 106.373 195.715 106.373 196.558V200.742H105.238V195.868C105.238 195.271 105.111 194.824 104.855 194.528C104.6 194.227 104.201 194.077 103.659 194.077C102.948 194.077 102.426 194.291 102.094 194.719C101.766 195.143 101.602 195.841 101.602 196.811V200.742H100.467V193.25H101.39L101.574 194.275H101.629C101.843 193.911 102.144 193.626 102.531 193.421C102.923 193.216 103.361 193.113 103.844 193.113C105.015 193.113 105.781 193.537 106.141 194.385H106.195C106.419 193.993 106.742 193.683 107.166 193.455C107.59 193.227 108.073 193.113 108.615 193.113C109.463 193.113 110.096 193.332 110.516 193.769C110.939 194.202 111.151 194.897 111.151 195.854V200.742H110.017ZM61.3379 223.742H60.2031V213.105H61.3379V223.742ZM70.2109 219.989C70.2109 221.21 69.9033 222.165 69.2881 222.853C68.6729 223.537 67.8229 223.879 66.7383 223.879C66.0684 223.879 65.4736 223.721 64.9541 223.407C64.4346 223.093 64.0335 222.641 63.751 222.053C63.4684 221.466 63.3271 220.777 63.3271 219.989C63.3271 218.768 63.6325 217.817 64.2432 217.138C64.8538 216.455 65.7015 216.113 66.7861 216.113C67.8343 216.113 68.666 216.462 69.2812 217.159C69.901 217.856 70.2109 218.8 70.2109 219.989ZM64.5029 219.989C64.5029 220.946 64.6943 221.675 65.0771 222.177C65.46 222.678 66.0228 222.928 66.7656 222.928C67.5085 222.928 68.0713 222.68 68.4541 222.183C68.8415 221.682 69.0352 220.951 69.0352 219.989C69.0352 219.037 68.8415 218.314 68.4541 217.822C68.0713 217.325 67.5039 217.077 66.752 217.077C66.0091 217.077 65.4486 217.321 65.0703 217.808C64.6921 218.296 64.5029 219.023 64.5029 219.989ZM78.3389 216.25V216.968L76.9512 217.132C77.0788 217.291 77.1927 217.501 77.293 217.76C77.3932 218.016 77.4434 218.305 77.4434 218.629C77.4434 219.362 77.1927 219.948 76.6914 220.385C76.1901 220.823 75.502 221.042 74.627 221.042C74.4036 221.042 74.194 221.024 73.998 220.987C73.515 221.242 73.2734 221.564 73.2734 221.951C73.2734 222.156 73.3577 222.309 73.5264 222.409C73.695 222.505 73.9844 222.552 74.3945 222.552H75.7207C76.5319 222.552 77.154 222.723 77.5869 223.065C78.0244 223.407 78.2432 223.904 78.2432 224.555C78.2432 225.385 77.9105 226.016 77.2451 226.449C76.5798 226.886 75.609 227.105 74.333 227.105C73.3532 227.105 72.5967 226.923 72.0635 226.558C71.5348 226.194 71.2705 225.679 71.2705 225.013C71.2705 224.558 71.4163 224.163 71.708 223.831C71.9997 223.498 72.4098 223.273 72.9385 223.154C72.7471 223.067 72.5853 222.933 72.4531 222.751C72.3255 222.568 72.2617 222.357 72.2617 222.115C72.2617 221.842 72.3346 221.602 72.4805 221.397C72.6263 221.192 72.8564 220.994 73.1709 220.802C72.7835 220.643 72.4668 220.372 72.2207 219.989C71.9792 219.606 71.8584 219.169 71.8584 218.677C71.8584 217.856 72.1045 217.225 72.5967 216.783C73.0889 216.336 73.7861 216.113 74.6885 216.113C75.0804 216.113 75.4336 216.159 75.748 216.25H78.3389ZM72.3643 225C72.3643 225.405 72.5352 225.713 72.877 225.923C73.2188 226.132 73.7087 226.237 74.3467 226.237C75.2992 226.237 76.0033 226.094 76.459 225.806C76.9193 225.524 77.1494 225.139 77.1494 224.651C77.1494 224.246 77.0241 223.963 76.7734 223.803C76.5228 223.649 76.0511 223.571 75.3584 223.571H73.998C73.4831 223.571 73.082 223.694 72.7949 223.94C72.5078 224.186 72.3643 224.539 72.3643 225ZM72.9795 218.649C72.9795 219.173 73.1276 219.57 73.4238 219.839C73.7201 220.108 74.1325 220.242 74.6611 220.242C75.7686 220.242 76.3223 219.704 76.3223 218.629C76.3223 217.503 75.7617 216.94 74.6406 216.94C74.1074 216.94 73.6973 217.084 73.4102 217.371C73.123 217.658 72.9795 218.084 72.9795 218.649ZM86.3438 219.989C86.3438 221.21 86.0361 222.165 85.4209 222.853C84.8057 223.537 83.9557 223.879 82.8711 223.879C82.2012 223.879 81.6064 223.721 81.0869 223.407C80.5674 223.093 80.1663 222.641 79.8838 222.053C79.6012 221.466 79.46 220.777 79.46 219.989C79.46 218.768 79.7653 217.817 80.376 217.138C80.9867 216.455 81.8343 216.113 82.9189 216.113C83.9671 216.113 84.7988 216.462 85.4141 217.159C86.0339 217.856 86.3438 218.8 86.3438 219.989ZM80.6357 219.989C80.6357 220.946 80.8271 221.675 81.21 222.177C81.5928 222.678 82.1556 222.928 82.8984 222.928C83.6413 222.928 84.2041 222.68 84.5869 222.183C84.9743 221.682 85.168 220.951 85.168 219.989C85.168 219.037 84.9743 218.314 84.5869 217.822C84.2041 217.325 83.6367 217.077 82.8848 217.077C82.1419 217.077 81.5814 217.321 81.2031 217.808C80.8249 218.296 80.6357 219.023 80.6357 219.989ZM95.4629 223.879C94.9753 223.879 94.5286 223.79 94.123 223.612C93.722 223.43 93.3848 223.152 93.1113 222.778H93.0293C93.084 223.216 93.1113 223.63 93.1113 224.022V227.105H91.9766V216.25H92.8994L93.0566 217.275H93.1113C93.403 216.865 93.7425 216.569 94.1299 216.386C94.5173 216.204 94.9616 216.113 95.4629 216.113C96.4564 216.113 97.222 216.453 97.7598 217.132C98.3021 217.811 98.5732 218.763 98.5732 219.989C98.5732 221.219 98.2975 222.177 97.7461 222.86C97.1992 223.539 96.4382 223.879 95.4629 223.879ZM95.2988 217.077C94.5332 217.077 93.9795 217.289 93.6377 217.713C93.2959 218.136 93.1204 218.811 93.1113 219.736V219.989C93.1113 221.042 93.2868 221.796 93.6377 222.252C93.9886 222.703 94.5514 222.928 95.3262 222.928C95.9733 222.928 96.4792 222.666 96.8438 222.142C97.2129 221.618 97.3975 220.896 97.3975 219.975C97.3975 219.041 97.2129 218.326 96.8438 217.829C96.4792 217.328 95.9642 217.077 95.2988 217.077ZM105.17 223.742L104.944 222.676H104.89C104.516 223.145 104.142 223.464 103.769 223.633C103.399 223.797 102.937 223.879 102.381 223.879C101.638 223.879 101.055 223.687 100.631 223.304C100.212 222.922 100.002 222.377 100.002 221.671C100.002 220.158 101.212 219.365 103.632 219.292L104.903 219.251V218.786C104.903 218.198 104.776 217.765 104.521 217.487C104.27 217.205 103.867 217.063 103.311 217.063C102.686 217.063 101.98 217.255 101.191 217.637L100.843 216.769C101.212 216.569 101.615 216.412 102.053 216.298C102.495 216.184 102.937 216.127 103.379 216.127C104.272 216.127 104.933 216.325 105.361 216.721C105.794 217.118 106.011 217.754 106.011 218.629V223.742H105.17ZM102.606 222.942C103.313 222.942 103.867 222.748 104.268 222.361C104.673 221.974 104.876 221.431 104.876 220.734V220.057L103.741 220.105C102.839 220.137 102.187 220.278 101.786 220.529C101.39 220.775 101.191 221.16 101.191 221.684C101.191 222.094 101.314 222.407 101.561 222.621C101.811 222.835 102.16 222.942 102.606 222.942ZM111.773 216.113C112.106 216.113 112.405 216.14 112.669 216.195L112.512 217.248C112.202 217.179 111.928 217.145 111.691 217.145C111.085 217.145 110.566 217.391 110.133 217.884C109.704 218.376 109.49 218.989 109.49 219.722V223.742H108.355V216.25H109.292L109.422 217.637H109.477C109.755 217.15 110.09 216.774 110.481 216.51C110.873 216.245 111.304 216.113 111.773 216.113ZM117.064 223.879C115.98 223.879 115.139 223.546 114.542 222.881C113.95 222.211 113.653 221.265 113.653 220.044C113.653 218.79 113.954 217.822 114.556 217.138C115.162 216.455 116.023 216.113 117.14 216.113C117.5 216.113 117.86 216.152 118.22 216.229C118.58 216.307 118.862 216.398 119.067 216.503L118.719 217.467C118.468 217.366 118.195 217.284 117.898 217.22C117.602 217.152 117.34 217.118 117.112 217.118C115.59 217.118 114.829 218.089 114.829 220.03C114.829 220.951 115.014 221.657 115.383 222.149C115.757 222.641 116.308 222.887 117.037 222.887C117.661 222.887 118.302 222.753 118.958 222.484V223.489C118.457 223.749 117.826 223.879 117.064 223.879ZM123.907 223.879C122.8 223.879 121.925 223.541 121.282 222.867C120.644 222.192 120.325 221.256 120.325 220.057C120.325 218.85 120.621 217.89 121.214 217.179C121.811 216.469 122.611 216.113 123.613 216.113C124.552 216.113 125.295 216.423 125.842 217.043C126.389 217.658 126.662 218.471 126.662 219.483V220.201H121.501C121.524 221.08 121.745 221.748 122.164 222.204C122.588 222.66 123.183 222.887 123.948 222.887C124.755 222.887 125.552 222.719 126.341 222.382V223.393C125.94 223.566 125.559 223.69 125.199 223.762C124.844 223.84 124.413 223.879 123.907 223.879ZM123.6 217.063C122.998 217.063 122.517 217.259 122.157 217.651C121.802 218.043 121.592 218.585 121.528 219.278H125.445C125.445 218.563 125.286 218.016 124.967 217.637C124.648 217.255 124.192 217.063 123.6 217.063ZM129.738 223.742H128.604V216.25H129.738V223.742ZM128.508 214.219C128.508 213.96 128.572 213.771 128.699 213.652C128.827 213.529 128.986 213.468 129.178 213.468C129.36 213.468 129.517 213.529 129.649 213.652C129.782 213.775 129.848 213.964 129.848 214.219C129.848 214.475 129.782 214.666 129.649 214.794C129.517 214.917 129.36 214.978 129.178 214.978C128.986 214.978 128.827 214.917 128.699 214.794C128.572 214.666 128.508 214.475 128.508 214.219ZM135.562 216.113C135.895 216.113 136.194 216.14 136.458 216.195L136.301 217.248C135.991 217.179 135.717 217.145 135.48 217.145C134.874 217.145 134.355 217.391 133.922 217.884C133.493 218.376 133.279 218.989 133.279 219.722V223.742H132.145V216.25H133.081L133.211 217.637H133.266C133.544 217.15 133.879 216.774 134.271 216.51C134.662 216.245 135.093 216.113 135.562 216.113ZM144.326 219.989C144.326 221.21 144.019 222.165 143.403 222.853C142.788 223.537 141.938 223.879 140.854 223.879C140.184 223.879 139.589 223.721 139.069 223.407C138.55 223.093 138.149 222.641 137.866 222.053C137.584 221.466 137.442 220.777 137.442 219.989C137.442 218.768 137.748 217.817 138.358 217.138C138.969 216.455 139.817 216.113 140.901 216.113C141.95 216.113 142.781 216.462 143.396 217.159C144.016 217.856 144.326 218.8 144.326 219.989ZM138.618 219.989C138.618 220.946 138.81 221.675 139.192 222.177C139.575 222.678 140.138 222.928 140.881 222.928C141.624 222.928 142.187 222.68 142.569 222.183C142.957 221.682 143.15 220.951 143.15 219.989C143.15 219.037 142.957 218.314 142.569 217.822C142.187 217.325 141.619 217.077 140.867 217.077C140.124 217.077 139.564 217.321 139.186 217.808C138.807 218.296 138.618 219.023 138.618 219.989Z" fill="#253858"/>
<path d="M206 160H380V256H206V160Z" fill="#C4C4C4"/>
<path d="M250.374 200.742V190.748H251.536V200.742H250.374ZM263.663 200.742V195.868C263.663 195.271 263.535 194.824 263.28 194.528C263.025 194.227 262.629 194.077 262.091 194.077C261.384 194.077 260.863 194.28 260.525 194.685C260.188 195.091 260.02 195.715 260.02 196.558V200.742H258.885V195.868C258.885 195.271 258.757 194.824 258.502 194.528C258.247 194.227 257.848 194.077 257.306 194.077C256.595 194.077 256.073 194.291 255.74 194.719C255.412 195.143 255.248 195.841 255.248 196.811V200.742H254.113V193.25H255.036L255.221 194.275H255.275C255.49 193.911 255.79 193.626 256.178 193.421C256.57 193.216 257.007 193.113 257.49 193.113C258.661 193.113 259.427 193.537 259.787 194.385H259.842C260.065 193.993 260.389 193.683 260.812 193.455C261.236 193.227 261.719 193.113 262.262 193.113C263.109 193.113 263.743 193.332 264.162 193.769C264.586 194.202 264.798 194.897 264.798 195.854V200.742H263.663ZM271.75 200.742L271.524 199.676H271.47C271.096 200.145 270.722 200.464 270.349 200.633C269.979 200.797 269.517 200.879 268.961 200.879C268.218 200.879 267.635 200.687 267.211 200.304C266.792 199.922 266.582 199.377 266.582 198.671C266.582 197.158 267.792 196.365 270.212 196.292L271.483 196.251V195.786C271.483 195.198 271.356 194.765 271.101 194.487C270.85 194.205 270.447 194.063 269.891 194.063C269.266 194.063 268.56 194.255 267.771 194.637L267.423 193.769C267.792 193.569 268.195 193.412 268.633 193.298C269.075 193.184 269.517 193.127 269.959 193.127C270.852 193.127 271.513 193.325 271.941 193.721C272.374 194.118 272.591 194.754 272.591 195.629V200.742H271.75ZM269.187 199.942C269.893 199.942 270.447 199.748 270.848 199.361C271.253 198.974 271.456 198.431 271.456 197.734V197.057L270.321 197.105C269.419 197.137 268.767 197.278 268.366 197.529C267.97 197.775 267.771 198.16 267.771 198.684C267.771 199.094 267.895 199.407 268.141 199.621C268.391 199.835 268.74 199.942 269.187 199.942ZM281.067 193.25V193.968L279.68 194.132C279.807 194.291 279.921 194.501 280.021 194.76C280.122 195.016 280.172 195.305 280.172 195.629C280.172 196.362 279.921 196.948 279.42 197.385C278.919 197.823 278.23 198.042 277.355 198.042C277.132 198.042 276.923 198.024 276.727 197.987C276.243 198.242 276.002 198.564 276.002 198.951C276.002 199.156 276.086 199.309 276.255 199.409C276.424 199.505 276.713 199.552 277.123 199.552H278.449C279.26 199.552 279.882 199.723 280.315 200.065C280.753 200.407 280.972 200.904 280.972 201.555C280.972 202.385 280.639 203.016 279.974 203.449C279.308 203.886 278.338 204.105 277.062 204.105C276.082 204.105 275.325 203.923 274.792 203.558C274.263 203.194 273.999 202.679 273.999 202.013C273.999 201.558 274.145 201.163 274.437 200.831C274.728 200.498 275.138 200.273 275.667 200.154C275.476 200.067 275.314 199.933 275.182 199.751C275.054 199.568 274.99 199.357 274.99 199.115C274.99 198.842 275.063 198.602 275.209 198.397C275.355 198.192 275.585 197.994 275.899 197.802C275.512 197.643 275.195 197.372 274.949 196.989C274.708 196.606 274.587 196.169 274.587 195.677C274.587 194.856 274.833 194.225 275.325 193.783C275.817 193.336 276.515 193.113 277.417 193.113C277.809 193.113 278.162 193.159 278.477 193.25H281.067ZM275.093 202C275.093 202.405 275.264 202.713 275.605 202.923C275.947 203.132 276.437 203.237 277.075 203.237C278.028 203.237 278.732 203.094 279.188 202.806C279.648 202.524 279.878 202.139 279.878 201.651C279.878 201.246 279.753 200.963 279.502 200.803C279.251 200.649 278.78 200.571 278.087 200.571H276.727C276.212 200.571 275.811 200.694 275.523 200.94C275.236 201.186 275.093 201.539 275.093 202ZM275.708 195.649C275.708 196.173 275.856 196.57 276.152 196.839C276.449 197.108 276.861 197.242 277.39 197.242C278.497 197.242 279.051 196.704 279.051 195.629C279.051 194.503 278.49 193.94 277.369 193.94C276.836 193.94 276.426 194.084 276.139 194.371C275.852 194.658 275.708 195.084 275.708 195.649ZM285.771 200.879C284.663 200.879 283.788 200.541 283.146 199.867C282.507 199.192 282.188 198.256 282.188 197.057C282.188 195.85 282.485 194.89 283.077 194.179C283.674 193.469 284.474 193.113 285.477 193.113C286.415 193.113 287.158 193.423 287.705 194.043C288.252 194.658 288.525 195.471 288.525 196.483V197.201H283.364C283.387 198.08 283.608 198.748 284.027 199.204C284.451 199.66 285.046 199.887 285.812 199.887C286.618 199.887 287.416 199.719 288.204 199.382V200.393C287.803 200.566 287.423 200.69 287.062 200.762C286.707 200.84 286.276 200.879 285.771 200.879ZM285.463 194.063C284.861 194.063 284.381 194.259 284.021 194.651C283.665 195.043 283.455 195.585 283.392 196.278H287.309C287.309 195.563 287.149 195.016 286.83 194.637C286.511 194.255 286.055 194.063 285.463 194.063ZM300.017 200.742V195.868C300.017 195.271 299.889 194.824 299.634 194.528C299.379 194.227 298.982 194.077 298.444 194.077C297.738 194.077 297.216 194.28 296.879 194.685C296.542 195.091 296.373 195.715 296.373 196.558V200.742H295.238V195.868C295.238 195.271 295.111 194.824 294.855 194.528C294.6 194.227 294.201 194.077 293.659 194.077C292.948 194.077 292.426 194.291 292.094 194.719C291.766 195.143 291.602 195.841 291.602 196.811V200.742H290.467V193.25H291.39L291.574 194.275H291.629C291.843 193.911 292.144 193.626 292.531 193.421C292.923 193.216 293.361 193.113 293.844 193.113C295.015 193.113 295.781 193.537 296.141 194.385H296.195C296.419 193.993 296.742 193.683 297.166 193.455C297.59 193.227 298.073 193.113 298.615 193.113C299.463 193.113 300.096 193.332 300.516 193.769C300.939 194.202 301.151 194.897 301.151 195.854V200.742H300.017ZM251.338 223.742H250.203V213.105H251.338V223.742ZM260.211 219.989C260.211 221.21 259.903 222.165 259.288 222.853C258.673 223.537 257.823 223.879 256.738 223.879C256.068 223.879 255.474 223.721 254.954 223.407C254.435 223.093 254.034 222.641 253.751 222.053C253.468 221.466 253.327 220.777 253.327 219.989C253.327 218.768 253.632 217.817 254.243 217.138C254.854 216.455 255.701 216.113 256.786 216.113C257.834 216.113 258.666 216.462 259.281 217.159C259.901 217.856 260.211 218.8 260.211 219.989ZM254.503 219.989C254.503 220.946 254.694 221.675 255.077 222.177C255.46 222.678 256.023 222.928 256.766 222.928C257.508 222.928 258.071 222.68 258.454 222.183C258.841 221.682 259.035 220.951 259.035 219.989C259.035 219.037 258.841 218.314 258.454 217.822C258.071 217.325 257.504 217.077 256.752 217.077C256.009 217.077 255.449 217.321 255.07 217.808C254.692 218.296 254.503 219.023 254.503 219.989ZM268.339 216.25V216.968L266.951 217.132C267.079 217.291 267.193 217.501 267.293 217.76C267.393 218.016 267.443 218.305 267.443 218.629C267.443 219.362 267.193 219.948 266.691 220.385C266.19 220.823 265.502 221.042 264.627 221.042C264.404 221.042 264.194 221.024 263.998 220.987C263.515 221.242 263.273 221.564 263.273 221.951C263.273 222.156 263.358 222.309 263.526 222.409C263.695 222.505 263.984 222.552 264.395 222.552H265.721C266.532 222.552 267.154 222.723 267.587 223.065C268.024 223.407 268.243 223.904 268.243 224.555C268.243 225.385 267.91 226.016 267.245 226.449C266.58 226.886 265.609 227.105 264.333 227.105C263.353 227.105 262.597 226.923 262.063 226.558C261.535 226.194 261.271 225.679 261.271 225.013C261.271 224.558 261.416 224.163 261.708 223.831C262 223.498 262.41 223.273 262.938 223.154C262.747 223.067 262.585 222.933 262.453 222.751C262.326 222.568 262.262 222.357 262.262 222.115C262.262 221.842 262.335 221.602 262.48 221.397C262.626 221.192 262.856 220.994 263.171 220.802C262.784 220.643 262.467 220.372 262.221 219.989C261.979 219.606 261.858 219.169 261.858 218.677C261.858 217.856 262.104 217.225 262.597 216.783C263.089 216.336 263.786 216.113 264.688 216.113C265.08 216.113 265.434 216.159 265.748 216.25H268.339ZM262.364 225C262.364 225.405 262.535 225.713 262.877 225.923C263.219 226.132 263.709 226.237 264.347 226.237C265.299 226.237 266.003 226.094 266.459 225.806C266.919 225.524 267.149 225.139 267.149 224.651C267.149 224.246 267.024 223.963 266.773 223.803C266.523 223.649 266.051 223.571 265.358 223.571H263.998C263.483 223.571 263.082 223.694 262.795 223.94C262.508 224.186 262.364 224.539 262.364 225ZM262.979 218.649C262.979 219.173 263.128 219.57 263.424 219.839C263.72 220.108 264.132 220.242 264.661 220.242C265.769 220.242 266.322 219.704 266.322 218.629C266.322 217.503 265.762 216.94 264.641 216.94C264.107 216.94 263.697 217.084 263.41 217.371C263.123 217.658 262.979 218.084 262.979 218.649ZM276.344 219.989C276.344 221.21 276.036 222.165 275.421 222.853C274.806 223.537 273.956 223.879 272.871 223.879C272.201 223.879 271.606 223.721 271.087 223.407C270.567 223.093 270.166 222.641 269.884 222.053C269.601 221.466 269.46 220.777 269.46 219.989C269.46 218.768 269.765 217.817 270.376 217.138C270.987 216.455 271.834 216.113 272.919 216.113C273.967 216.113 274.799 216.462 275.414 217.159C276.034 217.856 276.344 218.8 276.344 219.989ZM270.636 219.989C270.636 220.946 270.827 221.675 271.21 222.177C271.593 222.678 272.156 222.928 272.898 222.928C273.641 222.928 274.204 222.68 274.587 222.183C274.974 221.682 275.168 220.951 275.168 219.989C275.168 219.037 274.974 218.314 274.587 217.822C274.204 217.325 273.637 217.077 272.885 217.077C272.142 217.077 271.581 217.321 271.203 217.808C270.825 218.296 270.636 219.023 270.636 219.989ZM285.463 223.879C284.975 223.879 284.529 223.79 284.123 223.612C283.722 223.43 283.385 223.152 283.111 222.778H283.029C283.084 223.216 283.111 223.63 283.111 224.022V227.105H281.977V216.25H282.899L283.057 217.275H283.111C283.403 216.865 283.743 216.569 284.13 216.386C284.517 216.204 284.962 216.113 285.463 216.113C286.456 216.113 287.222 216.453 287.76 217.132C288.302 217.811 288.573 218.763 288.573 219.989C288.573 221.219 288.298 222.177 287.746 222.86C287.199 223.539 286.438 223.879 285.463 223.879ZM285.299 217.077C284.533 217.077 283.979 217.289 283.638 217.713C283.296 218.136 283.12 218.811 283.111 219.736V219.989C283.111 221.042 283.287 221.796 283.638 222.252C283.989 222.703 284.551 222.928 285.326 222.928C285.973 222.928 286.479 222.666 286.844 222.142C287.213 221.618 287.397 220.896 287.397 219.975C287.397 219.041 287.213 218.326 286.844 217.829C286.479 217.328 285.964 217.077 285.299 217.077ZM295.17 223.742L294.944 222.676H294.89C294.516 223.145 294.142 223.464 293.769 223.633C293.399 223.797 292.937 223.879 292.381 223.879C291.638 223.879 291.055 223.687 290.631 223.304C290.212 222.922 290.002 222.377 290.002 221.671C290.002 220.158 291.212 219.365 293.632 219.292L294.903 219.251V218.786C294.903 218.198 294.776 217.765 294.521 217.487C294.27 217.205 293.867 217.063 293.311 217.063C292.686 217.063 291.98 217.255 291.191 217.637L290.843 216.769C291.212 216.569 291.615 216.412 292.053 216.298C292.495 216.184 292.937 216.127 293.379 216.127C294.272 216.127 294.933 216.325 295.361 216.721C295.794 217.118 296.011 217.754 296.011 218.629V223.742H295.17ZM292.606 222.942C293.313 222.942 293.867 222.748 294.268 222.361C294.673 221.974 294.876 221.431 294.876 220.734V220.057L293.741 220.105C292.839 220.137 292.187 220.278 291.786 220.529C291.39 220.775 291.191 221.16 291.191 221.684C291.191 222.094 291.314 222.407 291.561 222.621C291.811 222.835 292.16 222.942 292.606 222.942ZM301.773 216.113C302.106 216.113 302.405 216.14 302.669 216.195L302.512 217.248C302.202 217.179 301.928 217.145 301.691 217.145C301.085 217.145 300.566 217.391 300.133 217.884C299.704 218.376 299.49 218.989 299.49 219.722V223.742H298.355V216.25H299.292L299.422 217.637H299.477C299.755 217.15 300.09 216.774 300.481 216.51C300.873 216.245 301.304 216.113 301.773 216.113ZM307.064 223.879C305.98 223.879 305.139 223.546 304.542 222.881C303.95 222.211 303.653 221.265 303.653 220.044C303.653 218.79 303.954 217.822 304.556 217.138C305.162 216.455 306.023 216.113 307.14 216.113C307.5 216.113 307.86 216.152 308.22 216.229C308.58 216.307 308.862 216.398 309.067 216.503L308.719 217.467C308.468 217.366 308.195 217.284 307.898 217.22C307.602 217.152 307.34 217.118 307.112 217.118C305.59 217.118 304.829 218.089 304.829 220.03C304.829 220.951 305.014 221.657 305.383 222.149C305.757 222.641 306.308 222.887 307.037 222.887C307.661 222.887 308.302 222.753 308.958 222.484V223.489C308.457 223.749 307.826 223.879 307.064 223.879ZM313.907 223.879C312.8 223.879 311.925 223.541 311.282 222.867C310.644 222.192 310.325 221.256 310.325 220.057C310.325 218.85 310.621 217.89 311.214 217.179C311.811 216.469 312.611 216.113 313.613 216.113C314.552 216.113 315.295 216.423 315.842 217.043C316.389 217.658 316.662 218.471 316.662 219.483V220.201H311.501C311.524 221.08 311.745 221.748 312.164 222.204C312.588 222.66 313.183 222.887 313.948 222.887C314.755 222.887 315.552 222.719 316.341 222.382V223.393C315.94 223.566 315.559 223.69 315.199 223.762C314.844 223.84 314.413 223.879 313.907 223.879ZM313.6 217.063C312.998 217.063 312.517 217.259 312.157 217.651C311.802 218.043 311.592 218.585 311.528 219.278H315.445C315.445 218.563 315.286 218.016 314.967 217.637C314.648 217.255 314.192 217.063 313.6 217.063ZM319.738 223.742H318.604V216.25H319.738V223.742ZM318.508 214.219C318.508 213.96 318.572 213.771 318.699 213.652C318.827 213.529 318.986 213.468 319.178 213.468C319.36 213.468 319.517 213.529 319.649 213.652C319.782 213.775 319.848 213.964 319.848 214.219C319.848 214.475 319.782 214.666 319.649 214.794C319.517 214.917 319.36 214.978 319.178 214.978C318.986 214.978 318.827 214.917 318.699 214.794C318.572 214.666 318.508 214.475 318.508 214.219ZM325.562 216.113C325.895 216.113 326.194 216.14 326.458 216.195L326.301 217.248C325.991 217.179 325.717 217.145 325.48 217.145C324.874 217.145 324.355 217.391 323.922 217.884C323.493 218.376 323.279 218.989 323.279 219.722V223.742H322.145V216.25H323.081L323.211 217.637H323.266C323.544 217.15 323.879 216.774 324.271 216.51C324.662 216.245 325.093 216.113 325.562 216.113ZM334.326 219.989C334.326 221.21 334.019 222.165 333.403 222.853C332.788 223.537 331.938 223.879 330.854 223.879C330.184 223.879 329.589 223.721 329.069 223.407C328.55 223.093 328.149 222.641 327.866 222.053C327.584 221.466 327.442 220.777 327.442 219.989C327.442 218.768 327.748 217.817 328.358 217.138C328.969 216.455 329.817 216.113 330.901 216.113C331.95 216.113 332.781 216.462 333.396 217.159C334.016 217.856 334.326 218.8 334.326 219.989ZM328.618 219.989C328.618 220.946 328.81 221.675 329.192 222.177C329.575 222.678 330.138 222.928 330.881 222.928C331.624 222.928 332.187 222.68 332.569 222.183C332.957 221.682 333.15 220.951 333.15 219.989C333.15 219.037 332.957 218.314 332.569 217.822C332.187 217.325 331.619 217.077 330.867 217.077C330.124 217.077 329.564 217.321 329.186 217.808C328.807 218.296 328.618 219.023 328.618 219.989Z" fill="#253858"/>
<path d="M16 48H190V144H16V48Z" fill="#C4C4C4"/>
<path d="M60.374 88.7419V78.7478H61.5361V88.7419H60.374ZM73.6631 88.7419V83.8679C73.6631 83.2709 73.5355 82.8243 73.2803 82.5281C73.0251 82.2273 72.6286 82.0769 72.0908 82.0769C71.3844 82.0769 70.8626 82.2797 70.5254 82.6853C70.1882 83.0909 70.0195 83.7153 70.0195 84.5583V88.7419H68.8848V83.8679C68.8848 83.2709 68.7572 82.8243 68.502 82.5281C68.2467 82.2273 67.848 82.0769 67.3057 82.0769C66.5947 82.0769 66.0729 82.2911 65.7402 82.7195C65.4121 83.1433 65.248 83.8406 65.248 84.8113V88.7419H64.1133V81.2498H65.0361L65.2207 82.2751H65.2754C65.4896 81.9106 65.7904 81.6257 66.1777 81.4207C66.5697 81.2156 67.0072 81.113 67.4902 81.113C68.6615 81.113 69.4271 81.5369 69.7871 82.3845H69.8418C70.0651 81.9926 70.3887 81.6827 70.8125 81.4548C71.2363 81.227 71.7194 81.113 72.2617 81.113C73.1094 81.113 73.7428 81.3318 74.1621 81.7693C74.5859 82.2022 74.7979 82.8972 74.7979 83.8542V88.7419H73.6631ZM81.75 88.7419L81.5244 87.6755H81.4697C81.096 88.1449 80.7223 88.4639 80.3486 88.6326C79.9795 88.7966 79.5169 88.8787 78.9609 88.8787C78.2181 88.8787 77.6348 88.6873 77.2109 88.3044C76.7917 87.9216 76.582 87.377 76.582 86.6707C76.582 85.1576 77.792 84.3647 80.2119 84.2917L81.4834 84.2507V83.7859C81.4834 83.198 81.3558 82.7651 81.1006 82.4871C80.8499 82.2045 80.4466 82.0632 79.8906 82.0632C79.2663 82.0632 78.5599 82.2546 77.7715 82.6375L77.4229 81.7693C77.792 81.5688 78.1953 81.4115 78.6328 81.2976C79.0749 81.1837 79.5169 81.1267 79.959 81.1267C80.8522 81.1267 81.513 81.325 81.9414 81.7214C82.3743 82.1179 82.5908 82.7537 82.5908 83.6287V88.7419H81.75ZM79.1865 87.9421C79.8929 87.9421 80.4466 87.7485 80.8477 87.3611C81.2533 86.9737 81.4561 86.4314 81.4561 85.7341V85.0574L80.3213 85.1052C79.4189 85.1371 78.7673 85.2784 78.3662 85.5291C77.9697 85.7751 77.7715 86.1602 77.7715 86.6843C77.7715 87.0945 77.8945 87.4067 78.1406 87.6208C78.3913 87.835 78.7399 87.9421 79.1865 87.9421ZM91.0674 81.2498V81.9675L89.6797 82.1316C89.8073 82.2911 89.9212 82.5007 90.0215 82.7605C90.1217 83.0157 90.1719 83.3051 90.1719 83.6287C90.1719 84.3624 89.9212 84.948 89.4199 85.3855C88.9186 85.823 88.2305 86.0417 87.3555 86.0417C87.1322 86.0417 86.9225 86.0235 86.7266 85.9871C86.2435 86.2423 86.002 86.5636 86.002 86.9509C86.002 87.156 86.0863 87.3087 86.2549 87.4089C86.4235 87.5046 86.7129 87.5525 87.123 87.5525H88.4492C89.2604 87.5525 89.8825 87.7234 90.3154 88.0652C90.7529 88.407 90.9717 88.9037 90.9717 89.5554C90.9717 90.3848 90.639 91.016 89.9736 91.449C89.3083 91.8865 88.3376 92.1052 87.0615 92.1052C86.0817 92.1052 85.3252 91.9229 84.792 91.5583C84.2633 91.1938 83.999 90.6788 83.999 90.0134C83.999 89.5577 84.1449 89.1635 84.4365 88.8308C84.7282 88.4981 85.1383 88.2725 85.667 88.1541C85.4756 88.0675 85.3138 87.933 85.1816 87.7507C85.054 87.5684 84.9902 87.3565 84.9902 87.115C84.9902 86.8416 85.0632 86.6023 85.209 86.3972C85.3548 86.1921 85.585 85.9939 85.8994 85.8025C85.512 85.643 85.1953 85.3718 84.9492 84.989C84.7077 84.6062 84.5869 84.1687 84.5869 83.6765C84.5869 82.8562 84.833 82.225 85.3252 81.783C85.8174 81.3363 86.5146 81.113 87.417 81.113C87.8089 81.113 88.1621 81.1586 88.4766 81.2498H91.0674ZM85.0928 89.9998C85.0928 90.4054 85.2637 90.713 85.6055 90.9226C85.9473 91.1322 86.4372 91.2371 87.0752 91.2371C88.0277 91.2371 88.7318 91.0935 89.1875 90.8064C89.6478 90.5238 89.8779 90.1388 89.8779 89.6511C89.8779 89.2455 89.7526 88.963 89.502 88.8035C89.2513 88.6485 88.7796 88.571 88.0869 88.571H86.7266C86.2116 88.571 85.8105 88.6941 85.5234 88.9402C85.2363 89.1863 85.0928 89.5395 85.0928 89.9998ZM85.708 83.6492C85.708 84.1733 85.8561 84.5697 86.1523 84.8386C86.4486 85.1075 86.861 85.2419 87.3896 85.2419C88.4971 85.2419 89.0508 84.7042 89.0508 83.6287C89.0508 82.503 88.4902 81.9402 87.3691 81.9402C86.8359 81.9402 86.4258 82.0837 86.1387 82.3708C85.8516 82.658 85.708 83.0841 85.708 83.6492ZM95.7705 88.8787C94.6631 88.8787 93.7881 88.5414 93.1455 87.8669C92.5075 87.1925 92.1885 86.2559 92.1885 85.0574C92.1885 83.8497 92.4847 82.8904 93.0771 82.1794C93.6742 81.4685 94.474 81.113 95.4766 81.113C96.4154 81.113 97.1582 81.4229 97.7051 82.0427C98.252 82.658 98.5254 83.4714 98.5254 84.4832V85.2009H93.3643C93.387 86.0805 93.6081 86.7481 94.0273 87.2039C94.4512 87.6596 95.0459 87.8875 95.8115 87.8875C96.6182 87.8875 97.4157 87.7188 98.2041 87.3816V88.3933C97.8031 88.5665 97.4225 88.6895 97.0625 88.7625C96.707 88.8399 96.2764 88.8787 95.7705 88.8787ZM95.4629 82.0632C94.8613 82.0632 94.3805 82.2592 94.0205 82.6511C93.665 83.0431 93.4554 83.5854 93.3916 84.2781H97.3086C97.3086 83.5626 97.1491 83.0157 96.8301 82.6375C96.5111 82.2546 96.0553 82.0632 95.4629 82.0632ZM110.017 88.7419V83.8679C110.017 83.2709 109.889 82.8243 109.634 82.5281C109.379 82.2273 108.982 82.0769 108.444 82.0769C107.738 82.0769 107.216 82.2797 106.879 82.6853C106.542 83.0909 106.373 83.7153 106.373 84.5583V88.7419H105.238V83.8679C105.238 83.2709 105.111 82.8243 104.855 82.5281C104.6 82.2273 104.201 82.0769 103.659 82.0769C102.948 82.0769 102.426 82.2911 102.094 82.7195C101.766 83.1433 101.602 83.8406 101.602 84.8113V88.7419H100.467V81.2498H101.39L101.574 82.2751H101.629C101.843 81.9106 102.144 81.6257 102.531 81.4207C102.923 81.2156 103.361 81.113 103.844 81.113C105.015 81.113 105.781 81.5369 106.141 82.3845H106.195C106.419 81.9926 106.742 81.6827 107.166 81.4548C107.59 81.227 108.073 81.113 108.615 81.113C109.463 81.113 110.096 81.3318 110.516 81.7693C110.939 82.2022 111.151 82.8972 111.151 83.8542V88.7419H110.017ZM61.3379 111.742H60.2031V101.105H61.3379V111.742ZM70.2109 107.989C70.2109 109.21 69.9033 110.165 69.2881 110.853C68.6729 111.537 67.8229 111.879 66.7383 111.879C66.0684 111.879 65.4736 111.721 64.9541 111.407C64.4346 111.093 64.0335 110.641 63.751 110.053C63.4684 109.466 63.3271 108.777 63.3271 107.989C63.3271 106.768 63.6325 105.817 64.2432 105.138C64.8538 104.455 65.7015 104.113 66.7861 104.113C67.8343 104.113 68.666 104.462 69.2812 105.159C69.901 105.856 70.2109 106.8 70.2109 107.989ZM64.5029 107.989C64.5029 108.946 64.6943 109.675 65.0771 110.177C65.46 110.678 66.0228 110.928 66.7656 110.928C67.5085 110.928 68.0713 110.68 68.4541 110.183C68.8415 109.682 69.0352 108.951 69.0352 107.989C69.0352 107.037 68.8415 106.314 68.4541 105.822C68.0713 105.325 67.5039 105.077 66.752 105.077C66.0091 105.077 65.4486 105.321 65.0703 105.808C64.6921 106.296 64.5029 107.023 64.5029 107.989ZM78.3389 104.25V104.968L76.9512 105.132C77.0788 105.291 77.1927 105.501 77.293 105.76C77.3932 106.016 77.4434 106.305 77.4434 106.629C77.4434 107.362 77.1927 107.948 76.6914 108.385C76.1901 108.823 75.502 109.042 74.627 109.042C74.4036 109.042 74.194 109.024 73.998 108.987C73.515 109.242 73.2734 109.564 73.2734 109.951C73.2734 110.156 73.3577 110.309 73.5264 110.409C73.695 110.505 73.9844 110.552 74.3945 110.552H75.7207C76.5319 110.552 77.154 110.723 77.5869 111.065C78.0244 111.407 78.2432 111.904 78.2432 112.555C78.2432 113.385 77.9105 114.016 77.2451 114.449C76.5798 114.886 75.609 115.105 74.333 115.105C73.3532 115.105 72.5967 114.923 72.0635 114.558C71.5348 114.194 71.2705 113.679 71.2705 113.013C71.2705 112.558 71.4163 112.163 71.708 111.831C71.9997 111.498 72.4098 111.273 72.9385 111.154C72.7471 111.067 72.5853 110.933 72.4531 110.751C72.3255 110.568 72.2617 110.357 72.2617 110.115C72.2617 109.842 72.3346 109.602 72.4805 109.397C72.6263 109.192 72.8564 108.994 73.1709 108.802C72.7835 108.643 72.4668 108.372 72.2207 107.989C71.9792 107.606 71.8584 107.169 71.8584 106.677C71.8584 105.856 72.1045 105.225 72.5967 104.783C73.0889 104.336 73.7861 104.113 74.6885 104.113C75.0804 104.113 75.4336 104.159 75.748 104.25H78.3389ZM72.3643 113C72.3643 113.405 72.5352 113.713 72.877 113.923C73.2188 114.132 73.7087 114.237 74.3467 114.237C75.2992 114.237 76.0033 114.094 76.459 113.806C76.9193 113.524 77.1494 113.139 77.1494 112.651C77.1494 112.246 77.0241 111.963 76.7734 111.803C76.5228 111.649 76.0511 111.571 75.3584 111.571H73.998C73.4831 111.571 73.082 111.694 72.7949 111.94C72.5078 112.186 72.3643 112.539 72.3643 113ZM72.9795 106.649C72.9795 107.173 73.1276 107.57 73.4238 107.839C73.7201 108.108 74.1325 108.242 74.6611 108.242C75.7686 108.242 76.3223 107.704 76.3223 106.629C76.3223 105.503 75.7617 104.94 74.6406 104.94C74.1074 104.94 73.6973 105.084 73.4102 105.371C73.123 105.658 72.9795 106.084 72.9795 106.649ZM86.3438 107.989C86.3438 109.21 86.0361 110.165 85.4209 110.853C84.8057 111.537 83.9557 111.879 82.8711 111.879C82.2012 111.879 81.6064 111.721 81.0869 111.407C80.5674 111.093 80.1663 110.641 79.8838 110.053C79.6012 109.466 79.46 108.777 79.46 107.989C79.46 106.768 79.7653 105.817 80.376 105.138C80.9867 104.455 81.8343 104.113 82.9189 104.113C83.9671 104.113 84.7988 104.462 85.4141 105.159C86.0339 105.856 86.3438 106.8 86.3438 107.989ZM80.6357 107.989C80.6357 108.946 80.8271 109.675 81.21 110.177C81.5928 110.678 82.1556 110.928 82.8984 110.928C83.6413 110.928 84.2041 110.68 84.5869 110.183C84.9743 109.682 85.168 108.951 85.168 107.989C85.168 107.037 84.9743 106.314 84.5869 105.822C84.2041 105.325 83.6367 105.077 82.8848 105.077C82.1419 105.077 81.5814 105.321 81.2031 105.808C80.8249 106.296 80.6357 107.023 80.6357 107.989ZM95.4629 111.879C94.9753 111.879 94.5286 111.79 94.123 111.612C93.722 111.43 93.3848 111.152 93.1113 110.778H93.0293C93.084 111.216 93.1113 111.63 93.1113 112.022V115.105H91.9766V104.25H92.8994L93.0566 105.275H93.1113C93.403 104.865 93.7425 104.569 94.1299 104.386C94.5173 104.204 94.9616 104.113 95.4629 104.113C96.4564 104.113 97.222 104.453 97.7598 105.132C98.3021 105.811 98.5732 106.763 98.5732 107.989C98.5732 109.219 98.2975 110.177 97.7461 110.86C97.1992 111.539 96.4382 111.879 95.4629 111.879ZM95.2988 105.077C94.5332 105.077 93.9795 105.289 93.6377 105.713C93.2959 106.136 93.1204 106.811 93.1113 107.736V107.989C93.1113 109.042 93.2868 109.796 93.6377 110.252C93.9886 110.703 94.5514 110.928 95.3262 110.928C95.9733 110.928 96.4792 110.666 96.8438 110.142C97.2129 109.618 97.3975 108.896 97.3975 107.975C97.3975 107.041 97.2129 106.326 96.8438 105.829C96.4792 105.328 95.9642 105.077 95.2988 105.077ZM105.17 111.742L104.944 110.676H104.89C104.516 111.145 104.142 111.464 103.769 111.633C103.399 111.797 102.937 111.879 102.381 111.879C101.638 111.879 101.055 111.687 100.631 111.304C100.212 110.922 100.002 110.377 100.002 109.671C100.002 108.158 101.212 107.365 103.632 107.292L104.903 107.251V106.786C104.903 106.198 104.776 105.765 104.521 105.487C104.27 105.205 103.867 105.063 103.311 105.063C102.686 105.063 101.98 105.255 101.191 105.637L100.843 104.769C101.212 104.569 101.615 104.412 102.053 104.298C102.495 104.184 102.937 104.127 103.379 104.127C104.272 104.127 104.933 104.325 105.361 104.721C105.794 105.118 106.011 105.754 106.011 106.629V111.742H105.17ZM102.606 110.942C103.313 110.942 103.867 110.748 104.268 110.361C104.673 109.974 104.876 109.431 104.876 108.734V108.057L103.741 108.105C102.839 108.137 102.187 108.278 101.786 108.529C101.39 108.775 101.191 109.16 101.191 109.684C101.191 110.094 101.314 110.407 101.561 110.621C101.811 110.835 102.16 110.942 102.606 110.942ZM111.773 104.113C112.106 104.113 112.405 104.14 112.669 104.195L112.512 105.248C112.202 105.179 111.928 105.145 111.691 105.145C111.085 105.145 110.566 105.391 110.133 105.884C109.704 106.376 109.49 106.989 109.49 107.722V111.742H108.355V104.25H109.292L109.422 105.637H109.477C109.755 105.15 110.09 104.774 110.481 104.51C110.873 104.245 111.304 104.113 111.773 104.113ZM117.064 111.879C115.98 111.879 115.139 111.546 114.542 110.881C113.95 110.211 113.653 109.265 113.653 108.044C113.653 106.79 113.954 105.822 114.556 105.138C115.162 104.455 116.023 104.113 117.14 104.113C117.5 104.113 117.86 104.152 118.22 104.229C118.58 104.307 118.862 104.398 119.067 104.503L118.719 105.467C118.468 105.366 118.195 105.284 117.898 105.22C117.602 105.152 117.34 105.118 117.112 105.118C115.59 105.118 114.829 106.089 114.829 108.03C114.829 108.951 115.014 109.657 115.383 110.149C115.757 110.641 116.308 110.887 117.037 110.887C117.661 110.887 118.302 110.753 118.958 110.484V111.489C118.457 111.749 117.826 111.879 117.064 111.879ZM123.907 111.879C122.8 111.879 121.925 111.541 121.282 110.867C120.644 110.192 120.325 109.256 120.325 108.057C120.325 106.85 120.621 105.89 121.214 105.179C121.811 104.469 122.611 104.113 123.613 104.113C124.552 104.113 125.295 104.423 125.842 105.043C126.389 105.658 126.662 106.471 126.662 107.483V108.201H121.501C121.524 109.08 121.745 109.748 122.164 110.204C122.588 110.66 123.183 110.887 123.948 110.887C124.755 110.887 125.552 110.719 126.341 110.382V111.393C125.94 111.566 125.559 111.69 125.199 111.762C124.844 111.84 124.413 111.879 123.907 111.879ZM123.6 105.063C122.998 105.063 122.517 105.259 122.157 105.651C121.802 106.043 121.592 106.585 121.528 107.278H125.445C125.445 106.563 125.286 106.016 124.967 105.637C124.648 105.255 124.192 105.063 123.6 105.063ZM129.738 111.742H128.604V104.25H129.738V111.742ZM128.508 102.219C128.508 101.96 128.572 101.771 128.699 101.652C128.827 101.529 128.986 101.468 129.178 101.468C129.36 101.468 129.517 101.529 129.649 101.652C129.782 101.775 129.848 101.964 129.848 102.219C129.848 102.475 129.782 102.666 129.649 102.794C129.517 102.917 129.36 102.978 129.178 102.978C128.986 102.978 128.827 102.917 128.699 102.794C128.572 102.666 128.508 102.475 128.508 102.219ZM135.562 104.113C135.895 104.113 136.194 104.14 136.458 104.195L136.301 105.248C135.991 105.179 135.717 105.145 135.48 105.145C134.874 105.145 134.355 105.391 133.922 105.884C133.493 106.376 133.279 106.989 133.279 107.722V111.742H132.145V104.25H133.081L133.211 105.637H133.266C133.544 105.15 133.879 104.774 134.271 104.51C134.662 104.245 135.093 104.113 135.562 104.113ZM144.326 107.989C144.326 109.21 144.019 110.165 143.403 110.853C142.788 111.537 141.938 111.879 140.854 111.879C140.184 111.879 139.589 111.721 139.069 111.407C138.55 111.093 138.149 110.641 137.866 110.053C137.584 109.466 137.442 108.777 137.442 107.989C137.442 106.768 137.748 105.817 138.358 105.138C138.969 104.455 139.817 104.113 140.901 104.113C141.95 104.113 142.781 104.462 143.396 105.159C144.016 105.856 144.326 106.8 144.326 107.989ZM138.618 107.989C138.618 108.946 138.81 109.675 139.192 110.177C139.575 110.678 140.138 110.928 140.881 110.928C141.624 110.928 142.187 110.68 142.569 110.183C142.957 109.682 143.15 108.951 143.15 107.989C143.15 107.037 142.957 106.314 142.569 105.822C142.187 105.325 141.619 105.077 140.867 105.077C140.124 105.077 139.564 105.321 139.186 105.808C138.807 106.296 138.618 107.023 138.618 107.989Z" fill="#253858"/>
<path d="M206 48H380V144H206V48Z" fill="#C4C4C4"/>
<path d="M250.374 88.7419V78.7478H251.536V88.7419H250.374ZM263.663 88.7419V83.8679C263.663 83.2709 263.535 82.8243 263.28 82.5281C263.025 82.2273 262.629 82.0769 262.091 82.0769C261.384 82.0769 260.863 82.2797 260.525 82.6853C260.188 83.0909 260.02 83.7153 260.02 84.5583V88.7419H258.885V83.8679C258.885 83.2709 258.757 82.8243 258.502 82.5281C258.247 82.2273 257.848 82.0769 257.306 82.0769C256.595 82.0769 256.073 82.2911 255.74 82.7195C255.412 83.1433 255.248 83.8406 255.248 84.8113V88.7419H254.113V81.2498H255.036L255.221 82.2751H255.275C255.49 81.9106 255.79 81.6257 256.178 81.4207C256.57 81.2156 257.007 81.113 257.49 81.113C258.661 81.113 259.427 81.5369 259.787 82.3845H259.842C260.065 81.9926 260.389 81.6827 260.812 81.4548C261.236 81.227 261.719 81.113 262.262 81.113C263.109 81.113 263.743 81.3318 264.162 81.7693C264.586 82.2022 264.798 82.8972 264.798 83.8542V88.7419H263.663ZM271.75 88.7419L271.524 87.6755H271.47C271.096 88.1449 270.722 88.4639 270.349 88.6326C269.979 88.7966 269.517 88.8787 268.961 88.8787C268.218 88.8787 267.635 88.6873 267.211 88.3044C266.792 87.9216 266.582 87.377 266.582 86.6707C266.582 85.1576 267.792 84.3647 270.212 84.2917L271.483 84.2507V83.7859C271.483 83.198 271.356 82.7651 271.101 82.4871C270.85 82.2045 270.447 82.0632 269.891 82.0632C269.266 82.0632 268.56 82.2546 267.771 82.6375L267.423 81.7693C267.792 81.5688 268.195 81.4115 268.633 81.2976C269.075 81.1837 269.517 81.1267 269.959 81.1267C270.852 81.1267 271.513 81.325 271.941 81.7214C272.374 82.1179 272.591 82.7537 272.591 83.6287V88.7419H271.75ZM269.187 87.9421C269.893 87.9421 270.447 87.7485 270.848 87.3611C271.253 86.9737 271.456 86.4314 271.456 85.7341V85.0574L270.321 85.1052C269.419 85.1371 268.767 85.2784 268.366 85.5291C267.97 85.7751 267.771 86.1602 267.771 86.6843C267.771 87.0945 267.895 87.4067 268.141 87.6208C268.391 87.835 268.74 87.9421 269.187 87.9421ZM281.067 81.2498V81.9675L279.68 82.1316C279.807 82.2911 279.921 82.5007 280.021 82.7605C280.122 83.0157 280.172 83.3051 280.172 83.6287C280.172 84.3624 279.921 84.948 279.42 85.3855C278.919 85.823 278.23 86.0417 277.355 86.0417C277.132 86.0417 276.923 86.0235 276.727 85.9871C276.243 86.2423 276.002 86.5636 276.002 86.9509C276.002 87.156 276.086 87.3087 276.255 87.4089C276.424 87.5046 276.713 87.5525 277.123 87.5525H278.449C279.26 87.5525 279.882 87.7234 280.315 88.0652C280.753 88.407 280.972 88.9037 280.972 89.5554C280.972 90.3848 280.639 91.016 279.974 91.449C279.308 91.8865 278.338 92.1052 277.062 92.1052C276.082 92.1052 275.325 91.9229 274.792 91.5583C274.263 91.1938 273.999 90.6788 273.999 90.0134C273.999 89.5577 274.145 89.1635 274.437 88.8308C274.728 88.4981 275.138 88.2725 275.667 88.1541C275.476 88.0675 275.314 87.933 275.182 87.7507C275.054 87.5684 274.99 87.3565 274.99 87.115C274.99 86.8416 275.063 86.6023 275.209 86.3972C275.355 86.1921 275.585 85.9939 275.899 85.8025C275.512 85.643 275.195 85.3718 274.949 84.989C274.708 84.6062 274.587 84.1687 274.587 83.6765C274.587 82.8562 274.833 82.225 275.325 81.783C275.817 81.3363 276.515 81.113 277.417 81.113C277.809 81.113 278.162 81.1586 278.477 81.2498H281.067ZM275.093 89.9998C275.093 90.4054 275.264 90.713 275.605 90.9226C275.947 91.1322 276.437 91.2371 277.075 91.2371C278.028 91.2371 278.732 91.0935 279.188 90.8064C279.648 90.5238 279.878 90.1388 279.878 89.6511C279.878 89.2455 279.753 88.963 279.502 88.8035C279.251 88.6485 278.78 88.571 278.087 88.571H276.727C276.212 88.571 275.811 88.6941 275.523 88.9402C275.236 89.1863 275.093 89.5395 275.093 89.9998ZM275.708 83.6492C275.708 84.1733 275.856 84.5697 276.152 84.8386C276.449 85.1075 276.861 85.2419 277.39 85.2419C278.497 85.2419 279.051 84.7042 279.051 83.6287C279.051 82.503 278.49 81.9402 277.369 81.9402C276.836 81.9402 276.426 82.0837 276.139 82.3708C275.852 82.658 275.708 83.0841 275.708 83.6492ZM285.771 88.8787C284.663 88.8787 283.788 88.5414 283.146 87.8669C282.507 87.1925 282.188 86.2559 282.188 85.0574C282.188 83.8497 282.485 82.8904 283.077 82.1794C283.674 81.4685 284.474 81.113 285.477 81.113C286.415 81.113 287.158 81.4229 287.705 82.0427C288.252 82.658 288.525 83.4714 288.525 84.4832V85.2009H283.364C283.387 86.0805 283.608 86.7481 284.027 87.2039C284.451 87.6596 285.046 87.8875 285.812 87.8875C286.618 87.8875 287.416 87.7188 288.204 87.3816V88.3933C287.803 88.5665 287.423 88.6895 287.062 88.7625C286.707 88.8399 286.276 88.8787 285.771 88.8787ZM285.463 82.0632C284.861 82.0632 284.381 82.2592 284.021 82.6511C283.665 83.0431 283.455 83.5854 283.392 84.2781H287.309C287.309 83.5626 287.149 83.0157 286.83 82.6375C286.511 82.2546 286.055 82.0632 285.463 82.0632ZM300.017 88.7419V83.8679C300.017 83.2709 299.889 82.8243 299.634 82.5281C299.379 82.2273 298.982 82.0769 298.444 82.0769C297.738 82.0769 297.216 82.2797 296.879 82.6853C296.542 83.0909 296.373 83.7153 296.373 84.5583V88.7419H295.238V83.8679C295.238 83.2709 295.111 82.8243 294.855 82.5281C294.6 82.2273 294.201 82.0769 293.659 82.0769C292.948 82.0769 292.426 82.2911 292.094 82.7195C291.766 83.1433 291.602 83.8406 291.602 84.8113V88.7419H290.467V81.2498H291.39L291.574 82.2751H291.629C291.843 81.9106 292.144 81.6257 292.531 81.4207C292.923 81.2156 293.361 81.113 293.844 81.113C295.015 81.113 295.781 81.5369 296.141 82.3845H296.195C296.419 81.9926 296.742 81.6827 297.166 81.4548C297.59 81.227 298.073 81.113 298.615 81.113C299.463 81.113 300.096 81.3318 300.516 81.7693C300.939 82.2022 301.151 82.8972 301.151 83.8542V88.7419H300.017ZM251.338 111.742H250.203V101.105H251.338V111.742ZM260.211 107.989C260.211 109.21 259.903 110.165 259.288 110.853C258.673 111.537 257.823 111.879 256.738 111.879C256.068 111.879 255.474 111.721 254.954 111.407C254.435 111.093 254.034 110.641 253.751 110.053C253.468 109.466 253.327 108.777 253.327 107.989C253.327 106.768 253.632 105.817 254.243 105.138C254.854 104.455 255.701 104.113 256.786 104.113C257.834 104.113 258.666 104.462 259.281 105.159C259.901 105.856 260.211 106.8 260.211 107.989ZM254.503 107.989C254.503 108.946 254.694 109.675 255.077 110.177C255.46 110.678 256.023 110.928 256.766 110.928C257.508 110.928 258.071 110.68 258.454 110.183C258.841 109.682 259.035 108.951 259.035 107.989C259.035 107.037 258.841 106.314 258.454 105.822C258.071 105.325 257.504 105.077 256.752 105.077C256.009 105.077 255.449 105.321 255.07 105.808C254.692 106.296 254.503 107.023 254.503 107.989ZM268.339 104.25V104.968L266.951 105.132C267.079 105.291 267.193 105.501 267.293 105.76C267.393 106.016 267.443 106.305 267.443 106.629C267.443 107.362 267.193 107.948 266.691 108.385C266.19 108.823 265.502 109.042 264.627 109.042C264.404 109.042 264.194 109.024 263.998 108.987C263.515 109.242 263.273 109.564 263.273 109.951C263.273 110.156 263.358 110.309 263.526 110.409C263.695 110.505 263.984 110.552 264.395 110.552H265.721C266.532 110.552 267.154 110.723 267.587 111.065C268.024 111.407 268.243 111.904 268.243 112.555C268.243 113.385 267.91 114.016 267.245 114.449C266.58 114.886 265.609 115.105 264.333 115.105C263.353 115.105 262.597 114.923 262.063 114.558C261.535 114.194 261.271 113.679 261.271 113.013C261.271 112.558 261.416 112.163 261.708 111.831C262 111.498 262.41 111.273 262.938 111.154C262.747 111.067 262.585 110.933 262.453 110.751C262.326 110.568 262.262 110.357 262.262 110.115C262.262 109.842 262.335 109.602 262.48 109.397C262.626 109.192 262.856 108.994 263.171 108.802C262.784 108.643 262.467 108.372 262.221 107.989C261.979 107.606 261.858 107.169 261.858 106.677C261.858 105.856 262.104 105.225 262.597 104.783C263.089 104.336 263.786 104.113 264.688 104.113C265.08 104.113 265.434 104.159 265.748 104.25H268.339ZM262.364 113C262.364 113.405 262.535 113.713 262.877 113.923C263.219 114.132 263.709 114.237 264.347 114.237C265.299 114.237 266.003 114.094 266.459 113.806C266.919 113.524 267.149 113.139 267.149 112.651C267.149 112.246 267.024 111.963 266.773 111.803C266.523 111.649 266.051 111.571 265.358 111.571H263.998C263.483 111.571 263.082 111.694 262.795 111.94C262.508 112.186 262.364 112.539 262.364 113ZM262.979 106.649C262.979 107.173 263.128 107.57 263.424 107.839C263.72 108.108 264.132 108.242 264.661 108.242C265.769 108.242 266.322 107.704 266.322 106.629C266.322 105.503 265.762 104.94 264.641 104.94C264.107 104.94 263.697 105.084 263.41 105.371C263.123 105.658 262.979 106.084 262.979 106.649ZM276.344 107.989C276.344 109.21 276.036 110.165 275.421 110.853C274.806 111.537 273.956 111.879 272.871 111.879C272.201 111.879 271.606 111.721 271.087 111.407C270.567 111.093 270.166 110.641 269.884 110.053C269.601 109.466 269.46 108.777 269.46 107.989C269.46 106.768 269.765 105.817 270.376 105.138C270.987 104.455 271.834 104.113 272.919 104.113C273.967 104.113 274.799 104.462 275.414 105.159C276.034 105.856 276.344 106.8 276.344 107.989ZM270.636 107.989C270.636 108.946 270.827 109.675 271.21 110.177C271.593 110.678 272.156 110.928 272.898 110.928C273.641 110.928 274.204 110.68 274.587 110.183C274.974 109.682 275.168 108.951 275.168 107.989C275.168 107.037 274.974 106.314 274.587 105.822C274.204 105.325 273.637 105.077 272.885 105.077C272.142 105.077 271.581 105.321 271.203 105.808C270.825 106.296 270.636 107.023 270.636 107.989ZM285.463 111.879C284.975 111.879 284.529 111.79 284.123 111.612C283.722 111.43 283.385 111.152 283.111 110.778H283.029C283.084 111.216 283.111 111.63 283.111 112.022V115.105H281.977V104.25H282.899L283.057 105.275H283.111C283.403 104.865 283.743 104.569 284.13 104.386C284.517 104.204 284.962 104.113 285.463 104.113C286.456 104.113 287.222 104.453 287.76 105.132C288.302 105.811 288.573 106.763 288.573 107.989C288.573 109.219 288.298 110.177 287.746 110.86C287.199 111.539 286.438 111.879 285.463 111.879ZM285.299 105.077C284.533 105.077 283.979 105.289 283.638 105.713C283.296 106.136 283.12 106.811 283.111 107.736V107.989C283.111 109.042 283.287 109.796 283.638 110.252C283.989 110.703 284.551 110.928 285.326 110.928C285.973 110.928 286.479 110.666 286.844 110.142C287.213 109.618 287.397 108.896 287.397 107.975C287.397 107.041 287.213 106.326 286.844 105.829C286.479 105.328 285.964 105.077 285.299 105.077ZM295.17 111.742L294.944 110.676H294.89C294.516 111.145 294.142 111.464 293.769 111.633C293.399 111.797 292.937 111.879 292.381 111.879C291.638 111.879 291.055 111.687 290.631 111.304C290.212 110.922 290.002 110.377 290.002 109.671C290.002 108.158 291.212 107.365 293.632 107.292L294.903 107.251V106.786C294.903 106.198 294.776 105.765 294.521 105.487C294.27 105.205 293.867 105.063 293.311 105.063C292.686 105.063 291.98 105.255 291.191 105.637L290.843 104.769C291.212 104.569 291.615 104.412 292.053 104.298C292.495 104.184 292.937 104.127 293.379 104.127C294.272 104.127 294.933 104.325 295.361 104.721C295.794 105.118 296.011 105.754 296.011 106.629V111.742H295.17ZM292.606 110.942C293.313 110.942 293.867 110.748 294.268 110.361C294.673 109.974 294.876 109.431 294.876 108.734V108.057L293.741 108.105C292.839 108.137 292.187 108.278 291.786 108.529C291.39 108.775 291.191 109.16 291.191 109.684C291.191 110.094 291.314 110.407 291.561 110.621C291.811 110.835 292.16 110.942 292.606 110.942ZM301.773 104.113C302.106 104.113 302.405 104.14 302.669 104.195L302.512 105.248C302.202 105.179 301.928 105.145 301.691 105.145C301.085 105.145 300.566 105.391 300.133 105.884C299.704 106.376 299.49 106.989 299.49 107.722V111.742H298.355V104.25H299.292L299.422 105.637H299.477C299.755 105.15 300.09 104.774 300.481 104.51C300.873 104.245 301.304 104.113 301.773 104.113ZM307.064 111.879C305.98 111.879 305.139 111.546 304.542 110.881C303.95 110.211 303.653 109.265 303.653 108.044C303.653 106.79 303.954 105.822 304.556 105.138C305.162 104.455 306.023 104.113 307.14 104.113C307.5 104.113 307.86 104.152 308.22 104.229C308.58 104.307 308.862 104.398 309.067 104.503L308.719 105.467C308.468 105.366 308.195 105.284 307.898 105.22C307.602 105.152 307.34 105.118 307.112 105.118C305.59 105.118 304.829 106.089 304.829 108.03C304.829 108.951 305.014 109.657 305.383 110.149C305.757 110.641 306.308 110.887 307.037 110.887C307.661 110.887 308.302 110.753 308.958 110.484V111.489C308.457 111.749 307.826 111.879 307.064 111.879ZM313.907 111.879C312.8 111.879 311.925 111.541 311.282 110.867C310.644 110.192 310.325 109.256 310.325 108.057C310.325 106.85 310.621 105.89 311.214 105.179C311.811 104.469 312.611 104.113 313.613 104.113C314.552 104.113 315.295 104.423 315.842 105.043C316.389 105.658 316.662 106.471 316.662 107.483V108.201H311.501C311.524 109.08 311.745 109.748 312.164 110.204C312.588 110.66 313.183 110.887 313.948 110.887C314.755 110.887 315.552 110.719 316.341 110.382V111.393C315.94 111.566 315.559 111.69 315.199 111.762C314.844 111.84 314.413 111.879 313.907 111.879ZM313.6 105.063C312.998 105.063 312.517 105.259 312.157 105.651C311.802 106.043 311.592 106.585 311.528 107.278H315.445C315.445 106.563 315.286 106.016 314.967 105.637C314.648 105.255 314.192 105.063 313.6 105.063ZM319.738 111.742H318.604V104.25H319.738V111.742ZM318.508 102.219C318.508 101.96 318.572 101.771 318.699 101.652C318.827 101.529 318.986 101.468 319.178 101.468C319.36 101.468 319.517 101.529 319.649 101.652C319.782 101.775 319.848 101.964 319.848 102.219C319.848 102.475 319.782 102.666 319.649 102.794C319.517 102.917 319.36 102.978 319.178 102.978C318.986 102.978 318.827 102.917 318.699 102.794C318.572 102.666 318.508 102.475 318.508 102.219ZM325.562 104.113C325.895 104.113 326.194 104.14 326.458 104.195L326.301 105.248C325.991 105.179 325.717 105.145 325.48 105.145C324.874 105.145 324.355 105.391 323.922 105.884C323.493 106.376 323.279 106.989 323.279 107.722V111.742H322.145V104.25H323.081L323.211 105.637H323.266C323.544 105.15 323.879 104.774 324.271 104.51C324.662 104.245 325.093 104.113 325.562 104.113ZM334.326 107.989C334.326 109.21 334.019 110.165 333.403 110.853C332.788 111.537 331.938 111.879 330.854 111.879C330.184 111.879 329.589 111.721 329.069 111.407C328.55 111.093 328.149 110.641 327.866 110.053C327.584 109.466 327.442 108.777 327.442 107.989C327.442 106.768 327.748 105.817 328.358 105.138C328.969 104.455 329.817 104.113 330.901 104.113C331.95 104.113 332.781 104.462 333.396 105.159C334.016 105.856 334.326 106.8 334.326 107.989ZM328.618 107.989C328.618 108.946 328.81 109.675 329.192 110.177C329.575 110.678 330.138 110.928 330.881 110.928C331.624 110.928 332.187 110.68 332.569 110.183C332.957 109.682 333.15 108.951 333.15 107.989C333.15 107.037 332.957 106.314 332.569 105.822C332.187 105.325 331.619 105.077 330.867 105.077C330.124 105.077 329.564 105.321 329.186 105.808C328.807 106.296 328.618 107.023 328.618 107.989Z" fill="#253858"/>
<path d="M23.9032 32H17.4423V20.5781H23.9032V22.1562H19.3094V25.2656H23.6141V26.8281H19.3094V30.4141H23.9032V32ZM29.0985 32.1562C28.0204 32.1562 27.1792 31.7656 26.5751 30.9844C25.9709 30.2031 25.6688 29.1068 25.6688 27.6953C25.6688 26.2786 25.9735 25.1771 26.5829 24.3906C27.1975 23.599 28.0464 23.2031 29.1298 23.2031C30.2652 23.2031 31.1298 23.6224 31.7235 24.4609H31.8173C31.7287 23.8411 31.6844 23.3516 31.6844 22.9922V19.8438H33.5282V32H32.0907L31.7704 30.8672H31.6844C31.0959 31.7266 30.2339 32.1562 29.0985 32.1562ZM29.5907 30.6719C30.3459 30.6719 30.8954 30.4609 31.2391 30.0391C31.5829 29.612 31.76 28.9219 31.7704 27.9688V27.7109C31.7704 26.6224 31.5933 25.849 31.2391 25.3906C30.885 24.9323 30.3303 24.7031 29.5751 24.7031C28.9292 24.7031 28.4318 24.9661 28.0829 25.4922C27.7339 26.013 27.5594 26.7578 27.5594 27.7266C27.5594 28.6849 27.7287 29.4167 28.0673 29.9219C28.4058 30.4219 28.9136 30.6719 29.5907 30.6719ZM42.2469 32L41.9891 30.8672H41.8954C41.6402 31.2682 41.2756 31.5833 40.8016 31.8125C40.3329 32.0417 39.7964 32.1562 39.1923 32.1562C38.1454 32.1562 37.3641 31.8958 36.8485 31.375C36.3329 30.8542 36.0751 30.0651 36.0751 29.0078V23.3594H37.9266V28.6875C37.9266 29.349 38.0621 29.8464 38.3329 30.1797C38.6037 30.5078 39.0282 30.6719 39.6063 30.6719C40.3772 30.6719 40.9423 30.4427 41.3016 29.9844C41.6662 29.5208 41.8485 28.7474 41.8485 27.6641V23.3594H43.6923V32H42.2469ZM49.7938 32.1562C48.4865 32.1562 47.4917 31.776 46.8094 31.0156C46.1324 30.25 45.7938 29.1536 45.7938 27.7266C45.7938 26.2734 46.148 25.1562 46.8563 24.375C47.5699 23.5938 48.5985 23.2031 49.9423 23.2031C50.8537 23.2031 51.674 23.3724 52.4032 23.7109L51.8485 25.1875C51.0725 24.8854 50.4318 24.7344 49.9266 24.7344C48.4318 24.7344 47.6844 25.7266 47.6844 27.7109C47.6844 28.6797 47.8693 29.4089 48.2391 29.8984C48.6141 30.3828 49.161 30.625 49.8798 30.625C50.6975 30.625 51.4709 30.4219 52.2001 30.0156V31.6172C51.8719 31.8099 51.5204 31.9479 51.1454 32.0312C50.7756 32.1146 50.3251 32.1562 49.7938 32.1562ZM59.6376 32L59.2704 30.7969H59.2079C58.7912 31.3229 58.3719 31.6823 57.9501 31.875C57.5282 32.0625 56.9865 32.1562 56.3251 32.1562C55.4761 32.1562 54.8121 31.9271 54.3329 31.4688C53.8589 31.0104 53.6219 30.362 53.6219 29.5234C53.6219 28.6328 53.9527 27.9609 54.6141 27.5078C55.2756 27.0547 56.2834 26.8073 57.6376 26.7656L59.1298 26.7188V26.2578C59.1298 25.7057 58.9996 25.2943 58.7391 25.0234C58.4839 24.7474 58.0855 24.6094 57.5438 24.6094C57.1011 24.6094 56.6766 24.6745 56.2704 24.8047C55.8641 24.9349 55.4735 25.0885 55.0985 25.2656L54.5048 23.9531C54.9735 23.7083 55.4865 23.5234 56.0438 23.3984C56.6011 23.2682 57.1272 23.2031 57.6219 23.2031C58.7209 23.2031 59.549 23.4427 60.1063 23.9219C60.6688 24.401 60.9501 25.1536 60.9501 26.1797V32H59.6376ZM56.9032 30.75C57.5699 30.75 58.1037 30.5651 58.5048 30.1953C58.911 29.8203 59.1141 29.2969 59.1141 28.625V27.875L58.0048 27.9219C57.1402 27.9531 56.51 28.099 56.1141 28.3594C55.7235 28.6146 55.5282 29.0078 55.5282 29.5391C55.5282 29.9245 55.6428 30.224 55.8719 30.4375C56.1011 30.6458 56.4449 30.75 56.9032 30.75ZM66.9969 32.1562C65.6897 32.1562 64.6949 31.776 64.0126 31.0156C63.3355 30.25 62.9969 29.1536 62.9969 27.7266C62.9969 26.2734 63.3511 25.1562 64.0594 24.375C64.773 23.5938 65.8016 23.2031 67.1454 23.2031C68.0568 23.2031 68.8772 23.3724 69.6063 23.7109L69.0516 25.1875C68.2756 24.8854 67.635 24.7344 67.1298 24.7344C65.635 24.7344 64.8876 25.7266 64.8876 27.7109C64.8876 28.6797 65.0725 29.4089 65.4423 29.8984C65.8173 30.3828 66.3641 30.625 67.0829 30.625C67.9006 30.625 68.674 30.4219 69.4032 30.0156V31.6172C69.0751 31.8099 68.7235 31.9479 68.3485 32.0312C67.9787 32.1146 67.5282 32.1562 66.9969 32.1562ZM73.2704 32H71.4344V23.3594H73.2704V32ZM71.3251 21.0703C71.3251 20.7422 71.4136 20.4896 71.5907 20.3125C71.773 20.1354 72.0308 20.0469 72.3641 20.0469C72.6871 20.0469 72.9371 20.1354 73.1141 20.3125C73.2964 20.4896 73.3876 20.7422 73.3876 21.0703C73.3876 21.3828 73.2964 21.6302 73.1141 21.8125C72.9371 21.9896 72.6871 22.0781 72.3641 22.0781C72.0308 22.0781 71.773 21.9896 71.5907 21.8125C71.4136 21.6302 71.3251 21.3828 71.3251 21.0703ZM83.5673 27.6641C83.5673 29.0755 83.2053 30.1771 82.4813 30.9688C81.7574 31.7604 80.7496 32.1562 79.4579 32.1562C78.6506 32.1562 77.9371 31.974 77.3173 31.6094C76.6975 31.2448 76.2209 30.7214 75.8876 30.0391C75.5542 29.3568 75.3876 28.5651 75.3876 27.6641C75.3876 26.263 75.7469 25.1693 76.4657 24.3828C77.1844 23.5964 78.1975 23.2031 79.5048 23.2031C80.7548 23.2031 81.7443 23.6068 82.4735 24.4141C83.2027 25.2161 83.5673 26.2995 83.5673 27.6641ZM77.2782 27.6641C77.2782 29.6589 78.0152 30.6562 79.4891 30.6562C80.9475 30.6562 81.6766 29.6589 81.6766 27.6641C81.6766 25.6901 80.9423 24.7031 79.4735 24.7031C78.7027 24.7031 78.1428 24.9583 77.7938 25.4688C77.4501 25.9792 77.2782 26.7109 77.2782 27.6641ZM93.286 32H91.4423V26.6875C91.4423 26.0208 91.3068 25.5234 91.036 25.1953C90.7704 24.8672 90.3459 24.7031 89.7626 24.7031C88.9865 24.7031 88.4188 24.9323 88.0594 25.3906C87.7001 25.849 87.5204 26.6172 87.5204 27.6953V32H85.6844V23.3594H87.1219L87.3798 24.4922H87.4735C87.7339 24.0807 88.1037 23.763 88.5829 23.5391C89.0621 23.3151 89.5933 23.2031 90.1766 23.2031C92.2496 23.2031 93.286 24.2578 93.286 26.3672V32ZM101.247 32L100.88 30.7969H100.817C100.401 31.3229 99.9813 31.6823 99.5594 31.875C99.1376 32.0625 98.5959 32.1562 97.9344 32.1562C97.0855 32.1562 96.4214 31.9271 95.9423 31.4688C95.4683 31.0104 95.2313 30.362 95.2313 29.5234C95.2313 28.6328 95.5621 27.9609 96.2235 27.5078C96.885 27.0547 97.8928 26.8073 99.2469 26.7656L100.739 26.7188V26.2578C100.739 25.7057 100.609 25.2943 100.349 25.0234C100.093 24.7474 99.6949 24.6094 99.1532 24.6094C98.7105 24.6094 98.286 24.6745 97.8798 24.8047C97.4735 24.9349 97.0829 25.0885 96.7079 25.2656L96.1141 23.9531C96.5829 23.7083 97.0959 23.5234 97.6532 23.3984C98.2105 23.2682 98.7365 23.2031 99.2313 23.2031C100.33 23.2031 101.158 23.4427 101.716 23.9219C102.278 24.401 102.559 25.1536 102.559 26.1797V32H101.247ZM98.5126 30.75C99.1792 30.75 99.7131 30.5651 100.114 30.1953C100.52 29.8203 100.724 29.2969 100.724 28.625V27.875L99.6141 27.9219C98.7496 27.9531 98.1193 28.099 97.7235 28.3594C97.3329 28.6146 97.1376 29.0078 97.1376 29.5391C97.1376 29.9245 97.2522 30.224 97.4813 30.4375C97.7105 30.6458 98.0542 30.75 98.5126 30.75ZM106.958 32H105.122V19.8438H106.958V32Z" fill="#253858"/>
</svg>
