<svg width="34" height="34" viewBox="0 0 34 34" fill="none" xmlns="http://www.w3.org/2000/svg">
<path d="M17 33C25.8366 33 33 25.8366 33 17C33 8.16344 25.8366 1 17 1C8.16344 1 1 8.16344 1 17C1 25.8366 8.16344 33 17 33Z" stroke="white"/>
<path fill-rule="evenodd" clip-rule="evenodd" d="M10.0942 14.3914H12.9292V24.2718H10.0942V14.3914ZM11.4394 13.1555H11.4189C10.3926 13.1555 9.72729 12.4002 9.72729 11.4437C9.72729 10.4677 10.4123 9.72729 11.4591 9.72729C12.505 9.72729 13.1481 10.4658 13.1687 11.4409C13.1687 12.3974 12.505 13.1555 11.4394 13.1555ZM24.2727 24.2727H21.058V19.1588C21.058 17.8205 20.5551 16.9078 19.4494 16.9078C18.6035 16.9078 18.1332 17.5234 17.9142 18.1185C17.8321 18.3309 17.845 18.628 17.845 18.926V24.2727H14.6602C14.6602 24.2727 14.7012 15.2147 14.6602 14.3914H17.845V15.942C18.0331 15.264 19.0508 14.2964 20.6749 14.2964C22.6897 14.2964 24.2727 15.7185 24.2727 18.7779V24.2727Z" fill="white"/>
</svg>
