<svg width="34" height="34" viewBox="0 0 34 34" fill="none" xmlns="http://www.w3.org/2000/svg">
<path d="M17 33C25.8366 33 33 25.8366 33 17C33 8.16344 25.8366 1 17 1C8.16344 1 1 8.16344 1 17C1 25.8366 8.16344 33 17 33Z" stroke="white"/>
<path fill-rule="evenodd" clip-rule="evenodd" d="M23.2008 13.2515C23.8481 12.8431 24.3447 12.1954 24.5778 11.4239C23.9718 11.8031 23.3021 12.0772 22.5877 12.2257C22.0175 11.5828 21.2027 11.1819 20.3008 11.1819C18.5707 11.1819 17.1687 12.6615 17.1687 14.4863C17.1687 14.7453 17.1946 14.9978 17.2484 15.2389C14.6452 15.1008 12.3368 13.7866 10.7904 11.786C10.5206 12.2758 10.3664 12.8431 10.3664 13.4482C10.3664 14.5941 10.9195 15.6057 11.7604 16.1995C11.2467 16.1825 10.7636 16.0321 10.3404 15.7863V15.827C10.3404 17.4286 11.4198 18.7645 12.855 19.0671C12.5914 19.1446 12.3153 19.1834 12.0284 19.1834C11.8267 19.1834 11.6295 19.1635 11.4395 19.1247C11.8375 20.437 12.9948 21.3939 14.3664 21.4194C13.2933 22.3062 11.9424 22.8338 10.4749 22.8338C10.2221 22.8338 9.97199 22.8196 9.72726 22.7884C11.1141 23.7254 12.7608 24.2728 14.5304 24.2728C20.2946 24.2728 23.4447 19.2372 23.4447 14.8701C23.4447 14.7264 23.4429 14.5837 23.4366 14.4428C24.0489 13.9767 24.5814 13.3943 25 12.7315C24.4379 12.9943 23.8337 13.1721 23.2008 13.2515Z" fill="white"/>
</svg>
