<?xml version="1.0" standalone="no"?>
<!DOCTYPE svg PUBLIC "-//W3C//DTD SVG 20010904//EN"
 "http://www.w3.org/TR/2001/REC-SVG-20010904/DTD/svg10.dtd">
<svg version="1.0" xmlns="http://www.w3.org/2000/svg"
 width="162.000000pt" height="43.000000pt" viewBox="0 0 162.000000 43.000000"
 preserveAspectRatio="xMidYMid meet">

<g transform="translate(0.000000,43.000000) scale(0.100000,-0.100000)"
fill="#000000" stroke="none">
<path d="M220 356 c0 -37 -4 -66 -10 -66 -6 0 -10 27 -10 60 0 33 -3 60 -7 60
-28 -1 -34 -20 -31 -101 l3 -83 -65 -35 c-93 -49 -100 -54 -89 -71 7 -13 17
-11 59 13 55 30 60 31 60 18 0 -6 -22 -22 -50 -38 -27 -15 -50 -32 -50 -36 0
-20 34 -17 74 7 49 28 56 31 56 17 0 -5 -23 -22 -51 -39 -43 -25 -48 -30 -35
-41 13 -11 26 -7 80 23 36 20 68 41 71 45 3 5 41 -11 85 -36 67 -38 83 -43 95
-33 13 11 8 17 -35 42 -27 15 -50 33 -50 38 0 15 7 13 56 -16 40 -24 74 -27
74 -7 0 4 -23 20 -50 35 -28 16 -50 32 -50 38 0 14 2 13 51 -15 50 -28 69 -31
69 -10 0 13 -33 36 -120 82 l-35 18 3 84 c3 81 -3 100 -30 101 -5 0 -8 -27 -8
-60 0 -79 -18 -77 -22 2 -2 50 -6 63 -20 66 -16 3 -18 -5 -18 -62z m52 -142
c24 -9 18 -56 -9 -71 -33 -17 -70 3 -70 37 0 26 30 52 52 44 6 -2 18 -7 27
-10z"/>
<path d="M960 406 c0 -7 -9 -16 -21 -19 -29 -8 -23 -52 9 -53 20 -1 22 3 22
42 0 24 -2 44 -5 44 -3 0 -5 -6 -5 -14z m-5 -46 c0 -7 -6 -15 -12 -17 -8 -3
-13 4 -13 17 0 13 5 20 13 18 6 -3 12 -11 12 -18z"/>
<path d="M1083 375 c0 -27 2 -38 4 -22 2 15 2 37 0 50 -2 12 -4 0 -4 -28z"/>
<path d="M523 375 c2 -33 6 -40 22 -40 16 0 20 7 21 40 l1 40 -4 -38 c-5 -47
-25 -45 -35 4 -6 34 -6 34 -5 -6z"/>
<path d="M603 383 c-7 -2 -13 -17 -12 -31 1 -26 1 -26 7 -4 4 13 12 23 17 23
6 0 13 -10 17 -23 6 -20 7 -19 5 6 -2 30 -12 38 -34 29z"/>
<path d="M680 386 c0 -2 5 -17 10 -32 12 -30 24 -24 34 16 l7 25 -15 -25 c-11
-18 -15 -21 -16 -8 0 14 -20 38 -20 24z"/>
<path d="M744 375 c-9 -22 3 -45 23 -44 15 0 15 2 3 7 -17 8 -26 42 -10 42 5
0 10 -4 10 -10 0 -5 4 -10 10 -10 5 0 7 7 4 15 -4 8 -13 15 -20 15 -8 0 -17
-7 -20 -15z"/>
<path d="M801 356 c1 -21 3 -25 6 -11 3 11 9 25 14 31 5 7 3 11 -6 11 -10 0
-15 -10 -14 -31z"/>
<path d="M844 379 c-3 -6 0 -15 7 -20 12 -8 12 -11 -1 -19 -13 -8 -13 -10 2
-10 24 0 30 16 12 30 -12 11 -12 15 -2 21 9 6 9 9 1 9 -6 0 -15 -5 -19 -11z"/>
<path d="M892 360 c0 -19 2 -27 5 -17 2 9 2 25 0 35 -3 9 -5 1 -5 -18z"/>
<path d="M1003 375 c17 -17 15 -35 -4 -35 -6 0 -7 5 -4 10 3 6 1 10 -5 10 -21
0 -4 -25 19 -28 19 -3 22 0 19 25 -2 18 -10 29 -22 31 -18 4 -19 3 -3 -13z"/>
<path d="M1046 375 c-7 -19 3 -45 17 -45 8 0 7 4 -1 12 -7 7 -8 17 -1 30 6 10
6 18 0 18 -5 0 -11 -7 -15 -15z"/>
<path d="M1114 375 c-9 -23 3 -45 23 -44 17 1 17 2 1 6 -10 2 -18 13 -18 24 0
21 16 26 23 7 2 -7 8 -10 12 -6 10 10 -3 28 -21 28 -8 0 -17 -7 -20 -15z"/>
<path d="M662 355 c0 -16 2 -22 5 -12 2 9 2 23 0 30 -3 6 -5 -1 -5 -18z"/>
<path d="M1168 260 c4 -28 3 -29 -32 -23 -31 5 -37 2 -47 -21 -9 -19 -10 -35
-3 -54 9 -24 14 -27 62 -28 l52 -2 0 79 c0 70 -2 79 -18 79 -15 0 -18 -6 -14
-30z m-9 -59 c7 -13 6 -23 -3 -36 -16 -22 -36 -12 -36 19 0 39 22 49 39 17z"/>
<path d="M1230 281 c0 -5 7 -11 15 -15 9 -3 15 0 15 9 0 8 -7 15 -15 15 -8 0
-15 -4 -15 -9z"/>
<path d="M520 205 c0 -60 3 -75 15 -75 11 0 15 14 16 58 l1 57 18 -55 c13 -40
22 -55 36 -55 13 0 23 15 35 55 l17 55 1 -57 c1 -48 4 -58 19 -58 15 0 17 11
18 76 l2 75 -31 -3 c-27 -3 -32 -8 -42 -45 -15 -60 -21 -61 -35 -4 -11 47 -14
51 -41 51 l-29 0 0 -75z"/>
<path d="M873 273 c-7 -2 -13 -11 -13 -18 0 -7 -6 -16 -12 -19 -10 -5 -10 -7
0 -12 6 -3 12 -21 12 -39 0 -35 21 -65 46 -65 8 0 14 7 14 15 0 8 -4 15 -10
15 -15 0 -12 67 3 74 10 5 10 7 0 12 -7 3 -13 14 -13 25 0 19 -5 21 -27 12z"/>
<path d="M1423 273 c-7 -3 -13 -11 -13 -18 0 -7 -6 -16 -12 -19 -10 -5 -10 -7
0 -12 6 -3 12 -21 12 -39 0 -38 23 -67 45 -59 17 7 20 21 4 26 -18 6 -18 57 0
69 12 7 13 12 4 15 -7 3 -13 12 -13 19 0 17 -11 24 -27 18z"/>
<path d="M729 216 c-24 -52 20 -107 72 -91 29 10 22 25 -10 25 -17 0 -33 5
-36 10 -4 6 10 10 34 10 44 0 51 12 31 51 -16 30 -77 26 -91 -5z m66 -5 c3 -5
1 -13 -5 -16 -15 -9 -43 3 -35 15 8 13 32 13 40 1z"/>
<path d="M949 216 c-26 -55 20 -107 76 -86 29 11 42 52 26 86 -9 20 -18 24
-51 24 -33 0 -42 -4 -51 -24z m70 -15 c7 -13 6 -23 -4 -37 -15 -19 -15 -19
-30 0 -10 14 -11 24 -4 37 12 24 26 24 38 0z"/>
<path d="M1230 185 c0 -42 3 -55 15 -55 12 0 15 13 15 55 0 42 -3 55 -15 55
-12 0 -15 -13 -15 -55z"/>
<path d="M1303 233 c-22 -8 -14 -43 12 -55 14 -6 25 -15 25 -20 0 -4 -11 -8
-25 -8 -29 0 -33 -16 -6 -25 21 -6 52 3 63 19 14 20 8 36 -17 48 -30 14 -33
28 -5 28 11 0 20 5 20 10 0 10 -45 12 -67 3z"/>
<path d="M1500 230 c0 -5 14 -10 30 -10 40 0 38 -13 -2 -25 -26 -8 -33 -15
-33 -35 0 -23 4 -25 53 -27 51 -2 52 -2 52 27 0 16 -5 41 -12 55 -9 20 -18 25
-50 25 -21 0 -38 -4 -38 -10z m60 -60 c0 -12 -28 -25 -36 -17 -9 9 6 27 22 27
8 0 14 -5 14 -10z"/>
<path d="M562 78 c-1 -11 -10 -18 -23 -18 -16 0 -20 -5 -17 -27 2 -22 8 -27
23 -25 27 5 27 5 22 48 -2 22 -4 31 -5 22z m-2 -43 c0 -8 -7 -15 -15 -15 -8 0
-15 7 -15 15 0 8 7 15 15 15 8 0 15 -7 15 -15z"/>
<path d="M683 75 c-3 -9 3 -25 12 -35 16 -18 17 -20 2 -20 -10 0 -17 -4 -17
-10 0 -15 16 -12 30 5 10 13 10 19 -3 33 -13 14 -14 21 -5 30 9 9 9 12 0 12
-7 0 -15 -7 -19 -15z"/>
<path d="M1083 50 c0 -25 2 -35 4 -22 2 12 2 32 0 45 -2 12 -4 2 -4 -23z"/>
<path d="M890 45 l0 -34 25 23 c25 24 33 46 15 46 -5 0 -7 -7 -4 -15 4 -10 0
-15 -11 -15 -11 0 -15 5 -11 15 3 8 1 15 -4 15 -6 0 -10 -16 -10 -35z"/>
<path d="M588 50 c-6 -18 9 -50 24 -50 7 0 6 5 -2 15 -10 12 -10 15 4 15 9 0
16 7 16 15 0 8 -5 15 -11 15 -5 0 -7 -4 -4 -10 3 -5 2 -10 -4 -10 -5 0 -11 6
-13 13 -3 8 -6 8 -10 -3z"/>
<path d="M762 36 c1 -15 6 -26 10 -26 12 0 10 38 -2 45 -6 4 -9 -5 -8 -19z"/>
<path d="M793 44 c-3 -8 2 -23 11 -32 16 -16 18 -16 31 1 7 11 11 25 8 33 -8
22 -22 16 -16 -7 4 -16 2 -20 -8 -17 -8 3 -13 12 -11 22 4 21 -7 21 -15 0z"/>
<path d="M982 35 c0 -17 2 -22 5 -12 2 9 2 23 0 30 -3 6 -5 -1 -5 -18z"/>
<path d="M1011 39 c-1 -32 5 -38 30 -32 13 4 19 14 18 32 0 25 0 25 -9 4 -12
-29 -27 -29 -33 0 -4 20 -4 20 -6 -4z"/>
<path d="M1104 45 c-4 -10 0 -24 10 -33 16 -16 18 -16 32 3 18 24 13 39 -14
43 -14 2 -25 -3 -28 -13z m41 -4 c7 -12 -12 -24 -25 -16 -11 7 -4 25 10 25 5
0 11 -4 15 -9z"/>
<path d="M736 32 c-2 -4 -1 -14 4 -22 7 -11 9 -9 7 8 -1 24 -3 26 -11 14z"/>
<path d="M950 26 c0 -8 4 -17 9 -21 6 -3 9 4 8 15 -1 23 -17 28 -17 6z"/>
</g>
</svg>
