<svg width="364" height="51" viewBox="0 0 364 51" fill="none" xmlns="http://www.w3.org/2000/svg">
<path d="M302.938 37.9014C301.839 37.9014 300.971 38.2682 300.333 39.002C299.7 39.7311 299.383 40.7314 299.383 42.0029C299.383 43.3109 299.688 44.3226 300.299 45.0381C300.914 45.749 301.789 46.1045 302.924 46.1045C303.621 46.1045 304.416 45.9792 305.31 45.7285V46.7471C304.617 47.0068 303.762 47.1367 302.746 47.1367C301.274 47.1367 300.137 46.6901 299.335 45.7969C298.537 44.9036 298.139 43.6344 298.139 41.9893C298.139 40.9593 298.33 40.057 298.713 39.2822C299.1 38.5075 299.656 37.9105 300.381 37.4912C301.11 37.0719 301.967 36.8623 302.951 36.8623C303.999 36.8623 304.915 37.0537 305.699 37.4365L305.207 38.4346C304.451 38.0791 303.694 37.9014 302.938 37.9014ZM313.786 43.2471C313.786 44.4684 313.479 45.4232 312.863 46.1113C312.248 46.7949 311.398 47.1367 310.313 47.1367C309.644 47.1367 309.049 46.9795 308.529 46.665C308.01 46.3506 307.609 45.8994 307.326 45.3115C307.044 44.7236 306.902 44.0355 306.902 43.2471C306.902 42.0257 307.208 41.0755 307.818 40.3965C308.429 39.7129 309.277 39.3711 310.361 39.3711C311.41 39.3711 312.241 39.7197 312.856 40.417C313.476 41.1143 313.786 42.0576 313.786 43.2471ZM308.078 43.2471C308.078 44.2041 308.27 44.9333 308.652 45.4346C309.035 45.9359 309.598 46.1865 310.341 46.1865C311.084 46.1865 311.646 45.9382 312.029 45.4414C312.417 44.9401 312.61 44.2087 312.61 43.2471C312.61 42.2946 312.417 41.5723 312.029 41.0801C311.646 40.5833 311.079 40.335 310.327 40.335C309.584 40.335 309.024 40.5788 308.646 41.0664C308.267 41.554 308.078 42.2809 308.078 43.2471ZM320.909 47V42.1533C320.909 41.5426 320.77 41.0869 320.492 40.7861C320.214 40.4854 319.779 40.335 319.187 40.335C318.403 40.335 317.828 40.5469 317.464 40.9707C317.099 41.3945 316.917 42.0941 316.917 43.0693V47H315.782V39.5078H316.705L316.89 40.5332H316.944C317.177 40.1641 317.503 39.8792 317.922 39.6787C318.341 39.4736 318.808 39.3711 319.323 39.3711C320.226 39.3711 320.905 39.5898 321.36 40.0273C321.816 40.4603 322.044 41.1553 322.044 42.1123V47H320.909ZM327.759 40.3896H325.852V47H324.717V40.3896H323.377V39.877L324.717 39.4668V39.0498C324.717 37.2087 325.521 36.2881 327.13 36.2881C327.526 36.2881 327.991 36.3678 328.524 36.5273L328.23 37.4365C327.793 37.2952 327.419 37.2246 327.109 37.2246C326.681 37.2246 326.364 37.3682 326.159 37.6553C325.954 37.9378 325.852 38.3936 325.852 39.0225V39.5078H327.759V40.3896ZM330.261 47H329.126V39.5078H330.261V47ZM329.03 37.4775C329.03 37.2178 329.094 37.0286 329.222 36.9102C329.349 36.7871 329.509 36.7256 329.7 36.7256C329.882 36.7256 330.04 36.7871 330.172 36.9102C330.304 37.0332 330.37 37.2223 330.37 37.4775C330.37 37.7327 330.304 37.9242 330.172 38.0518C330.04 38.1748 329.882 38.2363 329.7 38.2363C329.509 38.2363 329.349 38.1748 329.222 38.0518C329.094 37.9242 329.03 37.7327 329.03 37.4775ZM336.085 39.3711C336.418 39.3711 336.716 39.3984 336.98 39.4531L336.823 40.5059C336.513 40.4375 336.24 40.4033 336.003 40.4033C335.397 40.4033 334.877 40.6494 334.444 41.1416C334.016 41.6338 333.802 42.2467 333.802 42.9805V47H332.667V39.5078H333.604L333.733 40.8955H333.788C334.066 40.4079 334.401 40.0319 334.793 39.7676C335.185 39.5033 335.616 39.3711 336.085 39.3711ZM347.932 47V42.126C347.932 41.529 347.804 41.0824 347.549 40.7861C347.294 40.4854 346.897 40.335 346.359 40.335C345.653 40.335 345.131 40.5378 344.794 40.9434C344.457 41.349 344.288 41.9733 344.288 42.8164V47H343.153V42.126C343.153 41.529 343.026 41.0824 342.771 40.7861C342.515 40.4854 342.117 40.335 341.574 40.335C340.863 40.335 340.341 40.5492 340.009 40.9775C339.681 41.4014 339.517 42.0986 339.517 43.0693V47H338.382V39.5078H339.305L339.489 40.5332H339.544C339.758 40.1686 340.059 39.8838 340.446 39.6787C340.838 39.4736 341.276 39.3711 341.759 39.3711C342.93 39.3711 343.696 39.7949 344.056 40.6426H344.11C344.334 40.2507 344.657 39.9408 345.081 39.7129C345.505 39.485 345.988 39.3711 346.53 39.3711C347.378 39.3711 348.011 39.5898 348.431 40.0273C348.854 40.4603 349.066 41.1553 349.066 42.1123V47H347.932ZM356.019 47L355.793 45.9336H355.738C355.365 46.403 354.991 46.722 354.617 46.8906C354.248 47.0547 353.785 47.1367 353.229 47.1367C352.487 47.1367 351.903 46.9453 351.479 46.5625C351.06 46.1797 350.851 45.6351 350.851 44.9287C350.851 43.4157 352.061 42.6227 354.48 42.5498L355.752 42.5088V42.0439C355.752 41.4561 355.624 41.0231 355.369 40.7451C355.118 40.4626 354.715 40.3213 354.159 40.3213C353.535 40.3213 352.828 40.5127 352.04 40.8955L351.691 40.0273C352.061 39.8268 352.464 39.6696 352.901 39.5557C353.343 39.4417 353.785 39.3848 354.228 39.3848C355.121 39.3848 355.782 39.583 356.21 39.9795C356.643 40.376 356.859 41.0117 356.859 41.8867V47H356.019ZM353.455 46.2002C354.161 46.2002 354.715 46.0065 355.116 45.6191C355.522 45.2318 355.725 44.6895 355.725 43.9922V43.3154L354.59 43.3633C353.688 43.3952 353.036 43.5365 352.635 43.7871C352.238 44.0332 352.04 44.4183 352.04 44.9424C352.04 45.3525 352.163 45.6647 352.409 45.8789C352.66 46.0931 353.008 46.2002 353.455 46.2002ZM362.622 39.3711C362.955 39.3711 363.253 39.3984 363.518 39.4531L363.36 40.5059C363.05 40.4375 362.777 40.4033 362.54 40.4033C361.934 40.4033 361.414 40.6494 360.981 41.1416C360.553 41.6338 360.339 42.2467 360.339 42.9805V47H359.204V39.5078H360.141L360.271 40.8955H360.325C360.603 40.4079 360.938 40.0319 361.33 39.7676C361.722 39.5033 362.153 39.3711 362.622 39.3711Z" fill="#97A0AF"/>
<circle cx="331" cy="12" r="12" fill="#97A0AF"/>
<path d="M334.015 10.3027C334.015 10.9362 333.83 11.4648 333.461 11.8887C333.092 12.3079 332.572 12.5905 331.902 12.7363V12.791C332.704 12.8913 333.306 13.1419 333.707 13.543C334.108 13.9395 334.309 14.4681 334.309 15.1289C334.309 16.0905 333.969 16.8333 333.29 17.3574C332.611 17.877 331.645 18.1367 330.392 18.1367C329.284 18.1367 328.35 17.9567 327.589 17.5967V16.168C328.013 16.3776 328.462 16.5394 328.936 16.6533C329.41 16.7673 329.865 16.8242 330.303 16.8242C331.077 16.8242 331.656 16.6807 332.039 16.3936C332.422 16.1064 332.613 15.6621 332.613 15.0605C332.613 14.5273 332.401 14.1354 331.978 13.8848C331.554 13.6341 330.888 13.5088 329.981 13.5088H329.113V12.2031H329.995C331.59 12.2031 332.388 11.6517 332.388 10.5488C332.388 10.1204 332.249 9.79004 331.971 9.55762C331.693 9.3252 331.283 9.20898 330.74 9.20898C330.362 9.20898 329.997 9.26367 329.646 9.37305C329.296 9.47786 328.881 9.68522 328.402 9.99512L327.616 8.87402C328.532 8.19954 329.596 7.8623 330.809 7.8623C331.816 7.8623 332.602 8.07878 333.167 8.51172C333.732 8.94466 334.015 9.54167 334.015 10.3027Z" fill="white"/>
<line x1="204" y1="12.5" x2="311" y2="12.5" stroke="#97A0AF"/>
<path d="M160.805 47L157.414 38.1406H157.359C157.423 38.8424 157.455 39.6764 157.455 40.6426V47H156.382V37.0059H158.132L161.297 45.25H161.352L164.544 37.0059H166.28V47H165.118V40.5605C165.118 39.8223 165.15 39.0202 165.214 38.1543H165.159L161.741 47H160.805ZM175.324 43.2471C175.324 44.4684 175.017 45.4232 174.401 46.1113C173.786 46.7949 172.936 47.1367 171.852 47.1367C171.182 47.1367 170.587 46.9795 170.067 46.665C169.548 46.3506 169.147 45.8994 168.864 45.3115C168.582 44.7236 168.44 44.0355 168.44 43.2471C168.44 42.0257 168.746 41.0755 169.356 40.3965C169.967 39.7129 170.815 39.3711 171.899 39.3711C172.948 39.3711 173.779 39.7197 174.395 40.417C175.014 41.1143 175.324 42.0576 175.324 43.2471ZM169.616 43.2471C169.616 44.2041 169.808 44.9333 170.19 45.4346C170.573 45.9359 171.136 46.1865 171.879 46.1865C172.622 46.1865 173.185 45.9382 173.567 45.4414C173.955 44.9401 174.148 44.2087 174.148 43.2471C174.148 42.2946 173.955 41.5723 173.567 41.0801C173.185 40.5833 172.617 40.335 171.865 40.335C171.122 40.335 170.562 40.5788 170.184 41.0664C169.805 41.554 169.616 42.2809 169.616 43.2471ZM170.929 38.3457C171.147 38.0632 171.382 37.7214 171.633 37.3203C171.888 36.9193 172.089 36.5706 172.234 36.2744H173.615V36.418C173.415 36.7142 173.116 37.0788 172.72 37.5117C172.323 37.9447 171.979 38.2796 171.688 38.5166H170.929V38.3457ZM182.42 45.9951H182.358C181.834 46.7562 181.05 47.1367 180.007 47.1367C179.027 47.1367 178.264 46.8018 177.717 46.1318C177.174 45.4619 176.903 44.5094 176.903 43.2744C176.903 42.0394 177.177 41.0801 177.724 40.3965C178.271 39.7129 179.032 39.3711 180.007 39.3711C181.023 39.3711 181.802 39.7402 182.345 40.4785H182.434L182.386 39.9385L182.358 39.4121V36.3633H183.493V47H182.57L182.42 45.9951ZM180.15 46.1865C180.925 46.1865 181.486 45.9769 181.832 45.5576C182.183 45.1338 182.358 44.4525 182.358 43.5137V43.2744C182.358 42.2126 182.181 41.4561 181.825 41.0049C181.474 40.5492 180.911 40.3213 180.137 40.3213C179.471 40.3213 178.961 40.5811 178.605 41.1006C178.255 41.6156 178.079 42.3447 178.079 43.2881C178.079 44.2451 178.255 44.9674 178.605 45.4551C178.956 45.9427 179.471 46.1865 180.15 46.1865ZM186.973 39.5078V44.3682C186.973 44.9788 187.112 45.4346 187.39 45.7354C187.668 46.0361 188.103 46.1865 188.695 46.1865C189.479 46.1865 190.051 45.9723 190.411 45.5439C190.776 45.1156 190.958 44.416 190.958 43.4453V39.5078H192.093V47H191.156L190.992 45.9951H190.931C190.698 46.3643 190.375 46.6468 189.96 46.8428C189.55 47.0387 189.08 47.1367 188.552 47.1367C187.64 47.1367 186.957 46.9202 186.501 46.4873C186.05 46.0544 185.824 45.3617 185.824 44.4092V39.5078H186.973ZM195.641 47H194.506V36.3633H195.641V47ZM204.514 43.2471C204.514 44.4684 204.206 45.4232 203.591 46.1113C202.976 46.7949 202.126 47.1367 201.041 47.1367C200.371 47.1367 199.776 46.9795 199.257 46.665C198.737 46.3506 198.336 45.8994 198.054 45.3115C197.771 44.7236 197.63 44.0355 197.63 43.2471C197.63 42.0257 197.935 41.0755 198.546 40.3965C199.157 39.7129 200.004 39.3711 201.089 39.3711C202.137 39.3711 202.969 39.7197 203.584 40.417C204.204 41.1143 204.514 42.0576 204.514 43.2471ZM198.806 43.2471C198.806 44.2041 198.997 44.9333 199.38 45.4346C199.763 45.9359 200.326 46.1865 201.068 46.1865C201.811 46.1865 202.374 45.9382 202.757 45.4414C203.144 44.9401 203.338 44.2087 203.338 43.2471C203.338 42.2946 203.144 41.5723 202.757 41.0801C202.374 40.5833 201.807 40.335 201.055 40.335C200.312 40.335 199.751 40.5788 199.373 41.0664C198.995 41.554 198.806 42.2809 198.806 43.2471ZM211.343 44.9561C211.343 45.6533 211.083 46.1911 210.563 46.5693C210.044 46.9476 209.315 47.1367 208.376 47.1367C207.382 47.1367 206.608 46.9795 206.052 46.665V45.6123C206.412 45.7946 206.797 45.9382 207.207 46.043C207.622 46.1478 208.021 46.2002 208.403 46.2002C208.996 46.2002 209.451 46.1068 209.771 45.9199C210.09 45.7285 210.249 45.4391 210.249 45.0518C210.249 44.7601 210.121 44.5117 209.866 44.3066C209.616 44.097 209.123 43.8509 208.39 43.5684C207.692 43.3086 207.196 43.083 206.899 42.8916C206.608 42.6956 206.389 42.4746 206.243 42.2285C206.102 41.9824 206.031 41.6885 206.031 41.3467C206.031 40.736 206.28 40.2552 206.776 39.9043C207.273 39.5488 207.954 39.3711 208.82 39.3711C209.627 39.3711 210.415 39.5352 211.186 39.8633L210.782 40.7861C210.03 40.4762 209.349 40.3213 208.738 40.3213C208.201 40.3213 207.795 40.4056 207.521 40.5742C207.248 40.7428 207.111 40.9753 207.111 41.2715C207.111 41.472 207.161 41.6429 207.262 41.7842C207.367 41.9255 207.533 42.0599 207.761 42.1875C207.989 42.3151 208.426 42.4997 209.073 42.7412C209.962 43.0648 210.561 43.3906 210.871 43.7188C211.186 44.0469 211.343 44.4593 211.343 44.9561Z" fill="#97A0AF"/>
<circle cx="184" cy="12" r="12" fill="#97A0AF"/>
<path d="M187.391 18H180.616V16.7832L183.193 14.1924C183.954 13.4131 184.458 12.8617 184.704 12.5381C184.955 12.21 185.137 11.9023 185.251 11.6152C185.365 11.3281 185.422 11.0205 185.422 10.6924C185.422 10.2412 185.285 9.88574 185.012 9.62598C184.743 9.36621 184.369 9.23633 183.891 9.23633C183.508 9.23633 183.136 9.30697 182.776 9.44824C182.421 9.58952 182.008 9.84473 181.539 10.2139L180.671 9.1543C181.227 8.6849 181.767 8.35221 182.291 8.15625C182.815 7.96029 183.373 7.8623 183.966 7.8623C184.896 7.8623 185.641 8.10612 186.201 8.59375C186.762 9.07682 187.042 9.72852 187.042 10.5488C187.042 11 186.96 11.4284 186.796 11.834C186.636 12.2396 186.388 12.6589 186.051 13.0918C185.718 13.5202 185.162 14.1012 184.383 14.835L182.646 16.5166V16.585H187.391V18Z" fill="white"/>
<line x1="57" y1="12.5" x2="164" y2="12.5" stroke="#97A0AF"/>
<path d="M2.99023 47H1.82812V37.0059H7.39941V38.0381H2.99023V41.6953H7.13281V42.7275H2.99023V47ZM15.3564 43.2471C15.3564 44.4684 15.0488 45.4232 14.4336 46.1113C13.8184 46.7949 12.9684 47.1367 11.8838 47.1367C11.2139 47.1367 10.6191 46.9795 10.0996 46.665C9.58008 46.3506 9.17904 45.8994 8.89648 45.3115C8.61393 44.7236 8.47266 44.0355 8.47266 43.2471C8.47266 42.0257 8.77799 41.0755 9.38867 40.3965C9.99935 39.7129 10.847 39.3711 11.9316 39.3711C12.9798 39.3711 13.8115 39.7197 14.4268 40.417C15.0465 41.1143 15.3564 42.0576 15.3564 43.2471ZM9.64844 43.2471C9.64844 44.2041 9.83984 44.9333 10.2227 45.4346C10.6055 45.9359 11.1683 46.1865 11.9111 46.1865C12.654 46.1865 13.2168 45.9382 13.5996 45.4414C13.987 44.9401 14.1807 44.2087 14.1807 43.2471C14.1807 42.2946 13.987 41.5723 13.5996 41.0801C13.2168 40.5833 12.6494 40.335 11.8975 40.335C11.1546 40.335 10.5941 40.5788 10.2158 41.0664C9.83757 41.554 9.64844 42.2809 9.64844 43.2471ZM20.7705 39.3711C21.1032 39.3711 21.4017 39.3984 21.666 39.4531L21.5088 40.5059C21.1989 40.4375 20.9255 40.4033 20.6885 40.4033C20.0824 40.4033 19.5628 40.6494 19.1299 41.1416C18.7015 41.6338 18.4873 42.2467 18.4873 42.9805V47H17.3525V39.5078H18.2891L18.4189 40.8955H18.4736C18.7516 40.4079 19.0866 40.0319 19.4785 39.7676C19.8704 39.5033 20.3011 39.3711 20.7705 39.3711ZM32.6172 47V42.126C32.6172 41.529 32.4896 41.0824 32.2344 40.7861C31.9792 40.4854 31.5827 40.335 31.0449 40.335C30.3385 40.335 29.8167 40.5378 29.4795 40.9434C29.1423 41.349 28.9736 41.9733 28.9736 42.8164V47H27.8389V42.126C27.8389 41.529 27.7113 41.0824 27.4561 40.7861C27.2008 40.4854 26.8021 40.335 26.2598 40.335C25.5488 40.335 25.027 40.5492 24.6943 40.9775C24.3662 41.4014 24.2021 42.0986 24.2021 43.0693V47H23.0674V39.5078H23.9902L24.1748 40.5332H24.2295C24.4437 40.1686 24.7445 39.8838 25.1318 39.6787C25.5238 39.4736 25.9613 39.3711 26.4443 39.3711C27.6156 39.3711 28.3812 39.7949 28.7412 40.6426H28.7959C29.0192 40.2507 29.3428 39.9408 29.7666 39.7129C30.1904 39.485 30.6735 39.3711 31.2158 39.3711C32.0635 39.3711 32.6969 39.5898 33.1162 40.0273C33.54 40.4603 33.752 41.1553 33.752 42.1123V47H32.6172ZM37.1631 39.5078V44.3682C37.1631 44.9788 37.3021 45.4346 37.5801 45.7354C37.8581 46.0361 38.2933 46.1865 38.8857 46.1865C39.6696 46.1865 40.2415 45.9723 40.6016 45.5439C40.9661 45.1156 41.1484 44.416 41.1484 43.4453V39.5078H42.2832V47H41.3467L41.1826 45.9951H41.1211C40.8887 46.3643 40.5651 46.6468 40.1504 46.8428C39.7402 47.0387 39.2708 47.1367 38.7422 47.1367C37.8307 47.1367 37.1471 46.9202 36.6914 46.4873C36.2402 46.0544 36.0146 45.3617 36.0146 44.4092V39.5078H37.1631ZM45.8311 47H44.6963V36.3633H45.8311V47ZM52.8447 47L52.6191 45.9336H52.5645C52.1908 46.403 51.8171 46.722 51.4434 46.8906C51.0742 47.0547 50.6117 47.1367 50.0557 47.1367C49.3128 47.1367 48.7295 46.9453 48.3057 46.5625C47.8864 46.1797 47.6768 45.6351 47.6768 44.9287C47.6768 43.4157 48.8867 42.6227 51.3066 42.5498L52.5781 42.5088V42.0439C52.5781 41.4561 52.4505 41.0231 52.1953 40.7451C51.9447 40.4626 51.5413 40.3213 50.9854 40.3213C50.361 40.3213 49.6546 40.5127 48.8662 40.8955L48.5176 40.0273C48.8867 39.8268 49.29 39.6696 49.7275 39.5557C50.1696 39.4417 50.6117 39.3848 51.0537 39.3848C51.9469 39.3848 52.6077 39.583 53.0361 39.9795C53.4691 40.376 53.6855 41.0117 53.6855 41.8867V47H52.8447ZM50.2812 46.2002C50.9876 46.2002 51.5413 46.0065 51.9424 45.6191C52.348 45.2318 52.5508 44.6895 52.5508 43.9922V43.3154L51.416 43.3633C50.5137 43.3952 49.862 43.5365 49.4609 43.7871C49.0645 44.0332 48.8662 44.4183 48.8662 44.9424C48.8662 45.3525 48.9893 45.6647 49.2354 45.8789C49.486 46.0931 49.8346 46.2002 50.2812 46.2002ZM50.0146 38.3457C50.2334 38.0632 50.4681 37.7214 50.7188 37.3203C50.974 36.9193 51.1745 36.5706 51.3203 36.2744H52.7012V36.418C52.5007 36.7142 52.2021 37.0788 51.8057 37.5117C51.4092 37.9447 51.0651 38.2796 50.7734 38.5166H50.0146V38.3457ZM59.4482 39.3711C59.7809 39.3711 60.0794 39.3984 60.3438 39.4531L60.1865 40.5059C59.8766 40.4375 59.6032 40.4033 59.3662 40.4033C58.7601 40.4033 58.2406 40.6494 57.8076 41.1416C57.3792 41.6338 57.165 42.2467 57.165 42.9805V47H56.0303V39.5078H56.9668L57.0967 40.8955H57.1514C57.4294 40.4079 57.7643 40.0319 58.1562 39.7676C58.5482 39.5033 58.9788 39.3711 59.4482 39.3711ZM62.8799 47H61.7451V39.5078H62.8799V47ZM61.6494 37.4775C61.6494 37.2178 61.7132 37.0286 61.8408 36.9102C61.9684 36.7871 62.1279 36.7256 62.3193 36.7256C62.5016 36.7256 62.6589 36.7871 62.791 36.9102C62.9232 37.0332 62.9893 37.2223 62.9893 37.4775C62.9893 37.7327 62.9232 37.9242 62.791 38.0518C62.6589 38.1748 62.5016 38.2363 62.3193 38.2363C62.1279 38.2363 61.9684 38.1748 61.8408 38.0518C61.7132 37.9242 61.6494 37.7327 61.6494 37.4775ZM71.7529 43.2471C71.7529 44.4684 71.4453 45.4232 70.8301 46.1113C70.2148 46.7949 69.3649 47.1367 68.2803 47.1367C67.6104 47.1367 67.0156 46.9795 66.4961 46.665C65.9766 46.3506 65.5755 45.8994 65.293 45.3115C65.0104 44.7236 64.8691 44.0355 64.8691 43.2471C64.8691 42.0257 65.1745 41.0755 65.7852 40.3965C66.3958 39.7129 67.2435 39.3711 68.3281 39.3711C69.3763 39.3711 70.208 39.7197 70.8232 40.417C71.443 41.1143 71.7529 42.0576 71.7529 43.2471ZM66.0449 43.2471C66.0449 44.2041 66.2363 44.9333 66.6191 45.4346C67.002 45.9359 67.5648 46.1865 68.3076 46.1865C69.0505 46.1865 69.6133 45.9382 69.9961 45.4414C70.3835 44.9401 70.5771 44.2087 70.5771 43.2471C70.5771 42.2946 70.3835 41.5723 69.9961 41.0801C69.6133 40.5833 69.0459 40.335 68.2939 40.335C67.5511 40.335 66.9906 40.5788 66.6123 41.0664C66.234 41.554 66.0449 42.2809 66.0449 43.2471Z" fill="#253858"/>
<circle cx="37" cy="12" r="12" fill="#253858"/>
<path d="M38.333 18H36.7266V11.5469C36.7266 10.7767 36.7448 10.166 36.7812 9.71484C36.6764 9.82422 36.5465 9.94499 36.3916 10.0771C36.2412 10.2093 35.7308 10.6286 34.8604 11.335L34.0537 10.3164L36.9932 8.00586H38.333V18Z" fill="white"/>
</svg>
