<svg width="364" height="51" viewBox="0 0 364 51" fill="none" xmlns="http://www.w3.org/2000/svg">
<path d="M302.938 37.9014C301.839 37.9014 300.971 38.2683 300.333 39.002C299.7 39.7312 299.383 40.7315 299.383 42.003C299.383 43.3109 299.688 44.3227 300.299 45.0381C300.914 45.7491 301.789 46.1046 302.924 46.1046C303.621 46.1046 304.416 45.9792 305.31 45.7286V46.7471C304.617 47.0069 303.762 47.1368 302.746 47.1368C301.274 47.1368 300.137 46.6902 299.335 45.7969C298.537 44.9037 298.139 43.6345 298.139 41.9893C298.139 40.9594 298.33 40.057 298.713 39.2823C299.1 38.5075 299.656 37.9105 300.381 37.4913C301.11 37.072 301.967 36.8624 302.951 36.8624C303.999 36.8624 304.915 37.0538 305.699 37.4366L305.207 38.4346C304.451 38.0792 303.694 37.9014 302.938 37.9014ZM313.786 43.2471C313.786 44.4685 313.479 45.4232 312.863 46.1114C312.248 46.795 311.398 47.1368 310.313 47.1368C309.644 47.1368 309.049 46.9796 308.529 46.6651C308.01 46.3506 307.609 45.8995 307.326 45.3116C307.044 44.7237 306.902 44.0355 306.902 43.2471C306.902 42.0258 307.208 41.0756 307.818 40.3965C308.429 39.713 309.277 39.3712 310.361 39.3712C311.41 39.3712 312.241 39.7198 312.856 40.4171C313.476 41.1143 313.786 42.0577 313.786 43.2471ZM308.078 43.2471C308.078 44.2042 308.27 44.9333 308.652 45.4346C309.035 45.9359 309.598 46.1866 310.341 46.1866C311.084 46.1866 311.646 45.9382 312.029 45.4415C312.417 44.9402 312.61 44.2087 312.61 43.2471C312.61 42.2947 312.417 41.5723 312.029 41.0801C311.646 40.5834 311.079 40.335 310.327 40.335C309.584 40.335 309.024 40.5788 308.646 41.0665C308.267 41.5541 308.078 42.281 308.078 43.2471ZM320.909 47.0001V42.1534C320.909 41.5427 320.77 41.087 320.492 40.7862C320.214 40.4854 319.779 40.335 319.187 40.335C318.403 40.335 317.828 40.5469 317.464 40.9708C317.099 41.3946 316.917 42.0941 316.917 43.0694V47.0001H315.782V39.5079H316.705L316.89 40.5333H316.944C317.177 40.1641 317.503 39.8793 317.922 39.6788C318.341 39.4737 318.808 39.3712 319.323 39.3712C320.226 39.3712 320.905 39.5899 321.36 40.0274C321.816 40.4603 322.044 41.1553 322.044 42.1124V47.0001H320.909ZM327.759 40.3897H325.852V47.0001H324.717V40.3897H323.377V39.877L324.717 39.4669V39.0499C324.717 37.2087 325.521 36.2881 327.13 36.2881C327.526 36.2881 327.991 36.3679 328.524 36.5274L328.23 37.4366C327.793 37.2953 327.419 37.2247 327.109 37.2247C326.681 37.2247 326.364 37.3682 326.159 37.6553C325.954 37.9379 325.852 38.3936 325.852 39.0225V39.5079H327.759V40.3897ZM330.261 47.0001H329.126V39.5079H330.261V47.0001ZM329.03 37.4776C329.03 37.2178 329.094 37.0287 329.222 36.9102C329.349 36.7872 329.509 36.7256 329.7 36.7256C329.882 36.7256 330.04 36.7872 330.172 36.9102C330.304 37.0333 330.37 37.2224 330.37 37.4776C330.37 37.7328 330.304 37.9242 330.172 38.0518C330.04 38.1749 329.882 38.2364 329.7 38.2364C329.509 38.2364 329.349 38.1749 329.222 38.0518C329.094 37.9242 329.03 37.7328 329.03 37.4776ZM336.085 39.3712C336.418 39.3712 336.716 39.3985 336.98 39.4532L336.823 40.5059C336.513 40.4376 336.24 40.4034 336.003 40.4034C335.397 40.4034 334.877 40.6495 334.444 41.1417C334.016 41.6339 333.802 42.2468 333.802 42.9805V47.0001H332.667V39.5079H333.604L333.733 40.8956H333.788C334.066 40.4079 334.401 40.032 334.793 39.7676C335.185 39.5033 335.616 39.3712 336.085 39.3712ZM347.932 47.0001V42.126C347.932 41.529 347.804 41.0824 347.549 40.7862C347.294 40.4854 346.897 40.335 346.359 40.335C345.653 40.335 345.131 40.5378 344.794 40.9434C344.457 41.349 344.288 41.9734 344.288 42.8165V47.0001H343.153V42.126C343.153 41.529 343.026 41.0824 342.771 40.7862C342.515 40.4854 342.117 40.335 341.574 40.335C340.863 40.335 340.341 40.5492 340.009 40.9776C339.681 41.4014 339.517 42.0987 339.517 43.0694V47.0001H338.382V39.5079H339.305L339.489 40.5333H339.544C339.758 40.1687 340.059 39.8839 340.446 39.6788C340.838 39.4737 341.276 39.3712 341.759 39.3712C342.93 39.3712 343.696 39.795 344.056 40.6426H344.11C344.334 40.2507 344.657 39.9408 345.081 39.713C345.505 39.4851 345.988 39.3712 346.53 39.3712C347.378 39.3712 348.011 39.5899 348.431 40.0274C348.854 40.4603 349.066 41.1553 349.066 42.1124V47.0001H347.932ZM356.019 47.0001L355.793 45.9337H355.738C355.365 46.4031 354.991 46.7221 354.617 46.8907C354.248 47.0547 353.785 47.1368 353.229 47.1368C352.487 47.1368 351.903 46.9454 351.479 46.5626C351.06 46.1797 350.851 45.6352 350.851 44.9288C350.851 43.4158 352.061 42.6228 354.48 42.5499L355.752 42.5089V42.044C355.752 41.4561 355.624 41.0232 355.369 40.7452C355.118 40.4626 354.715 40.3214 354.159 40.3214C353.535 40.3214 352.828 40.5128 352.04 40.8956L351.691 40.0274C352.061 39.8269 352.464 39.6697 352.901 39.5557C353.343 39.4418 353.785 39.3848 354.228 39.3848C355.121 39.3848 355.782 39.5831 356.21 39.9796C356.643 40.376 356.859 41.0118 356.859 41.8868V47.0001H356.019ZM353.455 46.2003C354.161 46.2003 354.715 46.0066 355.116 45.6192C355.522 45.2318 355.725 44.6895 355.725 43.9922V43.3155L354.59 43.3633C353.688 43.3952 353.036 43.5365 352.635 43.7872C352.238 44.0333 352.04 44.4184 352.04 44.9424C352.04 45.3526 352.163 45.6648 352.409 45.879C352.66 46.0932 353.008 46.2003 353.455 46.2003ZM362.622 39.3712C362.955 39.3712 363.253 39.3985 363.518 39.4532L363.36 40.5059C363.05 40.4376 362.777 40.4034 362.54 40.4034C361.934 40.4034 361.414 40.6495 360.981 41.1417C360.553 41.6339 360.339 42.2468 360.339 42.9805V47.0001H359.204V39.5079H360.141L360.271 40.8956H360.325C360.603 40.4079 360.938 40.032 361.33 39.7676C361.722 39.5033 362.153 39.3712 362.622 39.3712Z" fill="#97A0AF"/>
<circle cx="331" cy="12.0001" r="12" fill="#97A0AF"/>
<path d="M334.015 10.3028C334.015 10.9363 333.83 11.4649 333.461 11.8887C333.092 12.308 332.572 12.5906 331.902 12.7364V12.7911C332.704 12.8913 333.306 13.142 333.707 13.543C334.108 13.9395 334.309 14.4682 334.309 15.129C334.309 16.0906 333.969 16.8334 333.29 17.3575C332.611 17.877 331.645 18.1368 330.392 18.1368C329.284 18.1368 328.35 17.9568 327.589 17.5967V16.168C328.013 16.3777 328.462 16.5394 328.936 16.6534C329.41 16.7673 329.865 16.8243 330.303 16.8243C331.077 16.8243 331.656 16.6807 332.039 16.3936C332.422 16.1065 332.613 15.6622 332.613 15.0606C332.613 14.5274 332.401 14.1355 331.978 13.8848C331.554 13.6342 330.888 13.5089 329.981 13.5089H329.113V12.2032H329.995C331.59 12.2032 332.388 11.6518 332.388 10.5489C332.388 10.1205 332.249 9.7901 331.971 9.55768C331.693 9.32526 331.283 9.20905 330.74 9.20905C330.362 9.20905 329.997 9.26373 329.646 9.37311C329.296 9.47793 328.881 9.68528 328.402 9.99518L327.616 8.87408C328.532 8.19961 329.596 7.86237 330.809 7.86237C331.816 7.86237 332.602 8.07884 333.167 8.51178C333.732 8.94472 334.015 9.54173 334.015 10.3028Z" fill="white"/>
<line x1="204" y1="12.5001" x2="311" y2="12.5001" stroke="#97A0AF"/>
<path d="M160.805 47.0001L157.414 38.1407H157.359C157.423 38.8425 157.455 39.6765 157.455 40.6426V47.0001H156.382V37.0059H158.132L161.297 45.2501H161.352L164.544 37.0059H166.28V47.0001H165.118V40.5606C165.118 39.8223 165.15 39.0202 165.214 38.1544H165.159L161.741 47.0001H160.805ZM175.324 43.2471C175.324 44.4685 175.017 45.4232 174.401 46.1114C173.786 46.795 172.936 47.1368 171.852 47.1368C171.182 47.1368 170.587 46.9796 170.067 46.6651C169.548 46.3506 169.147 45.8995 168.864 45.3116C168.582 44.7237 168.44 44.0355 168.44 43.2471C168.44 42.0258 168.746 41.0756 169.356 40.3965C169.967 39.713 170.815 39.3712 171.899 39.3712C172.948 39.3712 173.779 39.7198 174.395 40.4171C175.014 41.1143 175.324 42.0577 175.324 43.2471ZM169.616 43.2471C169.616 44.2042 169.808 44.9333 170.19 45.4346C170.573 45.9359 171.136 46.1866 171.879 46.1866C172.622 46.1866 173.185 45.9382 173.567 45.4415C173.955 44.9402 174.148 44.2087 174.148 43.2471C174.148 42.2947 173.955 41.5723 173.567 41.0801C173.185 40.5834 172.617 40.335 171.865 40.335C171.122 40.335 170.562 40.5788 170.184 41.0665C169.805 41.5541 169.616 42.281 169.616 43.2471ZM170.929 38.3458C171.147 38.0632 171.382 37.7214 171.633 37.3204C171.888 36.9193 172.089 36.5707 172.234 36.2745H173.615V36.418C173.415 36.7143 173.116 37.0788 172.72 37.5118C172.323 37.9447 171.979 38.2797 171.688 38.5167H170.929V38.3458ZM182.42 45.9952H182.358C181.834 46.7562 181.05 47.1368 180.007 47.1368C179.027 47.1368 178.264 46.8018 177.717 46.1319C177.174 45.462 176.903 44.5095 176.903 43.2745C176.903 42.0394 177.177 41.0801 177.724 40.3965C178.271 39.713 179.032 39.3712 180.007 39.3712C181.023 39.3712 181.802 39.7403 182.345 40.4786H182.434L182.386 39.9385L182.358 39.4122V36.3633H183.493V47.0001H182.57L182.42 45.9952ZM180.15 46.1866C180.925 46.1866 181.486 45.9769 181.832 45.5577C182.183 45.1339 182.358 44.4525 182.358 43.5137V43.2745C182.358 42.2126 182.181 41.4561 181.825 41.0049C181.474 40.5492 180.911 40.3214 180.137 40.3214C179.471 40.3214 178.961 40.5811 178.605 41.1006C178.255 41.6156 178.079 42.3448 178.079 43.2881C178.079 44.2452 178.255 44.9675 178.605 45.4551C178.956 45.9428 179.471 46.1866 180.15 46.1866ZM186.973 39.5079V44.3682C186.973 44.9789 187.112 45.4346 187.39 45.7354C187.668 46.0362 188.103 46.1866 188.695 46.1866C189.479 46.1866 190.051 45.9724 190.411 45.544C190.776 45.1156 190.958 44.4161 190.958 43.4454V39.5079H192.093V47.0001H191.156L190.992 45.9952H190.931C190.698 46.3643 190.375 46.6469 189.96 46.8428C189.55 47.0388 189.08 47.1368 188.552 47.1368C187.64 47.1368 186.957 46.9203 186.501 46.4874C186.05 46.0544 185.824 45.3617 185.824 44.4092V39.5079H186.973ZM195.641 47.0001H194.506V36.3633H195.641V47.0001ZM204.514 43.2471C204.514 44.4685 204.206 45.4232 203.591 46.1114C202.976 46.795 202.126 47.1368 201.041 47.1368C200.371 47.1368 199.776 46.9796 199.257 46.6651C198.737 46.3506 198.336 45.8995 198.054 45.3116C197.771 44.7237 197.63 44.0355 197.63 43.2471C197.63 42.0258 197.935 41.0756 198.546 40.3965C199.157 39.713 200.004 39.3712 201.089 39.3712C202.137 39.3712 202.969 39.7198 203.584 40.4171C204.204 41.1143 204.514 42.0577 204.514 43.2471ZM198.806 43.2471C198.806 44.2042 198.997 44.9333 199.38 45.4346C199.763 45.9359 200.326 46.1866 201.068 46.1866C201.811 46.1866 202.374 45.9382 202.757 45.4415C203.144 44.9402 203.338 44.2087 203.338 43.2471C203.338 42.2947 203.144 41.5723 202.757 41.0801C202.374 40.5834 201.807 40.335 201.055 40.335C200.312 40.335 199.751 40.5788 199.373 41.0665C198.995 41.5541 198.806 42.281 198.806 43.2471ZM211.343 44.9561C211.343 45.6534 211.083 46.1911 210.563 46.5694C210.044 46.9477 209.315 47.1368 208.376 47.1368C207.382 47.1368 206.608 46.9796 206.052 46.6651V45.6124C206.412 45.7947 206.797 45.9382 207.207 46.043C207.622 46.1478 208.021 46.2003 208.403 46.2003C208.996 46.2003 209.451 46.1068 209.771 45.92C210.09 45.7286 210.249 45.4392 210.249 45.0518C210.249 44.7602 210.121 44.5118 209.866 44.3067C209.616 44.0971 209.123 43.851 208.39 43.5684C207.692 43.3087 207.196 43.0831 206.899 42.8917C206.608 42.6957 206.389 42.4747 206.243 42.2286C206.102 41.9825 206.031 41.6885 206.031 41.3467C206.031 40.7361 206.28 40.2553 206.776 39.9044C207.273 39.5489 207.954 39.3712 208.82 39.3712C209.627 39.3712 210.415 39.5352 211.186 39.8633L210.782 40.7862C210.03 40.4763 209.349 40.3214 208.738 40.3214C208.201 40.3214 207.795 40.4057 207.521 40.5743C207.248 40.7429 207.111 40.9753 207.111 41.2715C207.111 41.4721 207.161 41.643 207.262 41.7842C207.367 41.9255 207.533 42.06 207.761 42.1876C207.989 42.3152 208.426 42.4997 209.073 42.7413C209.962 43.0648 210.561 43.3907 210.871 43.7188C211.186 44.0469 211.343 44.4594 211.343 44.9561Z" fill="#253858"/>
<circle cx="184" cy="12.0001" r="12" fill="#253858"/>
<path d="M187.391 18.0001H180.616V16.7833L183.193 14.1924C183.954 13.4131 184.458 12.8617 184.704 12.5381C184.955 12.21 185.137 11.9024 185.251 11.6153C185.365 11.3282 185.422 11.0206 185.422 10.6924C185.422 10.2413 185.285 9.8858 185.012 9.62604C184.743 9.36627 184.369 9.23639 183.891 9.23639C183.508 9.23639 183.136 9.30703 182.776 9.4483C182.421 9.58958 182.008 9.84479 181.539 10.2139L180.671 9.15436C181.227 8.68496 181.767 8.35227 182.291 8.15631C182.815 7.96035 183.373 7.86237 183.966 7.86237C184.896 7.86237 185.641 8.10618 186.201 8.59381C186.762 9.07688 187.042 9.72858 187.042 10.5489C187.042 11.0001 186.96 11.4284 186.796 11.834C186.636 12.2396 186.388 12.6589 186.051 13.0919C185.718 13.5202 185.162 14.1013 184.383 14.835L182.646 16.5167V16.585H187.391V18.0001Z" fill="white"/>
<line x1="57" y1="12.5001" x2="164" y2="12.5001" stroke="#97A0AF"/>
<path d="M2.99023 47.0001H1.82812V37.0059H7.39941V38.0381H2.99023V41.6954H7.13281V42.7276H2.99023V47.0001ZM15.3564 43.2471C15.3564 44.4685 15.0488 45.4232 14.4336 46.1114C13.8184 46.795 12.9684 47.1368 11.8838 47.1368C11.2139 47.1368 10.6191 46.9796 10.0996 46.6651C9.58008 46.3506 9.17904 45.8995 8.89648 45.3116C8.61393 44.7237 8.47266 44.0355 8.47266 43.2471C8.47266 42.0258 8.77799 41.0756 9.38867 40.3965C9.99935 39.713 10.847 39.3712 11.9316 39.3712C12.9798 39.3712 13.8115 39.7198 14.4268 40.4171C15.0465 41.1143 15.3564 42.0577 15.3564 43.2471ZM9.64844 43.2471C9.64844 44.2042 9.83984 44.9333 10.2227 45.4346C10.6055 45.9359 11.1683 46.1866 11.9111 46.1866C12.654 46.1866 13.2168 45.9382 13.5996 45.4415C13.987 44.9402 14.1807 44.2087 14.1807 43.2471C14.1807 42.2947 13.987 41.5723 13.5996 41.0801C13.2168 40.5834 12.6494 40.335 11.8975 40.335C11.1546 40.335 10.5941 40.5788 10.2158 41.0665C9.83757 41.5541 9.64844 42.281 9.64844 43.2471ZM20.7705 39.3712C21.1032 39.3712 21.4017 39.3985 21.666 39.4532L21.5088 40.5059C21.1989 40.4376 20.9255 40.4034 20.6885 40.4034C20.0824 40.4034 19.5628 40.6495 19.1299 41.1417C18.7015 41.6339 18.4873 42.2468 18.4873 42.9805V47.0001H17.3525V39.5079H18.2891L18.4189 40.8956H18.4736C18.7516 40.4079 19.0866 40.032 19.4785 39.7676C19.8704 39.5033 20.3011 39.3712 20.7705 39.3712ZM32.6172 47.0001V42.126C32.6172 41.529 32.4896 41.0824 32.2344 40.7862C31.9792 40.4854 31.5827 40.335 31.0449 40.335C30.3385 40.335 29.8167 40.5378 29.4795 40.9434C29.1423 41.349 28.9736 41.9734 28.9736 42.8165V47.0001H27.8389V42.126C27.8389 41.529 27.7113 41.0824 27.4561 40.7862C27.2008 40.4854 26.8021 40.335 26.2598 40.335C25.5488 40.335 25.027 40.5492 24.6943 40.9776C24.3662 41.4014 24.2021 42.0987 24.2021 43.0694V47.0001H23.0674V39.5079H23.9902L24.1748 40.5333H24.2295C24.4437 40.1687 24.7445 39.8839 25.1318 39.6788C25.5238 39.4737 25.9613 39.3712 26.4443 39.3712C27.6156 39.3712 28.3812 39.795 28.7412 40.6426H28.7959C29.0192 40.2507 29.3428 39.9408 29.7666 39.713C30.1904 39.4851 30.6735 39.3712 31.2158 39.3712C32.0635 39.3712 32.6969 39.5899 33.1162 40.0274C33.54 40.4603 33.752 41.1553 33.752 42.1124V47.0001H32.6172ZM37.1631 39.5079V44.3682C37.1631 44.9789 37.3021 45.4346 37.5801 45.7354C37.8581 46.0362 38.2933 46.1866 38.8857 46.1866C39.6696 46.1866 40.2415 45.9724 40.6016 45.544C40.9661 45.1156 41.1484 44.4161 41.1484 43.4454V39.5079H42.2832V47.0001H41.3467L41.1826 45.9952H41.1211C40.8887 46.3643 40.5651 46.6469 40.1504 46.8428C39.7402 47.0388 39.2708 47.1368 38.7422 47.1368C37.8307 47.1368 37.1471 46.9203 36.6914 46.4874C36.2402 46.0544 36.0146 45.3617 36.0146 44.4092V39.5079H37.1631ZM45.8311 47.0001H44.6963V36.3633H45.8311V47.0001ZM52.8447 47.0001L52.6191 45.9337H52.5645C52.1908 46.4031 51.8171 46.7221 51.4434 46.8907C51.0742 47.0547 50.6117 47.1368 50.0557 47.1368C49.3128 47.1368 48.7295 46.9454 48.3057 46.5626C47.8864 46.1797 47.6768 45.6352 47.6768 44.9288C47.6768 43.4158 48.8867 42.6228 51.3066 42.5499L52.5781 42.5089V42.044C52.5781 41.4561 52.4505 41.0232 52.1953 40.7452C51.9447 40.4626 51.5413 40.3214 50.9854 40.3214C50.361 40.3214 49.6546 40.5128 48.8662 40.8956L48.5176 40.0274C48.8867 39.8269 49.29 39.6697 49.7275 39.5557C50.1696 39.4418 50.6117 39.3848 51.0537 39.3848C51.9469 39.3848 52.6077 39.5831 53.0361 39.9796C53.4691 40.376 53.6855 41.0118 53.6855 41.8868V47.0001H52.8447ZM50.2812 46.2003C50.9876 46.2003 51.5413 46.0066 51.9424 45.6192C52.348 45.2318 52.5508 44.6895 52.5508 43.9922V43.3155L51.416 43.3633C50.5137 43.3952 49.862 43.5365 49.4609 43.7872C49.0645 44.0333 48.8662 44.4184 48.8662 44.9424C48.8662 45.3526 48.9893 45.6648 49.2354 45.879C49.486 46.0932 49.8346 46.2003 50.2812 46.2003ZM50.0146 38.3458C50.2334 38.0632 50.4681 37.7214 50.7188 37.3204C50.974 36.9193 51.1745 36.5707 51.3203 36.2745H52.7012V36.418C52.5007 36.7143 52.2021 37.0788 51.8057 37.5118C51.4092 37.9447 51.0651 38.2797 50.7734 38.5167H50.0146V38.3458ZM59.4482 39.3712C59.7809 39.3712 60.0794 39.3985 60.3438 39.4532L60.1865 40.5059C59.8766 40.4376 59.6032 40.4034 59.3662 40.4034C58.7601 40.4034 58.2406 40.6495 57.8076 41.1417C57.3792 41.6339 57.165 42.2468 57.165 42.9805V47.0001H56.0303V39.5079H56.9668L57.0967 40.8956H57.1514C57.4294 40.4079 57.7643 40.032 58.1562 39.7676C58.5482 39.5033 58.9788 39.3712 59.4482 39.3712ZM62.8799 47.0001H61.7451V39.5079H62.8799V47.0001ZM61.6494 37.4776C61.6494 37.2178 61.7132 37.0287 61.8408 36.9102C61.9684 36.7872 62.1279 36.7256 62.3193 36.7256C62.5016 36.7256 62.6589 36.7872 62.791 36.9102C62.9232 37.0333 62.9893 37.2224 62.9893 37.4776C62.9893 37.7328 62.9232 37.9242 62.791 38.0518C62.6589 38.1749 62.5016 38.2364 62.3193 38.2364C62.1279 38.2364 61.9684 38.1749 61.8408 38.0518C61.7132 37.9242 61.6494 37.7328 61.6494 37.4776ZM71.7529 43.2471C71.7529 44.4685 71.4453 45.4232 70.8301 46.1114C70.2148 46.795 69.3649 47.1368 68.2803 47.1368C67.6104 47.1368 67.0156 46.9796 66.4961 46.6651C65.9766 46.3506 65.5755 45.8995 65.293 45.3116C65.0104 44.7237 64.8691 44.0355 64.8691 43.2471C64.8691 42.0258 65.1745 41.0756 65.7852 40.3965C66.3958 39.713 67.2435 39.3712 68.3281 39.3712C69.3763 39.3712 70.208 39.7198 70.8232 40.4171C71.443 41.1143 71.7529 42.0577 71.7529 43.2471ZM66.0449 43.2471C66.0449 44.2042 66.2363 44.9333 66.6191 45.4346C67.002 45.9359 67.5648 46.1866 68.3076 46.1866C69.0505 46.1866 69.6133 45.9382 69.9961 45.4415C70.3835 44.9402 70.5771 44.2087 70.5771 43.2471C70.5771 42.2947 70.3835 41.5723 69.9961 41.0801C69.6133 40.5834 69.0459 40.335 68.2939 40.335C67.5511 40.335 66.9906 40.5788 66.6123 41.0665C66.234 41.5541 66.0449 42.281 66.0449 43.2471Z" fill="#97A0AF"/>
<circle cx="37" cy="12.0001" r="12" fill="#97A0AF"/>
<path d="M34.9999 14.8001L32.1999 12.0001L31.2666 12.9334L34.9999 16.6667L42.9999 8.66673L42.0665 7.7334L34.9999 14.8001Z" fill="white"/>
</svg>
