<svg width="364" height="51" viewBox="0 0 364 51" fill="none" xmlns="http://www.w3.org/2000/svg">
<path d="M302.938 37.9016C301.839 37.9016 300.971 38.2684 300.333 39.0021C299.7 39.7313 299.383 40.7316 299.383 42.0031C299.383 43.3111 299.688 44.3228 300.299 45.0383C300.914 45.7492 301.789 46.1047 302.924 46.1047C303.621 46.1047 304.416 45.9793 305.31 45.7287V46.7473C304.617 47.007 303.762 47.1369 302.746 47.1369C301.274 47.1369 300.137 46.6903 299.335 45.7971C298.537 44.9038 298.139 43.6346 298.139 41.9894C298.139 40.9595 298.33 40.0571 298.713 39.2824C299.1 38.5077 299.656 37.9107 300.381 37.4914C301.11 37.0721 301.967 36.8625 302.951 36.8625C303.999 36.8625 304.915 37.0539 305.699 37.4367L305.207 38.4348C304.451 38.0793 303.694 37.9016 302.938 37.9016ZM313.786 43.2473C313.786 44.4686 313.479 45.4234 312.863 46.1115C312.248 46.7951 311.398 47.1369 310.313 47.1369C309.644 47.1369 309.049 46.9797 308.529 46.6652C308.01 46.3508 307.609 45.8996 307.326 45.3117C307.044 44.7238 306.902 44.0357 306.902 43.2473C306.902 42.0259 307.208 41.0757 307.818 40.3967C308.429 39.7131 309.277 39.3713 310.361 39.3713C311.41 39.3713 312.241 39.7199 312.856 40.4172C313.476 41.1144 313.786 42.0578 313.786 43.2473ZM308.078 43.2473C308.078 44.2043 308.27 44.9335 308.652 45.4348C309.035 45.9361 309.598 46.1867 310.341 46.1867C311.084 46.1867 311.646 45.9383 312.029 45.4416C312.417 44.9403 312.61 44.2088 312.61 43.2473C312.61 42.2948 312.417 41.5724 312.029 41.0803C311.646 40.5835 311.079 40.3351 310.327 40.3351C309.584 40.3351 309.024 40.579 308.646 41.0666C308.267 41.5542 308.078 42.2811 308.078 43.2473ZM320.909 47.0002V42.1535C320.909 41.5428 320.77 41.0871 320.492 40.7863C320.214 40.4855 319.779 40.3351 319.187 40.3351C318.403 40.3351 317.828 40.5471 317.464 40.9709C317.099 41.3947 316.917 42.0943 316.917 43.0695V47.0002H315.782V39.508H316.705L316.89 40.5334H316.944C317.177 40.1642 317.503 39.8794 317.922 39.6789C318.341 39.4738 318.808 39.3713 319.323 39.3713C320.226 39.3713 320.905 39.59 321.36 40.0275C321.816 40.4605 322.044 41.1555 322.044 42.1125V47.0002H320.909ZM327.759 40.3898H325.852V47.0002H324.717V40.3898H323.377V39.8771L324.717 39.467V39.05C324.717 37.2088 325.521 36.2883 327.13 36.2883C327.526 36.2883 327.991 36.368 328.524 36.5275L328.23 37.4367C327.793 37.2954 327.419 37.2248 327.109 37.2248C326.681 37.2248 326.364 37.3683 326.159 37.6555C325.954 37.938 325.852 38.3937 325.852 39.0226V39.508H327.759V40.3898ZM330.261 47.0002H329.126V39.508H330.261V47.0002ZM329.03 37.4777C329.03 37.218 329.094 37.0288 329.222 36.9103C329.349 36.7873 329.509 36.7258 329.7 36.7258C329.882 36.7258 330.04 36.7873 330.172 36.9103C330.304 37.0334 330.37 37.2225 330.37 37.4777C330.37 37.7329 330.304 37.9243 330.172 38.0519C330.04 38.175 329.882 38.2365 329.7 38.2365C329.509 38.2365 329.349 38.175 329.222 38.0519C329.094 37.9243 329.03 37.7329 329.03 37.4777ZM336.085 39.3713C336.418 39.3713 336.716 39.3986 336.98 39.4533L336.823 40.506C336.513 40.4377 336.24 40.4035 336.003 40.4035C335.397 40.4035 334.877 40.6496 334.444 41.1418C334.016 41.634 333.802 42.2469 333.802 42.9807V47.0002H332.667V39.508H333.604L333.733 40.8957H333.788C334.066 40.4081 334.401 40.0321 334.793 39.7678C335.185 39.5034 335.616 39.3713 336.085 39.3713ZM347.932 47.0002V42.1262C347.932 41.5292 347.804 41.0825 347.549 40.7863C347.294 40.4855 346.897 40.3351 346.359 40.3351C345.653 40.3351 345.131 40.5379 344.794 40.9435C344.457 41.3491 344.288 41.9735 344.288 42.8166V47.0002H343.153V42.1262C343.153 41.5292 343.026 41.0825 342.771 40.7863C342.515 40.4855 342.117 40.3351 341.574 40.3351C340.863 40.3351 340.341 40.5493 340.009 40.9777C339.681 41.4016 339.517 42.0988 339.517 43.0695V47.0002H338.382V39.508H339.305L339.489 40.5334H339.544C339.758 40.1688 340.059 39.884 340.446 39.6789C340.838 39.4738 341.276 39.3713 341.759 39.3713C342.93 39.3713 343.696 39.7951 344.056 40.6428H344.11C344.334 40.2508 344.657 39.9409 345.081 39.7131C345.505 39.4852 345.988 39.3713 346.53 39.3713C347.378 39.3713 348.011 39.59 348.431 40.0275C348.854 40.4605 349.066 41.1555 349.066 42.1125V47.0002H347.932ZM356.019 47.0002L355.793 45.9338H355.738C355.365 46.4032 354.991 46.7222 354.617 46.8908C354.248 47.0549 353.785 47.1369 353.229 47.1369C352.487 47.1369 351.903 46.9455 351.479 46.5627C351.06 46.1799 350.851 45.6353 350.851 44.9289C350.851 43.4159 352.061 42.6229 354.48 42.55L355.752 42.509V42.0441C355.752 41.4562 355.624 41.0233 355.369 40.7453C355.118 40.4627 354.715 40.3215 354.159 40.3215C353.535 40.3215 352.828 40.5129 352.04 40.8957L351.691 40.0275C352.061 39.827 352.464 39.6698 352.901 39.5558C353.343 39.4419 353.785 39.3849 354.228 39.3849C355.121 39.3849 355.782 39.5832 356.21 39.9797C356.643 40.3762 356.859 41.0119 356.859 41.8869V47.0002H356.019ZM353.455 46.2004C354.161 46.2004 354.715 46.0067 355.116 45.6193C355.522 45.232 355.725 44.6896 355.725 43.9924V43.3156L354.59 43.3635C353.688 43.3954 353.036 43.5366 352.635 43.7873C352.238 44.0334 352.04 44.4185 352.04 44.9426C352.04 45.3527 352.163 45.6649 352.409 45.8791C352.66 46.0933 353.008 46.2004 353.455 46.2004ZM362.622 39.3713C362.955 39.3713 363.253 39.3986 363.518 39.4533L363.36 40.506C363.05 40.4377 362.777 40.4035 362.54 40.4035C361.934 40.4035 361.414 40.6496 360.981 41.1418C360.553 41.634 360.339 42.2469 360.339 42.9807V47.0002H359.204V39.508H360.141L360.271 40.8957H360.325C360.603 40.4081 360.938 40.0321 361.33 39.7678C361.722 39.5034 362.153 39.3713 362.622 39.3713Z" fill="#253858"/>
<circle cx="331" cy="12.0002" r="12" fill="#253858"/>
<path d="M334.015 10.3029C334.015 10.9364 333.83 11.465 333.461 11.8889C333.092 12.3081 332.572 12.5907 331.902 12.7365V12.7912C332.704 12.8915 333.306 13.1421 333.707 13.5432C334.108 13.9396 334.309 14.4683 334.309 15.1291C334.309 16.0907 333.969 16.8335 333.29 17.3576C332.611 17.8771 331.645 18.1369 330.392 18.1369C329.284 18.1369 328.35 17.9569 327.589 17.5969V16.1682C328.013 16.3778 328.462 16.5396 328.936 16.6535C329.41 16.7674 329.865 16.8244 330.303 16.8244C331.077 16.8244 331.656 16.6808 332.039 16.3937C332.422 16.1066 332.613 15.6623 332.613 15.0607C332.613 14.5275 332.401 14.1356 331.978 13.8849C331.554 13.6343 330.888 13.509 329.981 13.509H329.113V12.2033H329.995C331.59 12.2033 332.388 11.6519 332.388 10.549C332.388 10.1206 332.249 9.79022 331.971 9.5578C331.693 9.32538 331.283 9.20917 330.74 9.20917C330.362 9.20917 329.997 9.26385 329.646 9.37323C329.296 9.47805 328.881 9.6854 328.402 9.9953L327.616 8.87421C328.532 8.19973 329.596 7.86249 330.809 7.86249C331.816 7.86249 332.602 8.07896 333.167 8.5119C333.732 8.94484 334.015 9.54185 334.015 10.3029Z" fill="white"/>
<line x1="204" y1="12.5002" x2="311" y2="12.5002" stroke="#97A0AF"/>
<path d="M160.805 47.0002L157.414 38.1408H157.359C157.423 38.8426 157.455 39.6766 157.455 40.6428V47.0002H156.382V37.006H158.132L161.297 45.2502H161.352L164.544 37.006H166.28V47.0002H165.118V40.5607C165.118 39.8224 165.15 39.0204 165.214 38.1545H165.159L161.741 47.0002H160.805ZM175.324 43.2473C175.324 44.4686 175.017 45.4234 174.401 46.1115C173.786 46.7951 172.936 47.1369 171.852 47.1369C171.182 47.1369 170.587 46.9797 170.067 46.6652C169.548 46.3508 169.147 45.8996 168.864 45.3117C168.582 44.7238 168.44 44.0357 168.44 43.2473C168.44 42.0259 168.746 41.0757 169.356 40.3967C169.967 39.7131 170.815 39.3713 171.899 39.3713C172.948 39.3713 173.779 39.7199 174.395 40.4172C175.014 41.1144 175.324 42.0578 175.324 43.2473ZM169.616 43.2473C169.616 44.2043 169.808 44.9335 170.19 45.4348C170.573 45.9361 171.136 46.1867 171.879 46.1867C172.622 46.1867 173.185 45.9383 173.567 45.4416C173.955 44.9403 174.148 44.2088 174.148 43.2473C174.148 42.2948 173.955 41.5724 173.567 41.0803C173.185 40.5835 172.617 40.3351 171.865 40.3351C171.122 40.3351 170.562 40.579 170.184 41.0666C169.805 41.5542 169.616 42.2811 169.616 43.2473ZM170.929 38.3459C171.147 38.0633 171.382 37.7215 171.633 37.3205C171.888 36.9195 172.089 36.5708 172.234 36.2746H173.615V36.4182C173.415 36.7144 173.116 37.079 172.72 37.5119C172.323 37.9448 171.979 38.2798 171.688 38.5168H170.929V38.3459ZM182.42 45.9953H182.358C181.834 46.7564 181.05 47.1369 180.007 47.1369C179.027 47.1369 178.264 46.8019 177.717 46.132C177.174 45.4621 176.903 44.5096 176.903 43.2746C176.903 42.0396 177.177 41.0803 177.724 40.3967C178.271 39.7131 179.032 39.3713 180.007 39.3713C181.023 39.3713 181.802 39.7404 182.345 40.4787H182.434L182.386 39.9387L182.358 39.4123V36.3635H183.493V47.0002H182.57L182.42 45.9953ZM180.15 46.1867C180.925 46.1867 181.486 45.9771 181.832 45.5578C182.183 45.134 182.358 44.4527 182.358 43.5139V43.2746C182.358 42.2127 182.181 41.4562 181.825 41.0051C181.474 40.5493 180.911 40.3215 180.137 40.3215C179.471 40.3215 178.961 40.5812 178.605 41.1008C178.255 41.6157 178.079 42.3449 178.079 43.2883C178.079 44.2453 178.255 44.9676 178.605 45.4553C178.956 45.9429 179.471 46.1867 180.15 46.1867ZM186.973 39.508V44.3683C186.973 44.979 187.112 45.4348 187.39 45.7355C187.668 46.0363 188.103 46.1867 188.695 46.1867C189.479 46.1867 190.051 45.9725 190.411 45.5441C190.776 45.1157 190.958 44.4162 190.958 43.4455V39.508H192.093V47.0002H191.156L190.992 45.9953H190.931C190.698 46.3644 190.375 46.647 189.96 46.843C189.55 47.0389 189.08 47.1369 188.552 47.1369C187.64 47.1369 186.957 46.9204 186.501 46.4875C186.05 46.0545 185.824 45.3618 185.824 44.4094V39.508H186.973ZM195.641 47.0002H194.506V36.3635H195.641V47.0002ZM204.514 43.2473C204.514 44.4686 204.206 45.4234 203.591 46.1115C202.976 46.7951 202.126 47.1369 201.041 47.1369C200.371 47.1369 199.776 46.9797 199.257 46.6652C198.737 46.3508 198.336 45.8996 198.054 45.3117C197.771 44.7238 197.63 44.0357 197.63 43.2473C197.63 42.0259 197.935 41.0757 198.546 40.3967C199.157 39.7131 200.004 39.3713 201.089 39.3713C202.137 39.3713 202.969 39.7199 203.584 40.4172C204.204 41.1144 204.514 42.0578 204.514 43.2473ZM198.806 43.2473C198.806 44.2043 198.997 44.9335 199.38 45.4348C199.763 45.9361 200.326 46.1867 201.068 46.1867C201.811 46.1867 202.374 45.9383 202.757 45.4416C203.144 44.9403 203.338 44.2088 203.338 43.2473C203.338 42.2948 203.144 41.5724 202.757 41.0803C202.374 40.5835 201.807 40.3351 201.055 40.3351C200.312 40.3351 199.751 40.579 199.373 41.0666C198.995 41.5542 198.806 42.2811 198.806 43.2473ZM211.343 44.9562C211.343 45.6535 211.083 46.1913 210.563 46.5695C210.044 46.9478 209.315 47.1369 208.376 47.1369C207.382 47.1369 206.608 46.9797 206.052 46.6652V45.6125C206.412 45.7948 206.797 45.9383 207.207 46.0432C207.622 46.148 208.021 46.2004 208.403 46.2004C208.996 46.2004 209.451 46.107 209.771 45.9201C210.09 45.7287 210.249 45.4393 210.249 45.0519C210.249 44.7603 210.121 44.5119 209.866 44.3068C209.616 44.0972 209.123 43.8511 208.39 43.5685C207.692 43.3088 207.196 43.0832 206.899 42.8918C206.608 42.6958 206.389 42.4748 206.243 42.2287C206.102 41.9826 206.031 41.6887 206.031 41.3469C206.031 40.7362 206.28 40.2554 206.776 39.9045C207.273 39.549 207.954 39.3713 208.82 39.3713C209.627 39.3713 210.415 39.5353 211.186 39.8635L210.782 40.7863C210.03 40.4764 209.349 40.3215 208.738 40.3215C208.201 40.3215 207.795 40.4058 207.521 40.5744C207.248 40.743 207.111 40.9754 207.111 41.2717C207.111 41.4722 207.161 41.6431 207.262 41.7844C207.367 41.9256 207.533 42.0601 207.761 42.1877C207.989 42.3153 208.426 42.4999 209.073 42.7414C209.962 43.065 210.561 43.3908 210.871 43.7189C211.186 44.0471 211.343 44.4595 211.343 44.9562Z" fill="#97A0AF"/>
<circle cx="184" cy="12.0002" r="12" fill="#97A0AF"/>
<path d="M182 14.8001L179.2 12.0001L178.267 12.9334L182 16.6667L190 8.66673L189.067 7.7334L182 14.8001Z" fill="white"/>
<line x1="57" y1="12.5002" x2="164" y2="12.5002" stroke="#97A0AF"/>
<path d="M2.99023 47.0002H1.82812V37.006H7.39941V38.0383H2.99023V41.6955H7.13281V42.7277H2.99023V47.0002ZM15.3564 43.2473C15.3564 44.4686 15.0488 45.4234 14.4336 46.1115C13.8184 46.7951 12.9684 47.1369 11.8838 47.1369C11.2139 47.1369 10.6191 46.9797 10.0996 46.6652C9.58008 46.3508 9.17904 45.8996 8.89648 45.3117C8.61393 44.7238 8.47266 44.0357 8.47266 43.2473C8.47266 42.0259 8.77799 41.0757 9.38867 40.3967C9.99935 39.7131 10.847 39.3713 11.9316 39.3713C12.9798 39.3713 13.8115 39.7199 14.4268 40.4172C15.0465 41.1144 15.3564 42.0578 15.3564 43.2473ZM9.64844 43.2473C9.64844 44.2043 9.83984 44.9335 10.2227 45.4348C10.6055 45.9361 11.1683 46.1867 11.9111 46.1867C12.654 46.1867 13.2168 45.9383 13.5996 45.4416C13.987 44.9403 14.1807 44.2088 14.1807 43.2473C14.1807 42.2948 13.987 41.5724 13.5996 41.0803C13.2168 40.5835 12.6494 40.3351 11.8975 40.3351C11.1546 40.3351 10.5941 40.579 10.2158 41.0666C9.83757 41.5542 9.64844 42.2811 9.64844 43.2473ZM20.7705 39.3713C21.1032 39.3713 21.4017 39.3986 21.666 39.4533L21.5088 40.506C21.1989 40.4377 20.9255 40.4035 20.6885 40.4035C20.0824 40.4035 19.5628 40.6496 19.1299 41.1418C18.7015 41.634 18.4873 42.2469 18.4873 42.9807V47.0002H17.3525V39.508H18.2891L18.4189 40.8957H18.4736C18.7516 40.4081 19.0866 40.0321 19.4785 39.7678C19.8704 39.5034 20.3011 39.3713 20.7705 39.3713ZM32.6172 47.0002V42.1262C32.6172 41.5292 32.4896 41.0825 32.2344 40.7863C31.9792 40.4855 31.5827 40.3351 31.0449 40.3351C30.3385 40.3351 29.8167 40.5379 29.4795 40.9435C29.1423 41.3491 28.9736 41.9735 28.9736 42.8166V47.0002H27.8389V42.1262C27.8389 41.5292 27.7113 41.0825 27.4561 40.7863C27.2008 40.4855 26.8021 40.3351 26.2598 40.3351C25.5488 40.3351 25.027 40.5493 24.6943 40.9777C24.3662 41.4016 24.2021 42.0988 24.2021 43.0695V47.0002H23.0674V39.508H23.9902L24.1748 40.5334H24.2295C24.4437 40.1688 24.7445 39.884 25.1318 39.6789C25.5238 39.4738 25.9613 39.3713 26.4443 39.3713C27.6156 39.3713 28.3812 39.7951 28.7412 40.6428H28.7959C29.0192 40.2508 29.3428 39.9409 29.7666 39.7131C30.1904 39.4852 30.6735 39.3713 31.2158 39.3713C32.0635 39.3713 32.6969 39.59 33.1162 40.0275C33.54 40.4605 33.752 41.1555 33.752 42.1125V47.0002H32.6172ZM37.1631 39.508V44.3683C37.1631 44.979 37.3021 45.4348 37.5801 45.7355C37.8581 46.0363 38.2933 46.1867 38.8857 46.1867C39.6696 46.1867 40.2415 45.9725 40.6016 45.5441C40.9661 45.1157 41.1484 44.4162 41.1484 43.4455V39.508H42.2832V47.0002H41.3467L41.1826 45.9953H41.1211C40.8887 46.3644 40.5651 46.647 40.1504 46.843C39.7402 47.0389 39.2708 47.1369 38.7422 47.1369C37.8307 47.1369 37.1471 46.9204 36.6914 46.4875C36.2402 46.0545 36.0146 45.3618 36.0146 44.4094V39.508H37.1631ZM45.8311 47.0002H44.6963V36.3635H45.8311V47.0002ZM52.8447 47.0002L52.6191 45.9338H52.5645C52.1908 46.4032 51.8171 46.7222 51.4434 46.8908C51.0742 47.0549 50.6117 47.1369 50.0557 47.1369C49.3128 47.1369 48.7295 46.9455 48.3057 46.5627C47.8864 46.1799 47.6768 45.6353 47.6768 44.9289C47.6768 43.4159 48.8867 42.6229 51.3066 42.55L52.5781 42.509V42.0441C52.5781 41.4562 52.4505 41.0233 52.1953 40.7453C51.9447 40.4627 51.5413 40.3215 50.9854 40.3215C50.361 40.3215 49.6546 40.5129 48.8662 40.8957L48.5176 40.0275C48.8867 39.827 49.29 39.6698 49.7275 39.5558C50.1696 39.4419 50.6117 39.3849 51.0537 39.3849C51.9469 39.3849 52.6077 39.5832 53.0361 39.9797C53.4691 40.3762 53.6855 41.0119 53.6855 41.8869V47.0002H52.8447ZM50.2812 46.2004C50.9876 46.2004 51.5413 46.0067 51.9424 45.6193C52.348 45.232 52.5508 44.6896 52.5508 43.9924V43.3156L51.416 43.3635C50.5137 43.3954 49.862 43.5366 49.4609 43.7873C49.0645 44.0334 48.8662 44.4185 48.8662 44.9426C48.8662 45.3527 48.9893 45.6649 49.2354 45.8791C49.486 46.0933 49.8346 46.2004 50.2812 46.2004ZM50.0146 38.3459C50.2334 38.0633 50.4681 37.7215 50.7188 37.3205C50.974 36.9195 51.1745 36.5708 51.3203 36.2746H52.7012V36.4182C52.5007 36.7144 52.2021 37.079 51.8057 37.5119C51.4092 37.9448 51.0651 38.2798 50.7734 38.5168H50.0146V38.3459ZM59.4482 39.3713C59.7809 39.3713 60.0794 39.3986 60.3438 39.4533L60.1865 40.506C59.8766 40.4377 59.6032 40.4035 59.3662 40.4035C58.7601 40.4035 58.2406 40.6496 57.8076 41.1418C57.3792 41.634 57.165 42.2469 57.165 42.9807V47.0002H56.0303V39.508H56.9668L57.0967 40.8957H57.1514C57.4294 40.4081 57.7643 40.0321 58.1562 39.7678C58.5482 39.5034 58.9788 39.3713 59.4482 39.3713ZM62.8799 47.0002H61.7451V39.508H62.8799V47.0002ZM61.6494 37.4777C61.6494 37.218 61.7132 37.0288 61.8408 36.9103C61.9684 36.7873 62.1279 36.7258 62.3193 36.7258C62.5016 36.7258 62.6589 36.7873 62.791 36.9103C62.9232 37.0334 62.9893 37.2225 62.9893 37.4777C62.9893 37.7329 62.9232 37.9243 62.791 38.0519C62.6589 38.175 62.5016 38.2365 62.3193 38.2365C62.1279 38.2365 61.9684 38.175 61.8408 38.0519C61.7132 37.9243 61.6494 37.7329 61.6494 37.4777ZM71.7529 43.2473C71.7529 44.4686 71.4453 45.4234 70.8301 46.1115C70.2148 46.7951 69.3649 47.1369 68.2803 47.1369C67.6104 47.1369 67.0156 46.9797 66.4961 46.6652C65.9766 46.3508 65.5755 45.8996 65.293 45.3117C65.0104 44.7238 64.8691 44.0357 64.8691 43.2473C64.8691 42.0259 65.1745 41.0757 65.7852 40.3967C66.3958 39.7131 67.2435 39.3713 68.3281 39.3713C69.3763 39.3713 70.208 39.7199 70.8232 40.4172C71.443 41.1144 71.7529 42.0578 71.7529 43.2473ZM66.0449 43.2473C66.0449 44.2043 66.2363 44.9335 66.6191 45.4348C67.002 45.9361 67.5648 46.1867 68.3076 46.1867C69.0505 46.1867 69.6133 45.9383 69.9961 45.4416C70.3835 44.9403 70.5771 44.2088 70.5771 43.2473C70.5771 42.2948 70.3835 41.5724 69.9961 41.0803C69.6133 40.5835 69.0459 40.3351 68.2939 40.3351C67.5511 40.3351 66.9906 40.579 66.6123 41.0666C66.234 41.5542 66.0449 42.2811 66.0449 43.2473Z" fill="#97A0AF"/>
<circle cx="37" cy="12.0002" r="12" fill="#97A0AF"/>
<path d="M34.9999 14.8002L32.1999 12.0002L31.2666 12.9335L34.9999 16.6669L42.9999 8.66685L42.0665 7.73352L34.9999 14.8002Z" fill="white"/>
</svg>
