<svg width="318" height="44" viewBox="0 0 318 44" fill="none" xmlns="http://www.w3.org/2000/svg">
<path d="M52.4238 13.0059H53.6748L50.0723 23H48.9238L45.3418 13.0059H46.5723L48.8691 19.4727C49.1335 20.2155 49.3431 20.9378 49.498 21.6396C49.6621 20.9014 49.8763 20.1654 50.1406 19.4316L52.4238 13.0059ZM61.3516 19.2471C61.3516 20.4684 61.0439 21.4232 60.4287 22.1113C59.8135 22.7949 58.9635 23.1367 57.8789 23.1367C57.209 23.1367 56.6143 22.9795 56.0947 22.665C55.5752 22.3506 55.1742 21.8994 54.8916 21.3115C54.609 20.7236 54.4678 20.0355 54.4678 19.2471C54.4678 18.0257 54.7731 17.0755 55.3838 16.3965C55.9945 15.7129 56.8421 15.3711 57.9268 15.3711C58.9749 15.3711 59.8066 15.7197 60.4219 16.417C61.0417 17.1143 61.3516 18.0576 61.3516 19.2471ZM55.6436 19.2471C55.6436 20.2041 55.835 20.9333 56.2178 21.4346C56.6006 21.9359 57.1634 22.1865 57.9062 22.1865C58.6491 22.1865 59.2119 21.9382 59.5947 21.4414C59.9821 20.9401 60.1758 20.2087 60.1758 19.2471C60.1758 18.2946 59.9821 17.5723 59.5947 17.0801C59.2119 16.5833 58.6445 16.335 57.8926 16.335C57.1497 16.335 56.5892 16.5788 56.2109 17.0664C55.8327 17.554 55.6436 18.2809 55.6436 19.2471ZM64.4824 23H63.3477V12.3633H64.4824V23ZM69.3086 22.2002C69.5091 22.2002 69.7028 22.1865 69.8896 22.1592C70.0765 22.1273 70.2246 22.0954 70.334 22.0635V22.9316C70.2109 22.9909 70.0286 23.0387 69.7871 23.0752C69.5501 23.1162 69.3359 23.1367 69.1445 23.1367C67.6953 23.1367 66.9707 22.3734 66.9707 20.8467V16.3896H65.8975V15.8428L66.9707 15.3711L67.4492 13.7715H68.1055V15.5078H70.2793V16.3896H68.1055V20.7988C68.1055 21.25 68.2126 21.5964 68.4268 21.8379C68.641 22.0794 68.9349 22.2002 69.3086 22.2002ZM76.4453 23L76.2197 21.9336H76.165C75.7913 22.403 75.4176 22.722 75.0439 22.8906C74.6748 23.0547 74.2122 23.1367 73.6562 23.1367C72.9134 23.1367 72.3301 22.9453 71.9062 22.5625C71.487 22.1797 71.2773 21.6351 71.2773 20.9287C71.2773 19.4157 72.4873 18.6227 74.9072 18.5498L76.1787 18.5088V18.0439C76.1787 17.4561 76.0511 17.0231 75.7959 16.7451C75.5452 16.4626 75.1419 16.3213 74.5859 16.3213C73.9616 16.3213 73.2552 16.5127 72.4668 16.8955L72.1182 16.0273C72.4873 15.8268 72.8906 15.6696 73.3281 15.5557C73.7702 15.4417 74.2122 15.3848 74.6543 15.3848C75.5475 15.3848 76.2083 15.583 76.6367 15.9795C77.0697 16.376 77.2861 17.0117 77.2861 17.8867V23H76.4453ZM73.8818 22.2002C74.5882 22.2002 75.1419 22.0065 75.543 21.6191C75.9486 21.2318 76.1514 20.6895 76.1514 19.9922V19.3154L75.0166 19.3633C74.1143 19.3952 73.4626 19.5365 73.0615 19.7871C72.665 20.0332 72.4668 20.4183 72.4668 20.9424C72.4668 21.3525 72.5898 21.6647 72.8359 21.8789C73.0866 22.0931 73.4352 22.2002 73.8818 22.2002ZM83.0488 15.3711C83.3815 15.3711 83.68 15.3984 83.9443 15.4531L83.7871 16.5059C83.4772 16.4375 83.2038 16.4033 82.9668 16.4033C82.3607 16.4033 81.8411 16.6494 81.4082 17.1416C80.9798 17.6338 80.7656 18.2467 80.7656 18.9805V23H79.6309V15.5078H80.5674L80.6973 16.8955H80.752C81.0299 16.4079 81.3649 16.0319 81.7568 15.7676C82.1488 15.5033 82.5794 15.3711 83.0488 15.3711ZM92.4688 23.1367C91.9811 23.1367 91.5345 23.0479 91.1289 22.8701C90.7279 22.6878 90.3906 22.4098 90.1172 22.0361H90.0352C90.0898 22.4736 90.1172 22.8883 90.1172 23.2803V26.3633H88.9824V15.5078H89.9053L90.0625 16.5332H90.1172C90.4089 16.123 90.7484 15.8268 91.1357 15.6445C91.5231 15.4622 91.9674 15.3711 92.4688 15.3711C93.4622 15.3711 94.2279 15.7106 94.7656 16.3896C95.3079 17.0687 95.5791 18.0212 95.5791 19.2471C95.5791 20.4775 95.3034 21.4346 94.752 22.1182C94.2051 22.7972 93.444 23.1367 92.4688 23.1367ZM92.3047 16.335C91.5391 16.335 90.9854 16.5469 90.6436 16.9707C90.3018 17.3945 90.1263 18.069 90.1172 18.9941V19.2471C90.1172 20.2998 90.2926 21.054 90.6436 21.5098C90.9945 21.9609 91.5573 22.1865 92.332 22.1865C92.9792 22.1865 93.485 21.9245 93.8496 21.4004C94.2188 20.8763 94.4033 20.154 94.4033 19.2334C94.4033 18.2992 94.2188 17.5837 93.8496 17.0869C93.485 16.5856 92.9701 16.335 92.3047 16.335ZM102.176 23L101.95 21.9336H101.896C101.522 22.403 101.148 22.722 100.774 22.8906C100.405 23.0547 99.9427 23.1367 99.3867 23.1367C98.6439 23.1367 98.0605 22.9453 97.6367 22.5625C97.2174 22.1797 97.0078 21.6351 97.0078 20.9287C97.0078 19.4157 98.2178 18.6227 100.638 18.5498L101.909 18.5088V18.0439C101.909 17.4561 101.782 17.0231 101.526 16.7451C101.276 16.4626 100.872 16.3213 100.316 16.3213C99.6921 16.3213 98.9857 16.5127 98.1973 16.8955L97.8486 16.0273C98.2178 15.8268 98.6211 15.6696 99.0586 15.5557C99.5007 15.4417 99.9427 15.3848 100.385 15.3848C101.278 15.3848 101.939 15.583 102.367 15.9795C102.8 16.376 103.017 17.0117 103.017 17.8867V23H102.176ZM99.6123 22.2002C100.319 22.2002 100.872 22.0065 101.273 21.6191C101.679 21.2318 101.882 20.6895 101.882 19.9922V19.3154L100.747 19.3633C99.8447 19.3952 99.193 19.5365 98.792 19.7871C98.3955 20.0332 98.1973 20.4183 98.1973 20.9424C98.1973 21.3525 98.3203 21.6647 98.5664 21.8789C98.8171 22.0931 99.1657 22.2002 99.6123 22.2002ZM108.779 15.3711C109.112 15.3711 109.41 15.3984 109.675 15.4531L109.518 16.5059C109.208 16.4375 108.934 16.4033 108.697 16.4033C108.091 16.4033 107.572 16.6494 107.139 17.1416C106.71 17.6338 106.496 18.2467 106.496 18.9805V23H105.361V15.5078H106.298L106.428 16.8955H106.482C106.76 16.4079 107.095 16.0319 107.487 15.7676C107.879 15.5033 108.31 15.3711 108.779 15.3711ZM115.684 23L115.458 21.9336H115.403C115.03 22.403 114.656 22.722 114.282 22.8906C113.913 23.0547 113.451 23.1367 112.895 23.1367C112.152 23.1367 111.568 22.9453 111.145 22.5625C110.725 22.1797 110.516 21.6351 110.516 20.9287C110.516 19.4157 111.726 18.6227 114.146 18.5498L115.417 18.5088V18.0439C115.417 17.4561 115.289 17.0231 115.034 16.7451C114.784 16.4626 114.38 16.3213 113.824 16.3213C113.2 16.3213 112.493 16.5127 111.705 16.8955L111.356 16.0273C111.726 15.8268 112.129 15.6696 112.566 15.5557C113.008 15.4417 113.451 15.3848 113.893 15.3848C114.786 15.3848 115.447 15.583 115.875 15.9795C116.308 16.376 116.524 17.0117 116.524 17.8867V23H115.684ZM113.12 22.2002C113.826 22.2002 114.38 22.0065 114.781 21.6191C115.187 21.2318 115.39 20.6895 115.39 19.9922V19.3154L114.255 19.3633C113.353 19.3952 112.701 19.5365 112.3 19.7871C111.903 20.0332 111.705 20.4183 111.705 20.9424C111.705 21.3525 111.828 21.6647 112.074 21.8789C112.325 22.0931 112.674 22.2002 113.12 22.2002ZM125.992 23.1367C125.505 23.1367 125.058 23.0479 124.652 22.8701C124.251 22.6878 123.914 22.4098 123.641 22.0361H123.559C123.613 22.4736 123.641 22.8883 123.641 23.2803V26.3633H122.506V15.5078H123.429L123.586 16.5332H123.641C123.932 16.123 124.272 15.8268 124.659 15.6445C125.047 15.4622 125.491 15.3711 125.992 15.3711C126.986 15.3711 127.751 15.7106 128.289 16.3896C128.831 17.0687 129.103 18.0212 129.103 19.2471C129.103 20.4775 128.827 21.4346 128.275 22.1182C127.729 22.7972 126.967 23.1367 125.992 23.1367ZM125.828 16.335C125.062 16.335 124.509 16.5469 124.167 16.9707C123.825 17.3945 123.65 18.069 123.641 18.9941V19.2471C123.641 20.2998 123.816 21.054 124.167 21.5098C124.518 21.9609 125.081 22.1865 125.855 22.1865C126.503 22.1865 127.008 21.9245 127.373 21.4004C127.742 20.8763 127.927 20.154 127.927 19.2334C127.927 18.2992 127.742 17.5837 127.373 17.0869C127.008 16.5856 126.493 16.335 125.828 16.335ZM134.51 15.3711C134.842 15.3711 135.141 15.3984 135.405 15.4531L135.248 16.5059C134.938 16.4375 134.665 16.4033 134.428 16.4033C133.822 16.4033 133.302 16.6494 132.869 17.1416C132.441 17.6338 132.227 18.2467 132.227 18.9805V23H131.092V15.5078H132.028L132.158 16.8955H132.213C132.491 16.4079 132.826 16.0319 133.218 15.7676C133.61 15.5033 134.04 15.3711 134.51 15.3711ZM139.972 23.1367C138.864 23.1367 137.989 22.7995 137.347 22.125C136.709 21.4505 136.39 20.514 136.39 19.3154C136.39 18.1077 136.686 17.1484 137.278 16.4375C137.875 15.7266 138.675 15.3711 139.678 15.3711C140.617 15.3711 141.359 15.681 141.906 16.3008C142.453 16.916 142.727 17.7295 142.727 18.7412V19.459H137.565C137.588 20.3385 137.809 21.0062 138.229 21.4619C138.652 21.9176 139.247 22.1455 140.013 22.1455C140.819 22.1455 141.617 21.9769 142.405 21.6396V22.6514C142.004 22.8245 141.624 22.9476 141.264 23.0205C140.908 23.098 140.478 23.1367 139.972 23.1367ZM139.664 16.3213C139.062 16.3213 138.582 16.5173 138.222 16.9092C137.866 17.3011 137.657 17.8434 137.593 18.5361H141.51C141.51 17.8206 141.35 17.2738 141.031 16.8955C140.712 16.5127 140.257 16.3213 139.664 16.3213ZM147.833 23.1367C146.726 23.1367 145.851 22.7995 145.208 22.125C144.57 21.4505 144.251 20.514 144.251 19.3154C144.251 18.1077 144.547 17.1484 145.14 16.4375C145.737 15.7266 146.536 15.3711 147.539 15.3711C148.478 15.3711 149.221 15.681 149.768 16.3008C150.314 16.916 150.588 17.7295 150.588 18.7412V19.459H145.427C145.45 20.3385 145.671 21.0062 146.09 21.4619C146.514 21.9176 147.108 22.1455 147.874 22.1455C148.681 22.1455 149.478 21.9769 150.267 21.6396V22.6514C149.866 22.8245 149.485 22.9476 149.125 23.0205C148.77 23.098 148.339 23.1367 147.833 23.1367ZM147.525 16.3213C146.924 16.3213 146.443 16.5173 146.083 16.9092C145.728 17.3011 145.518 17.8434 145.454 18.5361H149.371C149.371 17.8206 149.212 17.2738 148.893 16.8955C148.574 16.5127 148.118 16.3213 147.525 16.3213ZM155.694 23.1367C154.587 23.1367 153.712 22.7995 153.069 22.125C152.431 21.4505 152.112 20.514 152.112 19.3154C152.112 18.1077 152.409 17.1484 153.001 16.4375C153.598 15.7266 154.398 15.3711 155.4 15.3711C156.339 15.3711 157.082 15.681 157.629 16.3008C158.176 16.916 158.449 17.7295 158.449 18.7412V19.459H153.288C153.311 20.3385 153.532 21.0062 153.951 21.4619C154.375 21.9176 154.97 22.1455 155.735 22.1455C156.542 22.1455 157.34 21.9769 158.128 21.6396V22.6514C157.727 22.8245 157.346 22.9476 156.986 23.0205C156.631 23.098 156.2 23.1367 155.694 23.1367ZM155.387 16.3213C154.785 16.3213 154.304 16.5173 153.944 16.9092C153.589 17.3011 153.379 17.8434 153.315 18.5361H157.232C157.232 17.8206 157.073 17.2738 156.754 16.8955C156.435 16.5127 155.979 16.3213 155.387 16.3213ZM165.518 23V18.1533C165.518 17.5426 165.379 17.0869 165.101 16.7861C164.823 16.4854 164.387 16.335 163.795 16.335C163.011 16.335 162.437 16.5469 162.072 16.9707C161.708 17.3945 161.525 18.0941 161.525 19.0693V23H160.391V15.5078H161.313L161.498 16.5332H161.553C161.785 16.1641 162.111 15.8792 162.53 15.6787C162.95 15.4736 163.417 15.3711 163.932 15.3711C164.834 15.3711 165.513 15.5898 165.969 16.0273C166.424 16.4603 166.652 17.1553 166.652 18.1123V23H165.518ZM171.984 23.1367C170.9 23.1367 170.059 22.804 169.462 22.1387C168.869 21.4688 168.573 20.5231 168.573 19.3018C168.573 18.0485 168.874 17.0801 169.476 16.3965C170.082 15.7129 170.943 15.3711 172.06 15.3711C172.42 15.3711 172.78 15.4098 173.14 15.4873C173.5 15.5648 173.782 15.6559 173.987 15.7607L173.639 16.7246C173.388 16.6243 173.115 16.5423 172.818 16.4785C172.522 16.4102 172.26 16.376 172.032 16.376C170.51 16.376 169.749 17.3467 169.749 19.2881C169.749 20.2087 169.934 20.915 170.303 21.4072C170.676 21.8994 171.228 22.1455 171.957 22.1455C172.581 22.1455 173.222 22.0111 173.878 21.7422V22.7471C173.377 23.0068 172.745 23.1367 171.984 23.1367ZM180.789 23V18.1533C180.789 17.5426 180.65 17.0869 180.372 16.7861C180.094 16.4854 179.659 16.335 179.066 16.335C178.278 16.335 177.701 16.5492 177.337 16.9775C176.977 17.4059 176.797 18.1077 176.797 19.083V23H175.662V12.3633H176.797V15.583C176.797 15.9704 176.779 16.2917 176.742 16.5469H176.811C177.034 16.1868 177.351 15.9043 177.761 15.6992C178.175 15.4896 178.647 15.3848 179.176 15.3848C180.092 15.3848 180.778 15.6035 181.233 16.041C181.694 16.474 181.924 17.1644 181.924 18.1123V23H180.789ZM187.427 23.1367C186.319 23.1367 185.444 22.7995 184.802 22.125C184.164 21.4505 183.845 20.514 183.845 19.3154C183.845 18.1077 184.141 17.1484 184.733 16.4375C185.33 15.7266 186.13 15.3711 187.133 15.3711C188.072 15.3711 188.814 15.681 189.361 16.3008C189.908 16.916 190.182 17.7295 190.182 18.7412V19.459H185.021C185.043 20.3385 185.264 21.0062 185.684 21.4619C186.107 21.9176 186.702 22.1455 187.468 22.1455C188.274 22.1455 189.072 21.9769 189.86 21.6396V22.6514C189.459 22.8245 189.079 22.9476 188.719 23.0205C188.363 23.098 187.933 23.1367 187.427 23.1367ZM187.119 16.3213C186.518 16.3213 186.037 16.5173 185.677 16.9092C185.321 17.3011 185.112 17.8434 185.048 18.5361H188.965C188.965 17.8206 188.805 17.2738 188.486 16.8955C188.167 16.5127 187.712 16.3213 187.119 16.3213ZM195.541 15.3711C195.874 15.3711 196.172 15.3984 196.437 15.4531L196.279 16.5059C195.969 16.4375 195.696 16.4033 195.459 16.4033C194.853 16.4033 194.333 16.6494 193.9 17.1416C193.472 17.6338 193.258 18.2467 193.258 18.9805V23H192.123V15.5078H193.06L193.189 16.8955H193.244C193.522 16.4079 193.857 16.0319 194.249 15.7676C194.641 15.5033 195.072 15.3711 195.541 15.3711ZM206.308 20.9561C206.308 21.6533 206.048 22.1911 205.528 22.5693C205.009 22.9476 204.28 23.1367 203.341 23.1367C202.347 23.1367 201.573 22.9795 201.017 22.665V21.6123C201.377 21.7946 201.762 21.9382 202.172 22.043C202.587 22.1478 202.985 22.2002 203.368 22.2002C203.961 22.2002 204.416 22.1068 204.735 21.9199C205.054 21.7285 205.214 21.4391 205.214 21.0518C205.214 20.7601 205.086 20.5117 204.831 20.3066C204.58 20.097 204.088 19.8509 203.354 19.5684C202.657 19.3086 202.16 19.083 201.864 18.8916C201.573 18.6956 201.354 18.4746 201.208 18.2285C201.067 17.9824 200.996 17.6885 200.996 17.3467C200.996 16.736 201.244 16.2552 201.741 15.9043C202.238 15.5488 202.919 15.3711 203.785 15.3711C204.592 15.3711 205.38 15.5352 206.15 15.8633L205.747 16.7861C204.995 16.4762 204.314 16.3213 203.703 16.3213C203.165 16.3213 202.76 16.4056 202.486 16.5742C202.213 16.7428 202.076 16.9753 202.076 17.2715C202.076 17.472 202.126 17.6429 202.227 17.7842C202.331 17.9255 202.498 18.0599 202.726 18.1875C202.953 18.3151 203.391 18.4997 204.038 18.7412C204.927 19.0648 205.526 19.3906 205.836 19.7188C206.15 20.0469 206.308 20.4593 206.308 20.9561ZM214.627 19.2471C214.627 20.4684 214.319 21.4232 213.704 22.1113C213.089 22.7949 212.239 23.1367 211.154 23.1367C210.484 23.1367 209.89 22.9795 209.37 22.665C208.851 22.3506 208.45 21.8994 208.167 21.3115C207.884 20.7236 207.743 20.0355 207.743 19.2471C207.743 18.0257 208.049 17.0755 208.659 16.3965C209.27 15.7129 210.118 15.3711 211.202 15.3711C212.25 15.3711 213.082 15.7197 213.697 16.417C214.317 17.1143 214.627 18.0576 214.627 19.2471ZM208.919 19.2471C208.919 20.2041 209.11 20.9333 209.493 21.4346C209.876 21.9359 210.439 22.1865 211.182 22.1865C211.924 22.1865 212.487 21.9382 212.87 21.4414C213.257 20.9401 213.451 20.2087 213.451 19.2471C213.451 18.2946 213.257 17.5723 212.87 17.0801C212.487 16.5833 211.92 16.335 211.168 16.335C210.425 16.335 209.865 16.5788 209.486 17.0664C209.108 17.554 208.919 18.2809 208.919 19.2471ZM226.173 23V18.126C226.173 17.529 226.045 17.0824 225.79 16.7861C225.535 16.4854 225.138 16.335 224.601 16.335C223.894 16.335 223.372 16.5378 223.035 16.9434C222.698 17.349 222.529 17.9733 222.529 18.8164V23H221.395V18.126C221.395 17.529 221.267 17.0824 221.012 16.7861C220.757 16.4854 220.358 16.335 219.815 16.335C219.104 16.335 218.583 16.5492 218.25 16.9775C217.922 17.4014 217.758 18.0986 217.758 19.0693V23H216.623V15.5078H217.546L217.73 16.5332H217.785C217.999 16.1686 218.3 15.8838 218.688 15.6787C219.079 15.4736 219.517 15.3711 220 15.3711C221.171 15.3711 221.937 15.7949 222.297 16.6426H222.352C222.575 16.2507 222.898 15.9408 223.322 15.7129C223.746 15.485 224.229 15.3711 224.771 15.3711C225.619 15.3711 226.253 15.5898 226.672 16.0273C227.096 16.4603 227.308 17.1553 227.308 18.1123V23H226.173ZM232.817 23.1367C231.71 23.1367 230.835 22.7995 230.192 22.125C229.554 21.4505 229.235 20.514 229.235 19.3154C229.235 18.1077 229.532 17.1484 230.124 16.4375C230.721 15.7266 231.521 15.3711 232.523 15.3711C233.462 15.3711 234.205 15.681 234.752 16.3008C235.299 16.916 235.572 17.7295 235.572 18.7412V19.459H230.411C230.434 20.3385 230.655 21.0062 231.074 21.4619C231.498 21.9176 232.093 22.1455 232.858 22.1455C233.665 22.1455 234.463 21.9769 235.251 21.6396V22.6514C234.85 22.8245 234.469 22.9476 234.109 23.0205C233.754 23.098 233.323 23.1367 232.817 23.1367ZM232.51 16.3213C231.908 16.3213 231.427 16.5173 231.067 16.9092C230.712 17.3011 230.502 17.8434 230.438 18.5361H234.355C234.355 17.8206 234.196 17.2738 233.877 16.8955C233.558 16.5127 233.102 16.3213 232.51 16.3213ZM242.641 23V18.1533C242.641 17.5426 242.502 17.0869 242.224 16.7861C241.946 16.4854 241.51 16.335 240.918 16.335C240.134 16.335 239.56 16.5469 239.195 16.9707C238.831 17.3945 238.648 18.0941 238.648 19.0693V23H237.514V15.5078H238.437L238.621 16.5332H238.676C238.908 16.1641 239.234 15.8792 239.653 15.6787C240.073 15.4736 240.54 15.3711 241.055 15.3711C241.957 15.3711 242.636 15.5898 243.092 16.0273C243.548 16.4603 243.775 17.1553 243.775 18.1123V23H242.641ZM248.533 22.2002C248.734 22.2002 248.927 22.1865 249.114 22.1592C249.301 22.1273 249.449 22.0954 249.559 22.0635V22.9316C249.436 22.9909 249.253 23.0387 249.012 23.0752C248.775 23.1162 248.561 23.1367 248.369 23.1367C246.92 23.1367 246.195 22.3734 246.195 20.8467V16.3896H245.122V15.8428L246.195 15.3711L246.674 13.7715H247.33V15.5078H249.504V16.3896H247.33V20.7988C247.33 21.25 247.437 21.5964 247.651 21.8379C247.866 22.0794 248.16 22.2002 248.533 22.2002ZM254.228 23.1367C253.12 23.1367 252.245 22.7995 251.603 22.125C250.965 21.4505 250.646 20.514 250.646 19.3154C250.646 18.1077 250.942 17.1484 251.534 16.4375C252.131 15.7266 252.931 15.3711 253.934 15.3711C254.872 15.3711 255.615 15.681 256.162 16.3008C256.709 16.916 256.982 17.7295 256.982 18.7412V19.459H251.821C251.844 20.3385 252.065 21.0062 252.484 21.4619C252.908 21.9176 253.503 22.1455 254.269 22.1455C255.075 22.1455 255.873 21.9769 256.661 21.6396V22.6514C256.26 22.8245 255.88 22.9476 255.52 23.0205C255.164 23.098 254.733 23.1367 254.228 23.1367ZM253.92 16.3213C253.318 16.3213 252.838 16.5173 252.478 16.9092C252.122 17.3011 251.912 17.8434 251.849 18.5361H255.766C255.766 17.8206 255.606 17.2738 255.287 16.8955C254.968 16.5127 254.512 16.3213 253.92 16.3213ZM265.555 23.1367C264.47 23.1367 263.629 22.804 263.032 22.1387C262.44 21.4688 262.144 20.5231 262.144 19.3018C262.144 18.0485 262.444 17.0801 263.046 16.3965C263.652 15.7129 264.513 15.3711 265.63 15.3711C265.99 15.3711 266.35 15.4098 266.71 15.4873C267.07 15.5648 267.353 15.6559 267.558 15.7607L267.209 16.7246C266.958 16.6243 266.685 16.5423 266.389 16.4785C266.092 16.4102 265.83 16.376 265.603 16.376C264.08 16.376 263.319 17.3467 263.319 19.2881C263.319 20.2087 263.504 20.915 263.873 21.4072C264.247 21.8994 264.798 22.1455 265.527 22.1455C266.152 22.1455 266.792 22.0111 267.448 21.7422V22.7471C266.947 23.0068 266.316 23.1367 265.555 23.1367ZM275.699 19.2471C275.699 20.4684 275.392 21.4232 274.776 22.1113C274.161 22.7949 273.311 23.1367 272.227 23.1367C271.557 23.1367 270.962 22.9795 270.442 22.665C269.923 22.3506 269.522 21.8994 269.239 21.3115C268.957 20.7236 268.815 20.0355 268.815 19.2471C268.815 18.0257 269.121 17.0755 269.731 16.3965C270.342 15.7129 271.19 15.3711 272.274 15.3711C273.323 15.3711 274.154 15.7197 274.77 16.417C275.389 17.1143 275.699 18.0576 275.699 19.2471ZM269.991 19.2471C269.991 20.2041 270.183 20.9333 270.565 21.4346C270.948 21.9359 271.511 22.1865 272.254 22.1865C272.997 22.1865 273.56 21.9382 273.942 21.4414C274.33 20.9401 274.523 20.2087 274.523 19.2471C274.523 18.2946 274.33 17.5723 273.942 17.0801C273.56 16.5833 272.992 16.335 272.24 16.335C271.497 16.335 270.937 16.5788 270.559 17.0664C270.18 17.554 269.991 18.2809 269.991 19.2471ZM287.245 23V18.126C287.245 17.529 287.118 17.0824 286.862 16.7861C286.607 16.4854 286.211 16.335 285.673 16.335C284.966 16.335 284.445 16.5378 284.107 16.9434C283.77 17.349 283.602 17.9733 283.602 18.8164V23H282.467V18.126C282.467 17.529 282.339 17.0824 282.084 16.7861C281.829 16.4854 281.43 16.335 280.888 16.335C280.177 16.335 279.655 16.5492 279.322 16.9775C278.994 17.4014 278.83 18.0986 278.83 19.0693V23H277.695V15.5078H278.618L278.803 16.5332H278.857C279.072 16.1686 279.372 15.8838 279.76 15.6787C280.152 15.4736 280.589 15.3711 281.072 15.3711C282.243 15.3711 283.009 15.7949 283.369 16.6426H283.424C283.647 16.2507 283.971 15.9408 284.395 15.7129C284.818 15.485 285.301 15.3711 285.844 15.3711C286.691 15.3711 287.325 15.5898 287.744 16.0273C288.168 16.4603 288.38 17.1553 288.38 18.1123V23H287.245ZM298.812 13.9014C297.713 13.9014 296.845 14.2682 296.207 15.002C295.574 15.7311 295.257 16.7314 295.257 18.0029C295.257 19.3109 295.562 20.3226 296.173 21.0381C296.788 21.749 297.663 22.1045 298.798 22.1045C299.495 22.1045 300.29 21.9792 301.184 21.7285V22.7471C300.491 23.0068 299.636 23.1367 298.62 23.1367C297.148 23.1367 296.011 22.6901 295.209 21.7969C294.411 20.9036 294.013 19.6344 294.013 17.9893C294.013 16.9593 294.204 16.057 294.587 15.2822C294.974 14.5075 295.53 13.9105 296.255 13.4912C296.984 13.0719 297.841 12.8623 298.825 12.8623C299.873 12.8623 300.789 13.0537 301.573 13.4365L301.081 14.4346C300.325 14.0791 299.568 13.9014 298.812 13.9014ZM309.701 15.918C309.701 16.9297 309.355 17.709 308.662 18.2559C307.974 18.7982 306.987 19.0693 305.702 19.0693H304.526V23H303.364V13.0059H305.955C308.452 13.0059 309.701 13.9766 309.701 15.918ZM304.526 18.0713H305.572C306.602 18.0713 307.347 17.9049 307.808 17.5723C308.268 17.2396 308.498 16.7064 308.498 15.9727C308.498 15.3118 308.282 14.8197 307.849 14.4961C307.416 14.1725 306.741 14.0107 305.825 14.0107H304.526V18.0713ZM312.962 23H311.8V13.0059H317.371V14.0381H312.962V17.6953H317.104V18.7275H312.962V23Z" fill="#253858"/>
<path d="M45.3418 24.4014H317.651V25.0986H45.3418V24.4014Z" fill="#253858"/>
<g filter="url(#filter0_d)">
<path d="M34 17H19.83L23.41 13.41L22 12L16 18L22 24L23.41 22.59L19.83 19H34V17Z" fill="#253858"/>
</g>
<defs>
<filter id="filter0_d" x="-3" y="-6" width="56" height="56" filterUnits="userSpaceOnUse" color-interpolation-filters="sRGB">
<feFlood flood-opacity="0" result="BackgroundImageFix"/>
<feColorMatrix in="SourceAlpha" type="matrix" values="0 0 0 0 0 0 0 0 0 0 0 0 0 0 0 0 0 0 127 0"/>
<feOffset dy="4"/>
<feGaussianBlur stdDeviation="8"/>
<feColorMatrix type="matrix" values="0 0 0 0 0.701961 0 0 0 0 0.729412 0 0 0 0 0.772549 0 0 0 0.3 0"/>
<feBlend mode="normal" in2="BackgroundImageFix" result="effect1_dropShadow"/>
<feBlend mode="normal" in="SourceGraphic" in2="effect1_dropShadow" result="shape"/>
</filter>
</defs>
</svg>
