<?xml version="1.0" encoding="UTF-8" standalone="no"?>
<svg
   xmlns:dc="http://purl.org/dc/elements/1.1/"
   xmlns:cc="http://creativecommons.org/ns#"
   xmlns:rdf="http://www.w3.org/1999/02/22-rdf-syntax-ns#"
   xmlns:svg="http://www.w3.org/2000/svg"
   xmlns="http://www.w3.org/2000/svg"
   xmlns:sodipodi="http://sodipodi.sourceforge.net/DTD/sodipodi-0.dtd"
   xmlns:inkscape="http://www.inkscape.org/namespaces/inkscape"
   version="1.1"
   id="svg2"
   xml:space="preserve"
   width="491.33334"
   height="491.33334"
   viewBox="0 0 491.33334 491.33334"
   sodipodi:docname="Top5-preto-RGB.eps"><metadata
     id="metadata8"><rdf:RDF><cc:Work
         rdf:about=""><dc:format>image/svg+xml</dc:format><dc:type
           rdf:resource="http://purl.org/dc/dcmitype/StillImage" /></cc:Work></rdf:RDF></metadata><defs
     id="defs6" /><sodipodi:namedview
     pagecolor="#ffffff"
     bordercolor="#666666"
     borderopacity="1"
     objecttolerance="10"
     gridtolerance="10"
     guidetolerance="10"
     inkscape:pageopacity="0"
     inkscape:pageshadow="2"
     inkscape:window-width="640"
     inkscape:window-height="480"
     id="namedview4" /><g
     id="g10"
     inkscape:groupmode="layer"
     inkscape:label="ink_ext_XXXXXX"
     transform="matrix(1.3333333,0,0,-1.3333333,0,491.33333)"><g
       id="g12"
       transform="scale(0.1)"><path
         d="M 1104.79,2296.91 H 904.336 v 39.44 h 443.644 v -39.44 h -200.46 v -535.68 h -42.73 v 535.68"
         style="fill:#040606;fill-opacity:1;fill-rule:nonzero;stroke:none"
         id="path14" /><path
         d="m 1835.14,2047.15 v 1.64 c 0,142.13 -103.52,258.8 -245.65,258.8 -142.14,0 -244.02,-115.03 -244.02,-257.16 v -1.64 c 0,-142.13 103.52,-258.8 245.66,-258.8 142.13,0 244.01,115.02 244.01,257.16 z m -534.03,0 v 1.64 c 0,156.92 115.85,297.41 290.02,297.41 174.18,0 288.38,-138.85 288.38,-295.77 v -1.64 c 0,-156.93 -115.84,-297.42 -290.02,-297.42 -174.19,0 -288.38,138.85 -288.38,295.78"
         style="fill:#040606;fill-opacity:1;fill-rule:nonzero;stroke:none"
         id="path16" /><path
         d="m 2131.91,2015.1 c 106.82,0 179.12,55.88 179.12,141.32 v 1.64 c 0,91.19 -70.66,138.85 -174.19,138.85 H 1974.17 V 2015.1 Z m -200.46,321.25 h 208.69 c 126.52,0 213.61,-64.91 213.61,-175.82 v -1.66 c 0,-120.75 -104.34,-183.21 -224.29,-183.21 h -155.29 v -214.43 h -42.72 v 575.12"
         style="fill:#040606;fill-opacity:1;fill-rule:nonzero;stroke:none"
         id="path18" /><path
         d="m 2579.8,2135.14 c -31.97,0 -52.48,-4.1 -75.43,-9.85 l 6.56,99.23 h 269.78 l -168.24,110.7 h -209.8 l -16.33,-281.93 74.23,-48.85 c 26.82,11.25 59.11,20.81 94.63,20.81 59.88,0 101.69,-28.69 101.69,-77.9 v -1.64 c 0,-50.84 -36.9,-79.54 -95.94,-79.54 -50.84,0 -93.48,22.96 -136.95,62.33 l -76.26,-91.02 c 55.75,-53.31 123,-86.11 214.85,-86.11 132.02,0 218.12,77.08 218.12,198.45 v 1.63 c 0,129.57 -89.38,183.69 -200.91,183.69"
         style="fill:#040606;fill-opacity:1;fill-rule:nonzero;stroke:none"
         id="path20" /><path
         d="m 2761.42,2589.4 -68.75,-7.82 48.06,-49.98 -13.9,-67.89 62.43,30.34 60.29,-33.93 -9.69,68.52 51.22,46.81 -68.32,12.07 -28.68,63.26 -32.66,-61.38"
         style="fill:#040606;fill-opacity:1;fill-rule:nonzero;stroke:none"
         id="path22" /><path
         d="m 862.906,2575.72 -68.953,-7.81 48.281,-49.98 -13.73,-67.89 62.234,30.34 60.305,-33.93 -9.68,68.52 51.223,46.81 -68.106,12.06 -28.894,63.27 -32.68,-61.39"
         style="fill:#040606;fill-opacity:1;fill-rule:nonzero;stroke:none"
         id="path24" /><path
         d="m 2323.82,2697.54 -101.24,-11.39 70.65,-73.17 -20.22,-99.76 91.27,44.73 88.78,-49.98 -14.11,100.6 74.88,68.51 -100.2,17.74 -42.17,92.59 -47.64,-89.87"
         style="fill:#040606;fill-opacity:1;fill-rule:nonzero;stroke:none"
         id="path26" /><path
         d="m 1272.31,2697.54 -100.98,-11.39 70.6,-73.17 -20.21,-99.76 91.53,44.73 88.31,-49.98 -14.12,100.6 75.08,68.51 -100.15,17.74 -41.97,92.59 -48.09,-89.87"
         style="fill:#040606;fill-opacity:1;fill-rule:nonzero;stroke:none"
         id="path28" /><path
         d="m 1785.17,2752.36 -130.28,-14.77 91.07,-94.25 -26.12,-128.62 118.07,57.55 113.88,-64.3 -18.33,129.71 96.76,88.34 -129.04,22.77 -54.2,119.35 -61.81,-115.78"
         style="fill:#040606;fill-opacity:1;fill-rule:nonzero;stroke:none"
         id="path30" /><path
         d="m 1468.27,1629.87 c 2.18,0.18 1.4,-2.62 3.53,-4.1 2.18,-1.48 4.58,-2.02 1.83,-4.55 -2.73,-2.52 -6.55,0.42 -6.75,2.78 -0.16,2.38 -0.83,5.7 1.39,5.87 m 6.16,1.96 c 0,0 -2.91,1.76 -2.14,2.9 0.76,1.17 1.99,0.9 3.9,-0.32 1.91,-1.25 3.33,-2.93 1.16,-2.87 -2.22,0.06 -2.92,0.29 -2.92,0.29 m -16.94,-22 c 1.32,3.75 3.16,-0.09 4.92,1.04 1.73,1.15 5.17,2.47 7.77,-0.67 2.59,-3.14 0.83,-5.7 -0.63,-5.89 -1.48,-0.21 0.86,-4.06 0.86,-4.06 0,0 -3.25,-2.74 -6.53,2.32 -3.28,5.05 -7.7,3.52 -6.39,7.26 m -3.91,-18.34 c -0.2,1.18 -1.01,7.11 -0.23,9.46 0.8,2.35 2.67,-0.07 3.09,-3.15 0.4,-3.09 0.35,-5.46 -0.18,-6.87 -0.52,-1.39 -2.45,-0.63 -2.68,0.56 m -22.08,-5.8 c 2.83,-3.38 17.52,-0.71 18.25,8.5 0.74,9.2 -6.35,7.73 -8.5,9.67 -2.17,1.95 -10,0.75 -7.27,-6.9 2.72,-7.62 4.99,-5.09 0.12,-4.96 -4.87,0.13 -5.44,-2.92 -2.6,-6.31 m 48.95,3.9 c -4.13,0.86 -5.39,3.26 -3.79,7.19 0.64,6.05 6.17,2.45 9.56,1.82 7.14,-2.06 9,-7.48 6.22,-13.36 -9.14,-3.67 -5.78,-10.11 -14.77,-14.5 -2.7,-2.99 -6.3,-3.44 -10.77,-1.36 -1.68,0.74 -1.63,0.6 -3.32,1.35 -1.28,-4.63 5.19,-5.35 2.79,-12.71 1.67,-6.05 -6.7,-6.57 -9.36,-3.54 -4.29,1.77 -6.05,-3.44 -10.61,0.02 -3.56,2.32 -1.86,7.13 3.13,8.65 1.48,2.98 7.44,1.57 4.43,8.97 -0.33,4.86 0.92,9.2 3.83,11.66 2.88,2.47 5.14,0.39 6.13,-2.29 0.99,-2.66 2.96,0.33 3.1,1.45 l 0.93,7.93 c 3.19,2.11 5.94,-0.8 5.61,-8.66 1.49,-0.55 2.24,-0.22 3.76,1.99 0.05,1.76 2.79,3.52 3.13,5.39 m 6.78,22.46 c 0,0 0.09,3.6 1.48,2.71 1.4,-0.91 3.27,-3.01 1.66,-3.3 -1.57,-0.32 -3.14,0.59 -3.14,0.59 m -0.19,-7.4 c 0.35,0.52 1.43,1.01 1.92,0.12 0.52,-0.86 -0.06,-2.39 -0.06,-2.39 0,0 -2.24,1.78 -1.86,2.27 m 1.72,-41.83 c -12.68,0.67 -4.47,4.13 -4.1,6.12 1.36,1.73 3.07,1.47 5.16,0.91 2.22,-2.8 2.42,-7.98 5.12,-9.25 1.36,0.62 1.14,2.23 0.23,4.81 -0.86,3.46 4.69,3.85 6.48,1.03 10.69,-8.69 12.97,-18.18 20.88,-31.17 13.26,-16.48 26.7,-34 39.56,-52.33 16.81,-20.6 17.57,-33.3 27.16,-41.42 5.74,-5.13 11.4,-8.76 14.47,-16.76 4.79,-3.68 9.22,-2.12 15.69,0.64 10.37,8.48 29.78,15.85 45.08,22.32 28.83,12.42 15.59,20.05 23.13,29.35 14.75,25.03 22.56,23.62 30.56,50.51 5.27,13.93 15.95,18.69 22.66,10.58 2.18,-0.62 4.15,-0.64 6,2.15 3.43,0.77 4.02,-7.27 7.15,-0.17 0.5,3.45 2.41,6.44 8.25,5.1 1.7,-3.39 -5.36,-7.97 -8.07,-12 -2.63,-7.37 -2.55,-11.55 1.37,-10.72 0.59,2.88 2.27,2.51 3.38,3.56 3.16,0.7 1.79,-5.65 6.8,0.06 3.52,5.83 1.9,9.55 5.15,12.55 8.94,-3.31 23.29,0.51 24.54,-13.74 1.74,-16.93 -1.39,-22.28 -7.89,-21.17 -5.43,1.85 -5.82,4.42 -2.25,9.55 0.63,2.28 -0.17,5.23 -5.04,4.35 -4.15,-0.48 -4.16,-4.42 -0.25,-8.12 l -0.14,-12.97 c 14.39,-2.6 22.6,9.3 31.16,10.8 17.73,2.64 36.39,-7.36 25.88,-20.62 -3.57,-4.03 -8.78,-3.38 -10.07,-8.89 -1.23,-5.24 0.92,-5.37 6.23,-3.9 3.37,2.63 2.79,8.44 8.46,10.86 l 5.34,1.24 c 1.12,4.21 1.19,6.9 5.51,6.8 2.01,0.16 1.23,-6.94 5.09,-8.52 2.38,-0.62 2.83,0.77 2.4,5.41 -0.07,7.52 8.56,7.07 13.3,3.18 5.57,-8.23 -4,-19.31 -10.88,-17.88 -5.69,0.66 -8.6,6.58 -13.49,3.56 -2.91,-2.81 -3.51,-5.77 -0.52,-8.09 2.17,-5.28 0.67,-7.66 -6.21,-5.8 -5.8,1.7 -4.68,-3.5 -1.84,-4.1 13.02,-0.26 10.14,-16.89 1.03,-14.73 -9.97,3.4 -9.07,-0.37 -8.7,-1.89 -0.97,-3.38 -0.19,-6.96 -8.81,-3.96 -5.36,0.64 -7.54,-2.57 -10.05,-5.16 -2.41,-4.24 -5.75,-5.84 -9.93,-4.79 -9.28,-4.48 -14.97,-15.22 -33.35,-17.7 l -41.25,-10.93 c -16.72,-5.02 -16.66,-20.48 -20.19,-31.49 -5.1,-16.44 -6.84,-16.11 -15.28,-33.87 -0.93,-10.42 -2.17,-17.68 -6.32,-26.25 -5.52,-28.8 9.02,-35.06 13.77,-44.21 24.44,-25.22 11.91,-33.06 27.75,-44.79 15.03,-13.47 9.66,-36.2 40.06,-41 19.48,-4.77 21.39,-6.66 33.5,-17.54 6.24,-2.92 12.6,-3.05 19,-0.42 3.16,0.5 7.47,-11.26 9.55,2.53 3.59,-3.01 13.47,-0.25 10.75,-10.08 0.08,-14.14 6.53,-5.39 9.67,-12.28 l 1.31,-7.68 h -7.49 l 2.38,-7.4 c -9.73,0.74 -14.59,-4.92 -14.4,-10.72 l -0.36,-13.58 c -11.37,4.62 -3.53,13.63 -5.86,20.81 l -6.08,-1.09 c -1.16,-2.72 -0.91,-6.44 0.76,-11.1 -6.6,-3.49 -4.62,-8.92 -9.07,-12.82 -3.51,-0.19 -6.89,4.48 -11.58,0.46 -8.36,-0.42 -8.3,2.66 -15.15,4.76 -5.19,-0.92 -1.97,-10.44 -15.59,-2.76 -4.04,-1.35 -2.78,-7.02 -12.11,-4.04 -19.01,7.92 -16.13,-0.1 -17.15,-5.91 7.95,0.48 12.22,-2.08 10.58,-10.76 -0.63,-9.89 -8.54,-9.47 -9.8,-3.27 l -5.03,4.97 c 1.34,2.93 1.57,5.2 1.77,7.46 -12.87,-3.99 -11.97,8.08 -15.97,12.96 -9.79,15.43 -25.03,16.78 -35.48,22.12 -12.3,1.94 -31.65,6.07 -50.95,11.61 -8.33,4.61 -17,7.3 -25.43,8.09 -9.8,-4.16 -11.57,-17.7 -12.89,-26.36 -0.11,-7.35 -2.12,-12.71 -6.02,-16.12 -0.69,-3.23 -0.56,-6.47 0.33,-9.73 1.41,3.89 3.57,6.25 6.48,7.05 5.38,-1.6 5.81,-8.05 -2.73,-15.49 -3.28,-0.79 -2.65,2.33 -4.76,3.23 -4.68,-17.3 -12.24,-11.33 -13.57,-35.57 -1.61,-9.86 -3.7,-13.67 -11.94,-28.48 -5.88,-13.81 -7.11,-19.44 -10.41,-35.611 -2.08,-5.738 0.51,-14.488 -16.04,-21.269 -6.37,1.269 -11.04,-0.961 -11.82,-23.899 1.28,-20.082 -14.5,-15.992 -21.8,-25.562 -9.78,8.582 -37.04,15.031 -30.62,44.07 2.17,3.301 9.68,1.832 13.88,-4.117 4.97,1.43 11.42,3.777 11.31,13.52 -9.94,4.98 -8.98,12.738 -1.7,17.097 14.91,6.86 11.29,-6.679 17.06,-10.449 2.5,11.641 5.03,12.941 3.8,18.648 -6.85,5.852 -5.24,11.282 2.04,12.062 0.4,2.11 2.4,9.62 -8.67,3.18 -11.09,-6.52 -16.39,-6.05 -20.89,-20.761 -2.6,-1.551 -17.91,-5.899 -16.86,18.521 l 0.72,27.41 c -1.59,15.77 -4.87,10.67 -7.6,16.15 l 0.98,31.39 c 2.12,6.89 16.21,11.73 -4.83,23.24 1.09,16.72 -4.86,31.3 0.66,46.76 -1.1,13.58 -8.9,9.04 -10.13,28.68 0.23,5.06 -4.54,8.38 -20.21,7.77 -21.55,-1 -40.01,2.13 -56.88,7.15 -25.87,-1.81 -21.36,-9.73 -37.96,-15.58 -17.42,-4.69 -12.93,-9.17 -24.2,-18.54 -18.13,4.09 -1.7,5.61 -2.53,8.41 1.23,6.08 -5.39,11.09 -13.62,3.55 -7.19,-4.07 -8.41,-11.21 -15.11,-12.35 -4.23,-1.66 -4.38,-11.4 -12.72,-4.98 -6.87,13.33 -8.42,-1.19 -12.66,-1.78 -2.5,4.21 -3.89,9.11 -2.85,15.48 5.57,7.21 0.21,9.27 4.95,16.95 7.35,10.56 13.2,11.54 18,23 l -0.35,7.25 c -3.83,0.66 -7.11,4.62 -11.45,1.91 -3.84,-1.15 -4.98,-16.18 -11.49,-3.43 -2.12,5.82 0.32,9.82 7.35,12.04 l 13.11,-4.61 3.72,-4.12 c 1.84,1.03 5.72,-0.9 5.45,3.14 -3.5,4.93 -19.08,12.31 -10.06,17.33 3.03,-2.5 1.24,-8.25 8.69,-7.51 3.22,2.74 8.04,0.41 12.05,0.63 -1.71,8.83 -10.27,6.08 -13.39,10.32 -14.75,6.18 -7.44,16.53 5.94,18.03 6.76,-0.14 9.05,4.62 12.41,12.4 7.99,1.87 6.91,-11.52 19.67,7.02 7.44,-3.31 1.54,-13.81 31.11,-16.31 l 13.58,-0.26 c 1.86,10.64 -13.15,4.95 -18.44,7.39 1.76,14.31 29.58,30.7 43.38,15.44 3.72,7.61 8.7,12.26 11.51,17.79 18.82,9.08 17.78,3.98 19.86,16.85 6.37,12.67 8.59,-1.01 17.66,30.45 2.35,14.01 -1.85,9.7 -1.39,17.01 l 1.72,12.12 c 14.35,0.54 10.49,16.87 8.46,19.93 -0.66,7.08 -0.71,13.83 1.64,21.13 1.18,3.65 -5.71,2.36 -10.87,5.61 -6.64,4.2 -8.25,16.02 4.1,15.73 0.26,6.83 6.74,5.83 5.21,26.25 -0.17,2.26 -7.77,-5.85 -11.26,-5.25 -2.74,0.48 -1.93,10.31 -1.3,11.18 1.81,2.52 -1.47,6.31 6.89,10.39 3.32,1.62 8.17,-4.44 10.13,-1.29 2.86,4.62 -1.77,20.01 -5.07,23.05 -4.47,6.56 -2.53,11.88 -4.16,18 l 4.76,8.74 c 1.34,7.5 3.34,14.28 9.1,14.97 5.87,0.34 8.05,-7.61 13.53,-5.14 l 1.96,6.54 c 5.37,3.47 17.85,-1.64 16.11,11.24 m -188.02,-320.15 c -2.43,3.12 -2.72,3.75 -2.02,6.47 0.69,2.74 -1.12,5.53 3.53,2.97 4.67,-2.57 8.44,-2.98 7.73,-6.02 -0.72,-3.04 -6.79,-6.54 -9.24,-3.42 m 131.66,55.8 c -3.74,1.63 -5.6,2.9 -1.72,6.16 3.86,3.27 7,2.57 8.78,-0.53 1.81,-3.11 -3.32,-7.25 -7.06,-5.63 m 165.42,9.98 c 0,0 -4.38,13.26 -7.15,15.77 -2.77,2.52 -12.76,6.15 -22.45,-2.14 -9.69,-8.3 -31.32,-18.83 -33.96,-21.41 -3.44,-3.38 -19.37,-0.91 -15.42,-22.83 3.64,-9.67 -2.95,-23.04 10.88,-29.01 15.21,-4.16 37.16,-6.3 46.56,-3.37 12.42,8.73 15.23,24.15 26.33,41.16 4.33,17.82 -3.2,14.56 -4.79,21.83 M 1491.96,918.219 c 4.48,-5.93 4.57,-14.27 -0.5,-18.629 -2.37,0.89 -11.98,-8.75 -11.76,8.25 4.12,3.449 7.51,5.121 12.26,10.379 m 118.14,188.411 c -5.45,-0.29 -6.32,0.61 -2.63,3.58 3.7,2.98 5.57,5.34 7.09,2.67 1.5,-2.7 0.98,-5.96 -4.46,-6.25 m -6.71,11.36 c 0.07,2.65 3.31,4.96 7.37,5.08 4.08,0.1 1.43,-5.74 1.43,-5.74 0,0 -8.88,-1.96 -8.8,0.66 m -99.11,428.68 c 0.04,1.73 -0.98,3.84 1.87,3.07 2.83,-0.76 5.25,-4.65 2.37,-5.27 -2.88,-0.62 -4.28,0.46 -4.24,2.2 m 6.62,-114.99 -1.91,-57.54 c 2.65,-14.66 40.78,-7.28 40.33,9.35 z m 199.34,-22.97 c -1.37,2.11 -1.97,6.63 4.21,10.64 6.18,4 3.04,6.51 5.02,0.2 1.98,-6.28 2.22,-10.45 -1.03,-11.76 -3.25,-1.3 -6.82,-1.2 -8.2,0.92 m 37.81,9.75 c -0.32,1.04 5.86,5.04 8.01,5.69 2.17,0.63 1.71,-3.52 -0.5,-5.2 -2.17,-1.66 -7.19,-1.53 -7.51,-0.49 m 18.83,8.87 c 0,0 1.17,3.78 2.65,5.83 1.49,2.05 2.27,4.43 6.5,1.91 4.22,-2.56 0.83,-8.36 -1.66,-8.64 -2.51,-0.28 -7.49,0.9 -7.49,0.9 m 33.26,13 c -0.32,2.08 -1.87,10.81 12.46,11.45 14.32,0.66 1.13,-11.47 1.13,-11.47 0,0 -13.29,-2.08 -13.59,0.02 m -15.17,-5.5 c -1.39,1.41 -1.65,5.94 1.93,5.84 3.59,-0.09 6.5,1.56 6.4,-1.9 -0.09,-3.46 -6.93,-5.38 -8.33,-3.94 m -31.28,48.33 c 0,0 -0.95,4.2 1.54,3.79 2.48,-0.41 5.95,-4.67 2.72,-5.63 -3.24,-0.94 -4.26,1.84 -4.26,1.84 m -21.3,19.32 c -0.58,5.2 8.6,-0.23 8.45,-5.79 -0.14,-5.54 -7.87,0.56 -8.45,5.79 m 4.83,7.14 2.66,5.13 c 0,0 1.41,-1.43 0.94,-4.53 -0.42,-3.11 -2.92,-2.36 -3.6,-0.6 m 25.43,-66.92 c 16.94,5.1 17.97,4.03 29.66,13.09 11.68,9.06 22.74,7.03 22.98,3.2 0.26,-3.81 -11.19,-3.51 -17.7,-6.81 -6.55,-3.31 -9.65,0.61 -20.63,-8.82 -12.82,-11.45 -31.27,-5.77 -14.31,-0.66 m -239.01,-274.6 c -3.29,4.47 -1.85,5 3.82,4.85 5.67,-0.15 7.62,-1.58 7.62,-1.58 0,0 -8.16,-7.76 -11.44,-3.27 m 16.44,-1.83 c 0.04,1.94 -0.23,2.48 2.6,2.41 2.85,-0.08 4.15,-3.67 2.15,-4.73 -2.01,-1.03 -4.81,0.41 -4.75,2.32 m -12.76,-41.76 c -1.61,3.87 -2.64,18.23 -3.16,20.18 -0.52,1.92 10.55,1.91 10.35,-5.51 -0.2,-7.44 -5.6,-18.58 -7.19,-14.67 m -2.48,34.75 c 4.82,1.01 13.83,-1.65 15.02,-0.95 1.19,0.68 -0.51,-8.25 -4.23,-9.26 -3.73,-0.99 -6.49,2.11 -9.03,2.18 -4.81,0.12 -6.58,7.02 -1.76,8.03 m 264.7,-65.95 c 0,0 1.11,4.12 2.74,3.77 1.65,-0.39 3.84,-3.95 0.89,-4.18 -2.99,-0.25 -3.63,0.41 -3.63,0.41 m 13.08,-2.58 c -1.61,0.68 -1.23,3.22 2.41,2.82 3.59,-0.43 -0.75,-3.51 -2.41,-2.82"
         style="fill:#040606;fill-opacity:1;fill-rule:nonzero;stroke:none"
         id="path32" /><path
         d="m 1879.52,1245.53 h -58.59 v 39.07 h 159.57 v -39.07 h -58.61 v -153.51 h -42.37 v 153.51"
         style="fill:#040606;fill-opacity:1;fill-rule:nonzero;stroke:none"
         id="path34" /><path
         d="m 2129.08,1187.76 v 0.55 c 0,33.01 -24.21,60.52 -58.32,60.52 -34.11,0 -57.78,-26.96 -57.78,-59.97 v -0.55 c 0,-33.02 24.21,-60.53 58.33,-60.53 34.11,0 57.77,26.96 57.77,59.98 z m -160.4,0 v 0.55 c 0,54.75 43.2,99.59 102.63,99.59 59.42,0 102.07,-44.29 102.07,-99.04 v -0.55 c 0,-54.76 -43.2,-99.59 -102.62,-99.59 -59.42,0 -102.08,44.29 -102.08,99.04"
         style="fill:#040606;fill-opacity:1;fill-rule:nonzero;stroke:none"
         id="path36" /><path
         d="m 2259.51,1187.49 c 21.18,0 33.56,12.65 33.56,29.16 v 0.55 c 0,18.98 -13.2,29.16 -34.38,29.16 h -32.74 v -58.87 z m -75.94,97.11 h 78.69 c 45.95,0 73.73,-27.24 73.73,-66.58 v -0.55 c 0,-44.57 -34.65,-67.68 -77.85,-67.68 h -32.19 v -57.77 h -42.38 v 192.58"
         style="fill:#040606;fill-opacity:1;fill-rule:nonzero;stroke:none"
         id="path38" /><path
         d="m 1691.03,993.539 v 0.391 c 0,23.5 -17.23,43.08 -41.51,43.08 -24.29,0 -41.12,-19.2 -41.12,-42.69 v -0.39 c 0,-23.5 17.22,-43.09 41.51,-43.09 24.28,0 41.12,19.191 41.12,42.699 z m -114.17,0 v 0.391 c 0,38.97 30.75,70.89 73.05,70.89 42.3,0 72.65,-31.53 72.65,-70.5 v -0.39 c 0,-38.969 -30.75,-70.899 -73.04,-70.899 -42.31,0 -72.66,31.528 -72.66,70.508"
         style="fill:#040606;fill-opacity:1;fill-rule:nonzero;stroke:none"
         id="path40" /><path
         d="m 1729.82,1062.47 h 104.39 v -27.42 h -74.22 v -29.18 h 65.41 v -27.409 h -65.41 v -53.082 h -30.17 v 137.091"
         style="fill:#040606;fill-opacity:1;fill-rule:nonzero;stroke:none"
         id="path42" /><path
         d="m 1877.89,1062.47 h 32.51 l 36.03,-57.97 36.04,57.97 h 32.51 V 925.379 h -29.97 v 89.501 l -38.58,-58.548 h -0.78 l -38.19,57.958 v -88.911 h -29.57 v 137.091"
         style="fill:#040606;fill-opacity:1;fill-rule:nonzero;stroke:none"
         id="path44" /><path
         d="m 2029.69,1062.47 h 30.15 V 925.379 h -30.15 v 137.091"
         style="fill:#040606;fill-opacity:1;fill-rule:nonzero;stroke:none"
         id="path46" /><path
         d="m 2074.53,1062.47 h 27.81 l 64.24,-84.4 v 84.4 h 29.77 V 925.379 h -25.66 l -66.39,87.151 v -87.151 h -29.77 v 137.091"
         style="fill:#040606;fill-opacity:1;fill-rule:nonzero;stroke:none"
         id="path48" /><path
         d="m 2239.83,1035.25 v -82.641 h 23.31 c 24.68,0 41.32,16.641 41.32,40.93 v 0.391 c 0,24.28 -16.64,41.32 -41.32,41.32 z m -30.15,27.22 h 53.46 c 43.08,0 72.85,-29.57 72.85,-68.15 v -0.39 c 0,-38.578 -29.77,-68.551 -72.85,-68.551 h -53.46 v 137.091"
         style="fill:#040606;fill-opacity:1;fill-rule:nonzero;stroke:none"
         id="path50" /><path
         d="m 2314.81,899.25 v -31.449 h -30.58 v 31.449 h -21.19 v -74.758 l -17.91,25.059 c 6,4.48 9.19,11.871 9.19,22.59 0,18.898 -12.22,27.078 -29.91,27.078 h -38.92 l 12.27,-17.27 18.9,0.02 c 8.3,0 15.4,-0.11 15.4,-10.481 0,-8.75 -5.69,-10.019 -12.28,-10.199 H 2213 l -0.02,-0.008 -21.33,0.028 v -44.418 h 21.4 v 8.769 H 2213 v 35.621 l 31.71,-44.39 39.52,0.007 v 34.262 h 30.58 v -34.23 h 21.18 v 68.379 l -21.18,13.941"
         style="fill:#040606;fill-opacity:1;fill-rule:nonzero;stroke:none"
         id="path52" /><path
         d="m 2027.78,895.609 v -75.07 h 22.95 c 23.64,0 39.53,16.481 39.53,37.301 v 0.238 c 0,20.82 -15.89,37.531 -39.66,37.531 z m -3.99,3.641 h 26.81 c 25.89,0 43.77,-17.879 43.77,-41.059 v -0.23 c 0,-23.18 -17.88,-41.07 -43.77,-41.07 h -26.81 v 82.359"
         style="fill:#040606;fill-opacity:1;fill-rule:nonzero;stroke:none"
         id="path54" /><path
         d="m 2110.52,899.25 h 58 v -3.641 h -54 v -35.418 h 48.83 v -3.652 h -48.83 v -36 h 54.59 v -3.648 h -58.59 v 82.359"
         style="fill:#040606;fill-opacity:1;fill-rule:nonzero;stroke:none"
         id="path56" /><path
         d="m 1823.35,1330.32 42.59,34.91 c 15.9,13.16 22.11,20.1 22.11,30.71 0,10.78 -7.12,16.63 -17.17,16.63 -9.88,0 -16.63,-5.48 -26.15,-17.18 l -19.73,15.9 c 12.61,17.18 24.85,26.5 47.7,26.5 26.51,0 44.06,-15.53 44.06,-39.48 v -0.36 c 0,-21.39 -10.97,-31.99 -33.64,-49.54 l -20.84,-16.08 h 55.76 v -24.31 h -94.69 v 22.3"
         style="fill:#040606;fill-opacity:1;fill-rule:nonzero;stroke:none"
         id="path58" /><path
         d="m 1920.58,1327.94 19.38,18.46 c 8.77,-9.87 17.91,-15.35 30.89,-15.35 10.6,0 18.09,6.03 18.09,15.53 v 0.37 c 0,10.42 -9.32,16.27 -25.04,16.27 h -11.69 l -4.39,17.91 30.52,30.71 h -50.27 v 24.13 h 86.46 v -21.21 l -32.34,-30.89 c 17.36,-2.92 34.35,-12.06 34.35,-35.82 v -0.37 c 0,-24.12 -17.55,-41.86 -46.05,-41.86 -23.04,0 -38.94,9.14 -49.91,22.12"
         style="fill:#040606;fill-opacity:1;fill-rule:nonzero;stroke:none"
         id="path60" /><path
         d="m 2059.16,1397.12 v 0.21 c 0,8.42 -6.08,15.78 -15.03,15.78 -9.27,0 -14.81,-7.14 -14.81,-15.57 v -0.21 c 0,-8.41 6.08,-15.77 15.02,-15.77 9.28,0 14.82,7.14 14.82,15.56 z m -45.82,0 v 0.21 c 0,16.42 13.21,29.74 31,29.74 17.7,0 30.8,-13.11 30.8,-29.53 v -0.21 c 0,-16.41 -13.21,-29.73 -31.01,-29.73 -17.69,0 -30.79,13.11 -30.79,29.52"
         style="fill:#040606;fill-opacity:1;fill-rule:nonzero;stroke:none"
         id="path62" /></g></g></svg>
