<?xml version="1.0" encoding="UTF-8" standalone="no"?>
<svg
   xmlns:dc="http://purl.org/dc/elements/1.1/"
   xmlns:cc="http://creativecommons.org/ns#"
   xmlns:rdf="http://www.w3.org/1999/02/22-rdf-syntax-ns#"
   xmlns:svg="http://www.w3.org/2000/svg"
   xmlns="http://www.w3.org/2000/svg"
   xmlns:sodipodi="http://sodipodi.sourceforge.net/DTD/sodipodi-0.dtd"
   xmlns:inkscape="http://www.inkscape.org/namespaces/inkscape"
   version="1.1"
   id="svg2"
   xml:space="preserve"
   width="491.33334"
   height="491.33334"
   viewBox="0 0 491.33334 491.33334"
   sodipodi:docname="TopMindRH-RGB_Cor.eps"><metadata
     id="metadata8"><rdf:RDF><cc:Work
         rdf:about=""><dc:format>image/svg+xml</dc:format><dc:type
           rdf:resource="http://purl.org/dc/dcmitype/StillImage" /></cc:Work></rdf:RDF></metadata><defs
     id="defs6" /><sodipodi:namedview
     pagecolor="#ffffff"
     bordercolor="#666666"
     borderopacity="1"
     objecttolerance="10"
     gridtolerance="10"
     guidetolerance="10"
     inkscape:pageopacity="0"
     inkscape:pageshadow="2"
     inkscape:window-width="640"
     inkscape:window-height="480"
     id="namedview4" /><g
     id="g10"
     inkscape:groupmode="layer"
     inkscape:label="ink_ext_XXXXXX"
     transform="matrix(1.3333333,0,0,-1.3333333,0,491.33333)"><g
       id="g12"
       transform="scale(0.1)"><path
         d="m 1199.18,2809.69 c 4.29,0.35 2.75,-5.16 6.95,-8.08 4.28,-2.9 9.01,-3.96 3.59,-8.93 -5.37,-4.96 -12.89,0.82 -13.27,5.46 -0.32,4.67 -1.62,11.21 2.73,11.55 m 12.11,3.86 c 0,0 -5.71,3.45 -4.19,5.68 1.49,2.32 3.89,1.79 7.66,-0.61 3.77,-2.47 6.55,-5.77 2.27,-5.65 -4.34,0.12 -5.74,0.58 -5.74,0.58 m -33.32,-43.28 c 2.6,7.37 6.24,-0.17 9.68,2.05 3.4,2.26 10.16,4.86 15.3,-1.31 5.08,-6.17 1.62,-11.21 -1.25,-11.59 -2.9,-0.41 1.7,-7.97 1.7,-7.97 0,0 -6.4,-5.4 -12.85,4.56 -6.44,9.92 -15.15,6.91 -12.58,14.26 m -7.67,-36.06 c -0.41,2.33 -2,13.99 -0.45,18.61 1.56,4.62 5.26,-0.13 6.08,-6.2 0.79,-6.07 0.67,-10.72 -0.36,-13.5 -1.04,-2.75 -4.84,-1.25 -5.27,1.09 m -43.42,-11.4 c 5.57,-6.65 34.45,-1.4 35.9,16.71 1.43,18.11 -12.5,15.21 -16.74,19.03 -4.25,3.83 -19.66,1.47 -14.29,-13.57 5.34,-15 9.82,-10.02 0.23,-9.77 -9.57,0.26 -10.68,-5.74 -5.1,-12.4 m 96.26,7.67 c -8.14,1.7 -10.6,6.41 -7.46,14.13 1.27,11.91 12.13,4.82 18.79,3.59 14.04,-4.05 17.71,-14.7 12.24,-26.27 -17.97,-7.23 -11.36,-19.89 -29.03,-28.53 -5.32,-5.87 -12.39,-6.77 -21.19,-2.67 -3.29,1.46 -3.2,1.18 -6.53,2.67 -2.51,-9.11 10.2,-10.52 5.48,-25 3.29,-11.9 -13.18,-12.94 -18.39,-6.96 -8.43,3.46 -11.91,-6.78 -20.86,0.04 -7.02,4.56 -3.68,14.01 6.15,16.99 2.91,5.88 14.62,3.11 8.7,17.66 -0.64,9.55 1.82,18.09 7.54,22.93 5.66,4.85 10.09,0.76 12.06,-4.51 1.93,-5.23 5.81,0.65 6.09,2.85 l 1.82,15.6 c 6.28,4.15 11.69,-1.57 11.05,-17.03 2.9,-1.09 4.39,-0.43 7.38,3.92 0.09,3.46 5.48,6.9 6.16,10.59 m 13.33,44.16 c 0,0 0.18,7.08 2.91,5.32 2.74,-1.78 6.43,-5.91 3.26,-6.47 -3.1,-0.64 -6.17,1.15 -6.17,1.15 m -0.39,-14.54 c 0.69,1.01 2.83,1.97 3.8,0.22 1.02,-1.69 -0.12,-4.69 -0.12,-4.69 0,0 -4.42,3.5 -3.68,4.47 m 3.38,-82.26 c -24.91,1.31 -8.78,8.12 -8.05,12.02 2.69,3.42 6.05,2.89 10.15,1.81 4.36,-5.52 4.76,-15.71 10.06,-18.21 2.68,1.23 2.25,4.4 0.48,9.48 -1.7,6.79 9.21,7.56 12.72,2.01 21.03,-17.09 25.49,-35.75 41.06,-61.28 26.08,-32.41 52.5,-66.88 77.78,-102.92 33.08,-40.49 34.55,-65.47 53.42,-81.45 11.29,-10.08 22.42,-17.21 28.45,-32.95 9.43,-7.23 18.13,-4.17 30.87,1.25 20.39,16.69 58.54,31.18 88.64,43.9 56.69,24.42 30.64,39.43 45.5,57.72 28.99,49.21 44.35,46.44 60.08,99.33 10.35,27.39 31.35,36.73 44.56,20.79 4.27,-1.2 8.14,-1.25 11.79,4.23 6.75,1.52 7.9,-14.29 14.08,-0.33 0.98,6.79 4.73,12.66 16.22,10.04 3.33,-6.69 -10.55,-15.7 -15.89,-23.61 -5.16,-14.5 -5.01,-22.73 2.69,-21.09 1.18,5.67 4.47,4.95 6.66,7 6.21,1.39 3.51,-11.11 13.37,0.13 6.92,11.47 3.72,18.77 10.13,24.68 17.59,-6.52 45.79,1 48.26,-27.02 3.41,-33.29 -2.73,-43.82 -15.53,-41.65 -10.67,3.65 -11.45,8.71 -4.42,18.79 1.23,4.5 -0.34,10.28 -9.89,8.56 -8.18,-0.94 -8.19,-8.68 -0.5,-15.98 l -0.28,-25.49 c 28.28,-5.11 44.45,18.29 61.27,21.23 34.86,5.2 71.55,-14.47 50.9,-40.53 -7.04,-7.93 -17.27,-6.65 -19.8,-17.49 -2.43,-10.31 1.81,-10.57 12.25,-7.68 6.63,5.18 5.47,16.6 16.64,21.37 l 10.5,2.42 c 2.19,8.29 2.32,13.58 10.83,13.38 3.96,0.31 2.41,-13.64 10,-16.75 4.69,-1.23 5.57,1.51 4.73,10.64 -0.13,14.78 16.82,13.89 26.14,6.25 10.96,-16.19 -7.86,-37.97 -21.38,-35.16 -11.2,1.3 -16.91,12.94 -26.55,7 -5.72,-5.53 -6.89,-11.35 -1.01,-15.91 4.27,-10.39 1.33,-15.06 -12.2,-11.41 -11.42,3.35 -9.22,-6.87 -3.63,-8.06 25.6,-0.52 19.94,-33.22 2.02,-28.96 -19.6,6.68 -17.83,-0.73 -17.11,-3.72 -1.89,-6.66 -0.37,-13.68 -17.32,-7.79 -10.54,1.27 -14.82,-5.05 -19.77,-10.15 -4.73,-8.33 -11.3,-11.48 -19.52,-9.41 -18.24,-8.81 -29.43,-29.93 -65.57,-34.8 l -81.12,-21.51 c -32.89,-9.87 -32.76,-40.27 -39.69,-61.91 -10.05,-32.34 -13.46,-31.68 -30.06,-66.61 -1.83,-20.49 -4.27,-34.77 -12.43,-51.62 -10.85,-56.63 17.74,-68.95 27.09,-86.93 48.06,-49.6 23.4,-65 54.54,-88.08 29.57,-26.49 19.03,-71.18 78.79,-80.62 38.3,-9.38 42.06,-13.09 65.89,-34.48 12.26,-5.77 24.75,-6.02 37.35,-0.85 6.22,0.99 14.69,-22.13 18.78,4.98 7.06,-5.92 26.5,-0.5 21.13,-19.82 0.17,-27.8 12.84,-10.6 19.03,-24.15 l 2.58,-15.09 h -14.73 l 4.66,-14.56 c -19.13,1.47 -28.69,-9.69 -28.3,-21.09 l -0.7,-26.7 c -22.37,9.1 -6.95,26.8 -11.54,40.92 l -11.97,-2.13 c -2.26,-5.36 -1.78,-12.66 1.51,-21.84 -12.97,-6.85 -9.08,-17.53 -17.84,-25.19 -6.89,-0.38 -13.53,8.81 -22.76,0.89 -16.43,-0.82 -16.32,5.22 -29.81,9.36 -10.18,-1.81 -3.85,-20.53 -30.65,-5.42 -7.95,-2.65 -5.46,-13.81 -23.8,-7.94 -37.39,15.58 -31.73,-0.2 -33.73,-11.63 15.64,0.95 24.02,-4.09 20.81,-21.15 -1.26,-19.45 -16.8,-18.63 -19.29,-6.43 l -9.88,9.76 c 2.64,5.77 3.08,10.23 3.5,14.68 -25.32,-7.85 -23.56,15.88 -31.43,25.49 -19.24,30.34 -49.21,32.98 -69.76,43.48 -24.18,3.81 -62.25,11.93 -100.18,22.83 -16.39,9.08 -33.44,14.36 -50.03,15.91 -19.26,-8.17 -22.73,-34.79 -25.33,-51.84 -0.22,-14.44 -4.16,-24.98 -11.83,-31.68 -1.37,-6.35 -1.12,-12.73 0.62,-19.14 2.8,7.65 7.04,12.28 12.77,13.87 10.57,-3.16 11.43,-15.83 -5.38,-30.48 -6.45,-1.55 -5.22,4.6 -9.36,6.37 -9.19,-34.02 -24.09,-22.29 -26.7,-69.95 -3.15,-19.4 -7.27,-26.89 -23.46,-56.02 -11.56,-27.14 -13.98,-38.22 -20.47,-70.01 -4.1,-11.3 1,-28.49 -31.55,-41.83 -12.52,2.49 -21.7,-1.88 -23.24,-46.99 2.51,-39.5 -28.51,-31.46 -42.87,-50.26 -19.22,16.86 -72.83,29.54 -60.22,86.66 4.28,6.47 19.05,3.58 27.3,-8.11 9.77,2.82 22.47,7.44 22.23,26.58 -19.52,9.8 -17.64,25.06 -3.34,33.64 29.33,13.49 22.21,-13.14 33.56,-20.56 4.91,22.89 9.87,25.45 7.46,36.68 -13.46,11.5 -10.29,22.18 4.02,23.7 0.78,4.16 4.73,18.93 -17.03,6.25 -21.82,-12.81 -32.25,-11.88 -41.11,-40.81 -5.11,-3.04 -35.21,-11.6 -33.14,36.42 l 1.43,53.89 c -3.14,31.03 -9.59,20.99 -14.97,31.78 l 1.94,61.71 c 4.18,13.54 31.88,23.07 -9.49,45.72 2.14,32.86 -9.55,61.53 1.3,91.93 -2.17,26.71 -17.52,17.79 -19.93,56.4 0.44,9.96 -8.91,16.47 -39.73,15.28 -42.39,-1.97 -78.69,4.19 -111.87,14.05 -50.864,-3.54 -41.997,-19.13 -74.641,-30.62 -34.266,-9.22 -25.43,-18.04 -47.594,-36.46 -35.637,8.03 -3.336,11.03 -4.965,16.53 2.406,11.96 -10.605,21.8 -26.789,6.99 -14.129,-8 -16.531,-22.05 -29.723,-24.29 -8.296,-3.26 -8.597,-22.42 -25.003,-9.79 -13.52,26.22 -16.563,-2.35 -24.887,-3.52 -4.926,8.29 -7.653,17.93 -5.621,30.46 10.976,14.18 0.418,18.23 9.73,33.33 14.481,20.77 25.969,22.68 35.418,45.23 l -0.695,14.26 c -7.539,1.29 -13.981,9.07 -22.516,3.74 -7.547,-2.26 -9.793,-31.82 -22.594,-6.73 -4.164,11.44 0.618,19.31 14.438,23.67 l 25.797,-9.05 7.328,-8.12 c 3.605,2.04 11.234,-1.76 10.703,6.18 -6.891,9.69 -37.519,24.2 -19.769,34.08 5.945,-4.92 2.433,-16.23 17.062,-14.77 6.344,5.39 15.82,0.8 23.707,1.23 -3.375,17.37 -20.191,11.96 -26.332,20.31 -28.996,12.14 -14.641,32.49 11.699,35.44 13.289,-0.26 17.774,9.09 24.391,24.4 15.707,3.67 13.586,-22.67 38.684,13.8 14.609,-6.51 3.023,-27.17 61.16,-32.08 l 26.707,-0.51 c 3.655,20.92 -25.852,9.73 -36.246,14.54 3.457,28.13 58.141,60.37 85.301,30.36 7.33,14.97 17.09,24.11 22.62,34.99 37.01,17.83 34.98,7.82 39.06,33.13 12.53,24.89 16.91,-1.99 34.71,59.88 4.64,27.53 -3.61,19.07 -2.71,33.45 l 3.38,23.82 c 28.23,1.06 20.62,33.19 16.62,39.19 -1.29,13.91 -1.37,27.2 3.23,41.56 2.33,7.16 -11.21,4.63 -21.37,11.03 -13.07,8.26 -16.24,31.51 8.07,30.93 0.51,13.44 13.25,11.46 10.24,51.62 -0.33,4.44 -15.28,-11.51 -22.12,-10.33 -5.4,0.94 -3.82,20.27 -2.59,21.99 3.57,4.96 -2.87,12.41 13.57,20.44 6.53,3.17 16.06,-8.74 19.9,-2.56 5.64,9.1 -3.48,39.36 -9.96,45.35 -8.79,12.9 -4.97,23.36 -8.18,35.39 l 9.37,17.18 c 2.63,14.76 6.56,28.09 17.88,29.44 11.53,0.67 15.85,-14.96 26.62,-10.11 l 3.86,12.86 c 10.54,6.83 35.07,-3.22 31.65,22.11 M 869.746,2048.27 c -4.793,6.15 -5.363,7.38 -3.98,12.74 1.371,5.37 -2.203,10.87 6.961,5.83 9.179,-5.06 16.582,-5.86 15.195,-11.82 -1.426,-5.99 -13.359,-12.88 -18.176,-6.75 m 258.904,109.74 c -7.35,3.21 -11.01,5.71 -3.39,12.11 7.6,6.42 13.77,5.06 17.26,-1.04 3.57,-6.12 -6.52,-14.26 -13.87,-11.07 m 325.28,19.63 c 0,0 -8.61,26.06 -14.06,31.01 -5.44,4.95 -25.1,12.08 -44.13,-4.22 -19.05,-16.33 -61.59,-37.02 -66.8,-42.09 -6.76,-6.67 -38.08,-1.8 -30.33,-44.91 7.16,-19 -5.8,-45.29 21.42,-57.04 29.9,-8.17 73.08,-12.4 91.55,-6.61 24.41,17.15 29.96,47.46 51.77,80.93 8.53,35.04 -6.29,28.63 -9.42,42.93 m -208.15,-767.38 c 8.81,-11.67 8.99,-28.05 -0.98,-36.63 -4.68,1.75 -23.57,-17.22 -23.15,16.22 8.1,6.8 14.78,10.07 24.13,20.41 m 232.3,370.51 c -10.71,-0.58 -12.43,1.18 -5.17,7.02 7.27,5.87 10.94,10.53 13.95,5.26 2.96,-5.3 1.91,-11.7 -8.78,-12.28 m -13.2,22.35 c 0.14,5.19 6.51,9.75 14.51,9.97 8.01,0.21 2.78,-11.28 2.78,-11.28 0,0 -17.44,-3.86 -17.29,1.31 m -194.89,842.95 c 0.09,3.41 -1.93,7.56 3.68,6.04 5.58,-1.49 10.33,-9.15 4.68,-10.36 -5.68,-1.22 -8.45,0.9 -8.36,4.32 m 13.02,-226.11 -3.74,-113.15 c 5.2,-28.82 80.18,-14.31 79.3,18.38 z M 1675,2374.78 c -2.7,4.16 -3.87,13.04 8.28,20.93 12.16,7.86 5.97,12.79 9.87,0.38 3.9,-12.33 4.37,-20.54 -2.03,-23.11 -6.37,-2.54 -13.41,-2.36 -16.12,1.8 m 74.36,19.18 c -0.62,2.05 11.53,9.91 15.74,11.18 4.27,1.25 3.37,-6.93 -0.96,-10.22 -4.3,-3.27 -14.16,-3.01 -14.78,-0.96 m 37.03,17.44 c 0,0 2.3,7.43 5.2,11.46 2.95,4.03 4.47,8.73 12.79,3.77 8.29,-5.04 1.64,-16.44 -3.26,-17 -4.93,-0.55 -14.73,1.77 -14.73,1.77 m 65.41,25.56 c -0.64,4.11 -3.69,21.26 24.48,22.52 28.17,1.3 2.23,-22.55 2.23,-22.55 0,0 -26.14,-4.09 -26.71,0.03 m -29.84,-10.8 c -2.74,2.77 -3.25,11.67 3.8,11.48 7.04,-0.18 12.77,3.06 12.58,-3.75 -0.18,-6.79 -13.62,-10.56 -16.38,-7.73 m -61.51,95.04 c 0,0 -1.86,8.25 3.02,7.45 4.89,-0.82 11.7,-9.19 5.35,-11.08 -6.37,-1.86 -8.37,3.63 -8.37,3.63 m -41.89,37.97 c -1.13,10.24 16.91,-0.45 16.62,-11.39 -0.28,-10.87 -15.49,1.12 -16.62,11.39 m 9.51,14.04 5.22,10.1 c 0,0 2.76,-2.81 1.84,-8.91 -0.82,-6.12 -5.75,-4.63 -7.06,-1.19 m 50,-131.58 c 33.3,10.02 35.33,7.92 58.32,25.74 22.97,17.81 44.71,13.81 45.18,6.29 0.53,-7.5 -22,-6.9 -34.81,-13.4 -12.86,-6.5 -18.97,1.21 -40.55,-17.33 -25.21,-22.52 -61.5,-11.34 -28.14,-1.3 m -470,-539.98 c -6.48,8.8 -3.64,9.82 7.51,9.53 11.16,-0.29 14.97,-3.11 14.97,-3.11 0,0 -16.03,-15.26 -22.48,-6.42 m 32.32,-3.6 c 0.09,3.81 -0.45,4.88 5.11,4.72 5.61,-0.14 8.17,-7.21 4.23,-9.29 -3.94,-2.03 -9.45,0.81 -9.34,4.57 m -25.09,-82.13 c -3.16,7.62 -5.2,35.86 -6.21,39.69 -1.02,3.77 20.75,3.76 20.36,-10.84 -0.39,-14.62 -11.02,-36.53 -14.15,-28.85 m -4.87,68.33 c 9.46,2 27.18,-3.23 29.53,-1.87 2.35,1.36 -0.99,-16.21 -8.31,-18.2 -7.33,-1.94 -12.77,4.15 -17.77,4.28 -9.47,0.25 -12.94,13.81 -3.45,15.79 m 520.5,-129.68 c 0,0 2.2,8.1 5.41,7.41 3.25,-0.75 7.55,-7.76 1.73,-8.22 -5.87,-0.48 -7.14,0.81 -7.14,0.81 m 25.74,-5.07 c -3.17,1.35 -2.42,6.32 4.72,5.53 7.08,-0.83 -1.47,-6.88 -4.72,-5.53"
         style="fill:#f25d1e;fill-opacity:1;fill-rule:nonzero;stroke:none"
         id="path14" /><path
         d="m 2007.89,2053.91 h -115.24 v 76.83 h 313.79 v -76.83 H 2091.2 v -301.88 h -83.31 v 301.88"
         style="fill:#505256;fill-opacity:1;fill-rule:nonzero;stroke:none"
         id="path16" /><path
         d="m 2498.63,1940.3 v 1.08 c 0,64.92 -47.61,119.02 -114.69,119.02 -67.08,0 -113.62,-53.02 -113.62,-117.94 v -1.08 c 0,-64.92 47.61,-119.02 114.7,-119.02 67.08,0 113.61,53.01 113.61,117.94 z m -315.42,0 v 1.08 c 0,107.66 84.96,195.85 201.81,195.85 116.86,0 200.71,-87.11 200.71,-194.77 v -1.08 c 0,-107.67 -84.94,-195.84 -201.79,-195.84 -116.86,0 -200.73,87.1 -200.73,194.76"
         style="fill:#505256;fill-opacity:1;fill-rule:nonzero;stroke:none"
         id="path18" /><path
         d="m 2755.11,1939.76 c 41.65,0 66,24.89 66,57.34 v 1.09 c 0,37.32 -25.96,57.34 -67.61,57.34 h -64.4 v -115.77 z m -149.32,190.98 h 154.73 c 90.36,0 144.99,-53.57 144.99,-130.93 v -1.08 c 0,-87.65 -68.16,-133.1 -153.1,-133.1 h -63.31 v -113.6 h -83.31 v 378.71"
         style="fill:#505256;fill-opacity:1;fill-rule:nonzero;stroke:none"
         id="path20" /><path
         d="m 1637.24,1558.37 v 0.77 c 0,46.22 -33.9,84.72 -81.65,84.72 -47.75,0 -80.86,-37.75 -80.86,-83.95 v -0.77 c 0,-46.21 33.89,-84.72 81.63,-84.72 47.75,0 80.88,37.73 80.88,83.95 z m -224.51,0 v 0.77 c 0,76.64 60.46,139.41 143.63,139.41 83.18,0 142.87,-62 142.87,-138.64 v -0.77 c 0,-76.63 -60.46,-139.41 -143.64,-139.41 -83.18,0 -142.86,62 -142.86,138.64"
         style="fill:#505256;fill-opacity:1;fill-rule:nonzero;stroke:none"
         id="path22" /><path
         d="m 1713.52,1693.93 h 205.26 V 1640 h -145.96 v -57.37 h 128.63 v -53.91 h -128.63 v -104.36 h -59.3 v 269.57"
         style="fill:#505256;fill-opacity:1;fill-rule:nonzero;stroke:none"
         id="path24" /><path
         d="m 2004.67,1693.93 h 63.93 l 70.86,-113.99 70.86,113.99 h 63.93 v -269.57 h -58.93 v 175.98 l -75.86,-115.14 h -1.54 l -75.09,113.99 v -174.83 h -58.16 v 269.57"
         style="fill:#505256;fill-opacity:1;fill-rule:nonzero;stroke:none"
         id="path26" /><path
         d="m 2303.18,1693.93 h 59.3 v -269.57 h -59.3 v 269.57"
         style="fill:#505256;fill-opacity:1;fill-rule:nonzero;stroke:none"
         id="path28" /><path
         d="m 2391.36,1693.93 h 54.69 l 126.32,-165.98 v 165.98 h 58.53 v -269.57 h -50.44 l -130.55,171.36 v -171.36 h -58.55 v 269.57"
         style="fill:#505256;fill-opacity:1;fill-rule:nonzero;stroke:none"
         id="path30" /><path
         d="m 2716.42,1640.4 v -162.51 h 45.84 c 48.52,0 81.25,32.73 81.25,80.48 v 0.77 c 0,47.75 -32.73,81.26 -81.25,81.26 z m -59.3,53.53 h 105.14 c 84.71,0 143.25,-58.15 143.25,-134.02 v -0.77 c 0,-75.86 -58.54,-134.78 -143.25,-134.78 h -105.14 v 269.57"
         style="fill:#505256;fill-opacity:1;fill-rule:nonzero;stroke:none"
         id="path32" /><path
         d="m 2863.85,1372.97 v -61.85 h -60.15 v 61.85 h -41.65 v -147.02 l -35.21,49.28 c 11.79,8.81 18.08,23.34 18.08,44.43 0,37.15 -24.05,53.25 -58.82,53.25 h -76.55 l 24.13,-33.95 37.16,0.02 c 16.33,0 30.28,-0.21 30.28,-20.61 0,-17.2 -11.18,-19.69 -24.13,-20.05 h -13.36 l -0.02,-0.03 -41.94,0.08 v -87.36 h 42.1 v 17.24 h -0.14 v 70.06 l 62.37,-87.3 77.7,0.03 v 67.36 h 60.15 v -67.31 h 41.66 v 134.47 l -41.66,27.41"
         style="fill:#f25d1e;fill-opacity:1;fill-rule:nonzero;stroke:none"
         id="path34" /><path
         d="m 2299.43,1365.81 v -147.62 h 45.12 c 46.51,0 77.74,32.39 77.74,73.34 v 0.47 c 0,40.95 -31.23,73.81 -77.98,73.81 z m -7.87,7.16 h 52.75 c 50.92,0 86.08,-35.16 86.08,-80.74 v -0.46 c 0,-45.59 -35.16,-80.76 -86.08,-80.76 h -52.75 v 161.96"
         style="fill:#505256;fill-opacity:1;fill-rule:nonzero;stroke:none"
         id="path36" /><path
         d="m 2462.13,1372.97 h 114.06 v -7.16 h -106.2 v -69.66 h 96.02 v -7.16 h -96.02 v -70.8 h 107.36 v -7.18 h -115.22 v 161.96"
         style="fill:#505256;fill-opacity:1;fill-rule:nonzero;stroke:none"
         id="path38" /><path
         d="m 1396.74,946.281 142.51,116.819 c 53.21,44.04 74.01,67.29 74.01,102.76 0,36.08 -23.85,55.66 -57.49,55.66 -33.03,0 -55.66,-18.35 -87.47,-57.5 l -66.06,53.22 c 42.21,57.49 83.19,88.68 159.64,88.68 88.69,0 147.4,-51.98 147.4,-132.11 v -1.22 c 0,-71.56 -36.69,-107.04 -112.53,-165.76 l -69.73,-53.818 h 186.55 V 871.66 h -316.83 v 74.621"
         style="fill:#f25d1e;fill-opacity:1;fill-rule:nonzero;stroke:none"
         id="path40" /><path
         d="m 1703.77,928.551 56.88,67.89 c 32.42,-29.359 64.23,-46.492 102.14,-46.492 44.04,0 71.57,21.41 71.57,59.331 v 1.22 c 0,36.7 -31.19,58.11 -75.85,58.11 -26.91,0 -51.37,-7.34 -71.55,-15.9 l -54.44,36.08 12.23,211.02 h 263 v -82.57 h -182.26 l -4.9,-74.01 c 17.13,4.28 32.42,7.34 56.27,7.34 83.19,0 149.86,-40.37 149.86,-137.01 v -1.23 c 0,-90.521 -64.23,-148.01 -162.7,-148.01 -68.51,0 -118.66,24.461 -160.25,64.231"
         style="fill:#f25d1e;fill-opacity:1;fill-rule:nonzero;stroke:none"
         id="path42" /><path
         d="m 2185.09,919.879 -40.09,88.261 -40.32,-88.261 z m -45.32,100.671 h 10.89 l 71.04,-153.62 h -12.43 l -19.39,42.711 h -89.99 L 2080.5,866.93 h -11.77 l 71.04,153.62"
         style="fill:#f25d1e;fill-opacity:1;fill-rule:nonzero;stroke:none"
         id="path44" /><path
         d="m 2314.97,1019.46 h 10.67 l 105.25,-132.69 v 132.69 h 10.89 V 866.93 h -8.5 l -107.42,135.54 V 866.93 h -10.89 v 152.53"
         style="fill:#f25d1e;fill-opacity:1;fill-rule:nonzero;stroke:none"
         id="path46" /><path
         d="m 2683.01,942.762 v 0.437 c 0,37.699 -27.46,68.641 -65.16,68.641 -37.69,0 -64.71,-30.508 -64.71,-68.199 v -0.442 c 0,-37.699 27.45,-68.64 65.15,-68.64 37.69,0 64.72,30.511 64.72,68.203 z m -141.64,0 v 0.437 c 0,41.621 30.73,78.881 76.92,78.881 46.19,0 76.48,-36.83 76.48,-78.439 v -0.442 c 0,-41.617 -30.72,-78.879 -76.92,-78.879 -46.19,0 -76.48,36.828 -76.48,78.442"
         style="fill:#f25d1e;fill-opacity:1;fill-rule:nonzero;stroke:none"
         id="path48" /><path
         d="m 2783.47,889.16 7.41,8.5 c 16.77,-15.469 32.25,-22.66 54.69,-22.66 22.88,0 38.57,12.852 38.57,30.289 v 0.43 c 0,16.133 -8.5,25.5 -43.15,32.472 -36.6,7.411 -51.42,19.829 -51.42,42.918 v 0.442 c 0,22.659 20.7,40.089 49.03,40.089 22.22,0 36.82,-6.1 52.29,-18.52 l -7.19,-8.929 c -14.38,12.419 -28.76,17.209 -45.54,17.209 -22.44,0 -37.26,-12.849 -37.26,-28.759 v -0.442 c 0,-16.117 8.28,-25.918 44.45,-33.328 35.3,-7.191 50.12,-19.832 50.12,-42.062 v -0.438 c 0,-24.621 -21.14,-41.609 -50.56,-41.609 -24.4,0 -43.14,8.058 -61.44,24.398"
         style="fill:#f25d1e;fill-opacity:1;fill-rule:nonzero;stroke:none"
         id="path50" /></g></g></svg>
