<svg width="143" height="24" viewBox="0 0 143 24" fill="none" xmlns="http://www.w3.org/2000/svg">
<rect x="0.5" y="0.5" width="142" height="23" rx="11.5" fill="#F4F5F7"/>
<path d="M20.6666 12.6666H16.6666V16.6666H15.3333V12.6666H11.3333V11.3333H15.3333V7.33331H16.6666V11.3333H20.6666V12.6666Z" fill="#253858"/>
<path d="M34.5625 17L33.4961 14.2754H30.0625L29.0078 17H28L31.3867 8.39844H32.2246L35.5938 17H34.5625ZM33.1855 13.3789L32.1895 10.7246C32.0605 10.3887 31.9277 9.97656 31.791 9.48828C31.7051 9.86328 31.582 10.2754 31.4219 10.7246L30.4141 13.3789H33.1855ZM40.9961 16.1387H40.9434C40.4941 16.791 39.8223 17.1172 38.9277 17.1172C38.0879 17.1172 37.4336 16.8301 36.9648 16.2559C36.5 15.6816 36.2676 14.8652 36.2676 13.8066C36.2676 12.748 36.502 11.9258 36.9707 11.3398C37.4395 10.7539 38.0918 10.4609 38.9277 10.4609C39.7988 10.4609 40.4668 10.7773 40.9316 11.4102H41.0078L40.9668 10.9473L40.9434 10.4961V7.88281H41.916V17H41.125L40.9961 16.1387ZM39.0508 16.3027C39.7148 16.3027 40.1953 16.123 40.4922 15.7637C40.793 15.4004 40.9434 14.8164 40.9434 14.0117V13.8066C40.9434 12.8965 40.791 12.248 40.4863 11.8613C40.1855 11.4707 39.7031 11.2754 39.0391 11.2754C38.4688 11.2754 38.0312 11.498 37.7266 11.9434C37.4258 12.3848 37.2754 13.0098 37.2754 13.8184C37.2754 14.6387 37.4258 15.2578 37.7266 15.6758C38.0273 16.0938 38.4688 16.3027 39.0508 16.3027ZM44.957 17H43.9844V10.5781H44.957V17ZM43.9023 8.83789C43.9023 8.61523 43.957 8.45312 44.0664 8.35156C44.1758 8.24609 44.3125 8.19336 44.4766 8.19336C44.6328 8.19336 44.7676 8.24609 44.8809 8.35156C44.9941 8.45703 45.0508 8.61914 45.0508 8.83789C45.0508 9.05664 44.9941 9.2207 44.8809 9.33008C44.7676 9.43555 44.6328 9.48828 44.4766 9.48828C44.3125 9.48828 44.1758 9.43555 44.0664 9.33008C43.957 9.2207 43.9023 9.05664 43.9023 8.83789ZM49.5859 17.1172C48.6562 17.1172 47.9355 16.832 47.4238 16.2617C46.916 15.6875 46.6621 14.877 46.6621 13.8301C46.6621 12.7559 46.9199 11.9258 47.4355 11.3398C47.9551 10.7539 48.6934 10.4609 49.6504 10.4609C49.959 10.4609 50.2676 10.4941 50.5762 10.5605C50.8848 10.627 51.127 10.7051 51.3027 10.7949L51.0039 11.6211C50.7891 11.5352 50.5547 11.4648 50.3008 11.4102C50.0469 11.3516 49.8223 11.3223 49.627 11.3223C48.3223 11.3223 47.6699 12.1543 47.6699 13.8184C47.6699 14.6074 47.8281 15.2129 48.1445 15.6348C48.4648 16.0566 48.9375 16.2676 49.5625 16.2676C50.0977 16.2676 50.6465 16.1523 51.209 15.9219V16.7832C50.7793 17.0059 50.2383 17.1172 49.5859 17.1172ZM53.7109 17H52.7383V10.5781H53.7109V17ZM52.6562 8.83789C52.6562 8.61523 52.7109 8.45312 52.8203 8.35156C52.9297 8.24609 53.0664 8.19336 53.2305 8.19336C53.3867 8.19336 53.5215 8.24609 53.6348 8.35156C53.748 8.45703 53.8047 8.61914 53.8047 8.83789C53.8047 9.05664 53.748 9.2207 53.6348 9.33008C53.5215 9.43555 53.3867 9.48828 53.2305 9.48828C53.0664 9.48828 52.9297 9.43555 52.8203 9.33008C52.7109 9.2207 52.6562 9.05664 52.6562 8.83789ZM61.3164 13.7832C61.3164 14.8301 61.0527 15.6484 60.5254 16.2383C59.998 16.8242 59.2695 17.1172 58.3398 17.1172C57.7656 17.1172 57.2559 16.9824 56.8105 16.7129C56.3652 16.4434 56.0215 16.0566 55.7793 15.5527C55.5371 15.0488 55.416 14.459 55.416 13.7832C55.416 12.7363 55.6777 11.9219 56.2012 11.3398C56.7246 10.7539 57.4512 10.4609 58.3809 10.4609C59.2793 10.4609 59.9922 10.7598 60.5195 11.3574C61.0508 11.9551 61.3164 12.7637 61.3164 13.7832ZM56.4238 13.7832C56.4238 14.6035 56.5879 15.2285 56.916 15.6582C57.2441 16.0879 57.7266 16.3027 58.3633 16.3027C59 16.3027 59.4824 16.0898 59.8105 15.6641C60.1426 15.2344 60.3086 14.6074 60.3086 13.7832C60.3086 12.9668 60.1426 12.3477 59.8105 11.9258C59.4824 11.5 58.9961 11.2871 58.3516 11.2871C57.7148 11.2871 57.2344 11.4961 56.9102 11.9141C56.5859 12.332 56.4238 12.9551 56.4238 13.7832ZM67.4219 17V12.8457C67.4219 12.3223 67.3027 11.9316 67.0645 11.6738C66.8262 11.416 66.4531 11.2871 65.9453 11.2871C65.2734 11.2871 64.7812 11.4688 64.4688 11.832C64.1562 12.1953 64 12.7949 64 13.6309V17H63.0273V10.5781H63.8184L63.9766 11.457H64.0234C64.2227 11.1406 64.502 10.8965 64.8613 10.7246C65.2207 10.5488 65.6211 10.4609 66.0625 10.4609C66.8359 10.4609 67.418 10.6484 67.8086 11.0234C68.1992 11.3945 68.3945 11.9902 68.3945 12.8105V17H67.4219ZM74.3477 17L74.1543 16.0859H74.1074C73.7871 16.4883 73.4668 16.7617 73.1465 16.9062C72.8301 17.0469 72.4336 17.1172 71.957 17.1172C71.3203 17.1172 70.8203 16.9531 70.457 16.625C70.0977 16.2969 69.918 15.8301 69.918 15.2246C69.918 13.9277 70.9551 13.248 73.0293 13.1855L74.1191 13.1504V12.752C74.1191 12.248 74.0098 11.877 73.791 11.6387C73.5762 11.3965 73.2305 11.2754 72.7539 11.2754C72.2188 11.2754 71.6133 11.4395 70.9375 11.7676L70.6387 11.0234C70.9551 10.8516 71.3008 10.7168 71.6758 10.6191C72.0547 10.5215 72.4336 10.4727 72.8125 10.4727C73.5781 10.4727 74.1445 10.6426 74.5117 10.9824C74.8828 11.3223 75.0684 11.8672 75.0684 12.6172V17H74.3477ZM72.1504 16.3145C72.7559 16.3145 73.2305 16.1484 73.5742 15.8164C73.9219 15.4844 74.0957 15.0195 74.0957 14.4219V13.8418L73.123 13.8828C72.3496 13.9102 71.791 14.0312 71.4473 14.2461C71.1074 14.457 70.9375 14.7871 70.9375 15.2363C70.9375 15.5879 71.043 15.8555 71.2539 16.0391C71.4688 16.2227 71.7676 16.3145 72.1504 16.3145ZM80.0078 10.4609C80.293 10.4609 80.5488 10.4844 80.7754 10.5312L80.6406 11.4336C80.375 11.375 80.1406 11.3457 79.9375 11.3457C79.418 11.3457 78.9727 11.5566 78.6016 11.9785C78.2344 12.4004 78.0508 12.9258 78.0508 13.5547V17H77.0781V10.5781H77.8809L77.9922 11.7676H78.0391C78.2773 11.3496 78.5645 11.0273 78.9004 10.8008C79.2363 10.5742 79.6055 10.4609 80.0078 10.4609ZM87.168 16.3145C87.3398 16.3145 87.5059 16.3027 87.666 16.2793C87.8262 16.252 87.9531 16.2246 88.0469 16.1973V16.9414C87.9414 16.9922 87.7852 17.0332 87.5781 17.0645C87.375 17.0996 87.1914 17.1172 87.0273 17.1172C85.7852 17.1172 85.1641 16.4629 85.1641 15.1543V11.334H84.2441V10.8652L85.1641 10.4609L85.5742 9.08984H86.1367V10.5781H88V11.334H86.1367V15.1133C86.1367 15.5 86.2285 15.7969 86.4121 16.0039C86.5957 16.2109 86.8477 16.3145 87.168 16.3145ZM92.0488 17.1172C91.0996 17.1172 90.3496 16.8281 89.7988 16.25C89.252 15.6719 88.9785 14.8691 88.9785 13.8418C88.9785 12.8066 89.2324 11.9844 89.7402 11.375C90.252 10.7656 90.9375 10.4609 91.7969 10.4609C92.6016 10.4609 93.2383 10.7266 93.707 11.2578C94.1758 11.7852 94.4102 12.4824 94.4102 13.3496V13.9648H89.9863C90.0059 14.7188 90.1953 15.291 90.5547 15.6816C90.918 16.0723 91.4277 16.2676 92.084 16.2676C92.7754 16.2676 93.459 16.123 94.1348 15.834V16.7012C93.791 16.8496 93.4648 16.9551 93.1562 17.0176C92.8516 17.084 92.4824 17.1172 92.0488 17.1172ZM91.7852 11.2754C91.2695 11.2754 90.8574 11.4434 90.5488 11.7793C90.2441 12.1152 90.0645 12.5801 90.0098 13.1738H93.3672C93.3672 12.5605 93.2305 12.0918 92.957 11.7676C92.6836 11.4395 92.293 11.2754 91.7852 11.2754ZM104.26 17V12.8223C104.26 12.3105 104.15 11.9277 103.932 11.6738C103.713 11.416 103.373 11.2871 102.912 11.2871C102.307 11.2871 101.859 11.4609 101.57 11.8086C101.281 12.1562 101.137 12.6914 101.137 13.4141V17H100.164V12.8223C100.164 12.3105 100.055 11.9277 99.8359 11.6738C99.6172 11.416 99.2754 11.2871 98.8105 11.2871C98.2012 11.2871 97.7539 11.4707 97.4688 11.8379C97.1875 12.2012 97.0469 12.7988 97.0469 13.6309V17H96.0742V10.5781H96.8652L97.0234 11.457H97.0703C97.2539 11.1445 97.5117 10.9004 97.8438 10.7246C98.1797 10.5488 98.5547 10.4609 98.9688 10.4609C99.9727 10.4609 100.629 10.8242 100.938 11.5508H100.984C101.176 11.2148 101.453 10.9492 101.816 10.7539C102.18 10.5586 102.594 10.4609 103.059 10.4609C103.785 10.4609 104.328 10.6484 104.688 11.0234C105.051 11.3945 105.232 11.9902 105.232 12.8105V17H104.26ZM110.23 17.1172C109.812 17.1172 109.43 17.041 109.082 16.8887C108.738 16.7324 108.449 16.4941 108.215 16.1738H108.145C108.191 16.5488 108.215 16.9043 108.215 17.2402V19.8828H107.242V10.5781H108.033L108.168 11.457H108.215C108.465 11.1055 108.756 10.8516 109.088 10.6953C109.42 10.5391 109.801 10.4609 110.23 10.4609C111.082 10.4609 111.738 10.752 112.199 11.334C112.664 11.916 112.896 12.7324 112.896 13.7832C112.896 14.8379 112.66 15.6582 112.188 16.2441C111.719 16.8262 111.066 17.1172 110.23 17.1172ZM110.09 11.2871C109.434 11.2871 108.959 11.4688 108.666 11.832C108.373 12.1953 108.223 12.7734 108.215 13.5664V13.7832C108.215 14.6855 108.365 15.332 108.666 15.7227C108.967 16.1094 109.449 16.3027 110.113 16.3027C110.668 16.3027 111.102 16.0781 111.414 15.6289C111.73 15.1797 111.889 14.5605 111.889 13.7715C111.889 12.9707 111.73 12.3574 111.414 11.9316C111.102 11.502 110.66 11.2871 110.09 11.2871ZM115.574 17H114.602V7.88281H115.574V17ZM121.586 17L121.393 16.0859H121.346C121.025 16.4883 120.705 16.7617 120.385 16.9062C120.068 17.0469 119.672 17.1172 119.195 17.1172C118.559 17.1172 118.059 16.9531 117.695 16.625C117.336 16.2969 117.156 15.8301 117.156 15.2246C117.156 13.9277 118.193 13.248 120.268 13.1855L121.357 13.1504V12.752C121.357 12.248 121.248 11.877 121.029 11.6387C120.814 11.3965 120.469 11.2754 119.992 11.2754C119.457 11.2754 118.852 11.4395 118.176 11.7676L117.877 11.0234C118.193 10.8516 118.539 10.7168 118.914 10.6191C119.293 10.5215 119.672 10.4727 120.051 10.4727C120.816 10.4727 121.383 10.6426 121.75 10.9824C122.121 11.3223 122.307 11.8672 122.307 12.6172V17H121.586ZM119.389 16.3145C119.994 16.3145 120.469 16.1484 120.812 15.8164C121.16 15.4844 121.334 15.0195 121.334 14.4219V13.8418L120.361 13.8828C119.588 13.9102 119.029 14.0312 118.686 14.2461C118.346 14.457 118.176 14.7871 118.176 15.2363C118.176 15.5879 118.281 15.8555 118.492 16.0391C118.707 16.2227 119.006 16.3145 119.389 16.3145ZM126.391 16.3145C126.562 16.3145 126.729 16.3027 126.889 16.2793C127.049 16.252 127.176 16.2246 127.27 16.1973V16.9414C127.164 16.9922 127.008 17.0332 126.801 17.0645C126.598 17.0996 126.414 17.1172 126.25 17.1172C125.008 17.1172 124.387 16.4629 124.387 15.1543V11.334H123.467V10.8652L124.387 10.4609L124.797 9.08984H125.359V10.5781H127.223V11.334H125.359V15.1133C125.359 15.5 125.451 15.7969 125.635 16.0039C125.818 16.2109 126.07 16.3145 126.391 16.3145ZM131.271 17.1172C130.322 17.1172 129.572 16.8281 129.021 16.25C128.475 15.6719 128.201 14.8691 128.201 13.8418C128.201 12.8066 128.455 11.9844 128.963 11.375C129.475 10.7656 130.16 10.4609 131.02 10.4609C131.824 10.4609 132.461 10.7266 132.93 11.2578C133.398 11.7852 133.633 12.4824 133.633 13.3496V13.9648H129.209C129.229 14.7188 129.418 15.291 129.777 15.6816C130.141 16.0723 130.65 16.2676 131.307 16.2676C131.998 16.2676 132.682 16.123 133.357 15.834V16.7012C133.014 16.8496 132.688 16.9551 132.379 17.0176C132.074 17.084 131.705 17.1172 131.271 17.1172ZM131.008 11.2754C130.492 11.2754 130.08 11.4434 129.771 11.7793C129.467 12.1152 129.287 12.5801 129.232 13.1738H132.59C132.59 12.5605 132.453 12.0918 132.18 11.7676C131.906 11.4395 131.516 11.2754 131.008 11.2754Z" fill="#253858"/>
<rect x="0.5" y="0.5" width="142" height="23" rx="11.5" stroke="#97A0AF"/>
</svg>
