<svg width="71" height="24" viewBox="0 0 71 24" fill="none" xmlns="http://www.w3.org/2000/svg">
<path d="M16 5.33333C13.42 5.33333 11.3334 7.41999 11.3334 9.99999C11.3334 13.5 16 18.6667 16 18.6667C16 18.6667 20.6667 13.5 20.6667 9.99999C20.6667 7.41999 18.58 5.33333 16 5.33333ZM16 11.6667C15.08 11.6667 14.3334 10.92 14.3334 9.99999C14.3334 9.07999 15.08 8.33333 16 8.33333C16.92 8.33333 17.6667 9.07999 17.6667 9.99999C17.6667 10.92 16.92 11.6667 16 11.6667Z" fill="#253858"/>
<path d="M29.1777 17V8.43359H30.1738V16.0977H33.9531V17H29.1777ZM40.8086 13.7832C40.8086 14.8301 40.5449 15.6484 40.0176 16.2383C39.4902 16.8242 38.7617 17.1172 37.832 17.1172C37.2578 17.1172 36.748 16.9824 36.3027 16.7129C35.8574 16.4434 35.5137 16.0566 35.2715 15.5527C35.0293 15.0488 34.9082 14.459 34.9082 13.7832C34.9082 12.7363 35.1699 11.9219 35.6934 11.3398C36.2168 10.7539 36.9434 10.4609 37.873 10.4609C38.7715 10.4609 39.4844 10.7598 40.0117 11.3574C40.543 11.9551 40.8086 12.7637 40.8086 13.7832ZM35.916 13.7832C35.916 14.6035 36.0801 15.2285 36.4082 15.6582C36.7363 16.0879 37.2188 16.3027 37.8555 16.3027C38.4922 16.3027 38.9746 16.0898 39.3027 15.6641C39.6348 15.2344 39.8008 14.6074 39.8008 13.7832C39.8008 12.9668 39.6348 12.3477 39.3027 11.9258C38.9746 11.5 38.4883 11.2871 37.8438 11.2871C37.207 11.2871 36.7266 11.4961 36.4023 11.9141C36.0781 12.332 35.916 12.9551 35.916 13.7832ZM45.0859 17.1172C44.1562 17.1172 43.4355 16.832 42.9238 16.2617C42.416 15.6875 42.1621 14.877 42.1621 13.8301C42.1621 12.7559 42.4199 11.9258 42.9355 11.3398C43.4551 10.7539 44.1934 10.4609 45.1504 10.4609C45.459 10.4609 45.7676 10.4941 46.0762 10.5605C46.3848 10.627 46.627 10.7051 46.8027 10.7949L46.5039 11.6211C46.2891 11.5352 46.0547 11.4648 45.8008 11.4102C45.5469 11.3516 45.3223 11.3223 45.127 11.3223C43.8223 11.3223 43.1699 12.1543 43.1699 13.8184C43.1699 14.6074 43.3281 15.2129 43.6445 15.6348C43.9648 16.0566 44.4375 16.2676 45.0625 16.2676C45.5977 16.2676 46.1465 16.1523 46.709 15.9219V16.7832C46.2793 17.0059 45.7383 17.1172 45.0859 17.1172ZM52.1875 17L51.9941 16.0859H51.9473C51.627 16.4883 51.3066 16.7617 50.9863 16.9062C50.6699 17.0469 50.2734 17.1172 49.7969 17.1172C49.1602 17.1172 48.6602 16.9531 48.2969 16.625C47.9375 16.2969 47.7578 15.8301 47.7578 15.2246C47.7578 13.9277 48.7949 13.248 50.8691 13.1855L51.959 13.1504V12.752C51.959 12.248 51.8496 11.877 51.6309 11.6387C51.416 11.3965 51.0703 11.2754 50.5938 11.2754C50.0586 11.2754 49.4531 11.4395 48.7773 11.7676L48.4785 11.0234C48.7949 10.8516 49.1406 10.7168 49.5156 10.6191C49.8945 10.5215 50.2734 10.4727 50.6523 10.4727C51.418 10.4727 51.9844 10.6426 52.3516 10.9824C52.7227 11.3223 52.9082 11.8672 52.9082 12.6172V17H52.1875ZM49.9902 16.3145C50.5957 16.3145 51.0703 16.1484 51.4141 15.8164C51.7617 15.4844 51.9355 15.0195 51.9355 14.4219V13.8418L50.9629 13.8828C50.1895 13.9102 49.6309 14.0312 49.2871 14.2461C48.9473 14.457 48.7773 14.7871 48.7773 15.2363C48.7773 15.5879 48.8828 15.8555 49.0938 16.0391C49.3086 16.2227 49.6074 16.3145 49.9902 16.3145ZM55.8906 17H54.918V10.5781H55.8906V17ZM54.8359 8.83789C54.8359 8.61523 54.8906 8.45312 55 8.35156C55.1094 8.24609 55.2461 8.19336 55.4102 8.19336C55.5664 8.19336 55.7012 8.24609 55.8145 8.35156C55.9277 8.45703 55.9844 8.61914 55.9844 8.83789C55.9844 9.05664 55.9277 9.2207 55.8145 9.33008C55.7012 9.43555 55.5664 9.48828 55.4102 9.48828C55.2461 9.48828 55.1094 9.43555 55 9.33008C54.8906 9.2207 54.8359 9.05664 54.8359 8.83789ZM62.0957 15.248C62.0957 15.8457 61.873 16.3066 61.4277 16.6309C60.9824 16.9551 60.3574 17.1172 59.5527 17.1172C58.7012 17.1172 58.0371 16.9824 57.5605 16.7129V15.8105C57.8691 15.9668 58.1992 16.0898 58.5508 16.1797C58.9062 16.2695 59.248 16.3145 59.5762 16.3145C60.084 16.3145 60.4746 16.2344 60.748 16.0742C61.0215 15.9102 61.1582 15.6621 61.1582 15.3301C61.1582 15.0801 61.0488 14.8672 60.8301 14.6914C60.6152 14.5117 60.1934 14.3008 59.5645 14.0586C58.9668 13.8359 58.541 13.6426 58.2871 13.4785C58.0371 13.3105 57.8496 13.1211 57.7246 12.9102C57.6035 12.6992 57.543 12.4473 57.543 12.1543C57.543 11.6309 57.7559 11.2188 58.1816 10.918C58.6074 10.6133 59.1914 10.4609 59.9336 10.4609C60.625 10.4609 61.3008 10.6016 61.9609 10.8828L61.6152 11.6738C60.9707 11.4082 60.3867 11.2754 59.8633 11.2754C59.4023 11.2754 59.0547 11.3477 58.8203 11.4922C58.5859 11.6367 58.4688 11.8359 58.4688 12.0898C58.4688 12.2617 58.5117 12.4082 58.5977 12.5293C58.6875 12.6504 58.8301 12.7656 59.0254 12.875C59.2207 12.9844 59.5957 13.1426 60.1504 13.3496C60.9121 13.627 61.4258 13.9062 61.6914 14.1875C61.9609 14.4688 62.0957 14.8223 62.0957 15.248Z" fill="#253858"/>
<rect x="0.5" y="0.5" width="70" height="23" rx="11.5" stroke="#97A0AF"/>
</svg>
