<svg width="140" height="24" viewBox="0 0 140 24" fill="none" xmlns="http://www.w3.org/2000/svg">
<path d="M14.0117 14.7207C14.0117 15.4746 13.7383 16.0625 13.1914 16.4844C12.6445 16.9062 11.9023 17.1172 10.9648 17.1172C9.94922 17.1172 9.16797 16.9863 8.62109 16.7246V15.7637C8.97266 15.9121 9.35547 16.0293 9.76953 16.1152C10.1836 16.2012 10.5938 16.2441 11 16.2441C11.6641 16.2441 12.1641 16.1191 12.5 15.8691C12.8359 15.6152 13.0039 15.2637 13.0039 14.8145C13.0039 14.5176 12.9434 14.2754 12.8223 14.0879C12.7051 13.8965 12.5059 13.7207 12.2246 13.5605C11.9473 13.4004 11.5234 13.2188 10.9531 13.0156C10.1562 12.7305 9.58594 12.3926 9.24219 12.002C8.90234 11.6113 8.73242 11.1016 8.73242 10.4727C8.73242 9.8125 8.98047 9.28711 9.47656 8.89648C9.97266 8.50586 10.6289 8.31055 11.4453 8.31055C12.2969 8.31055 13.0801 8.4668 13.7949 8.7793L13.4844 9.64648C12.7773 9.34961 12.0898 9.20117 11.4219 9.20117C10.8945 9.20117 10.4824 9.31445 10.1855 9.54102C9.88867 9.76758 9.74023 10.082 9.74023 10.4844C9.74023 10.7812 9.79492 11.0254 9.9043 11.2168C10.0137 11.4043 10.1973 11.5781 10.4551 11.7383C10.7168 11.8945 11.1152 12.0684 11.6504 12.2598C12.5488 12.5801 13.166 12.9238 13.502 13.291C13.8418 13.6582 14.0117 14.1348 14.0117 14.7207ZM19.5664 17L19.373 16.0859H19.3262C19.0059 16.4883 18.6855 16.7617 18.3652 16.9062C18.0488 17.0469 17.6523 17.1172 17.1758 17.1172C16.5391 17.1172 16.0391 16.9531 15.6758 16.625C15.3164 16.2969 15.1367 15.8301 15.1367 15.2246C15.1367 13.9277 16.1738 13.248 18.248 13.1855L19.3379 13.1504V12.752C19.3379 12.248 19.2285 11.877 19.0098 11.6387C18.7949 11.3965 18.4492 11.2754 17.9727 11.2754C17.4375 11.2754 16.832 11.4395 16.1562 11.7676L15.8574 11.0234C16.1738 10.8516 16.5195 10.7168 16.8945 10.6191C17.2734 10.5215 17.6523 10.4727 18.0312 10.4727C18.7969 10.4727 19.3633 10.6426 19.7305 10.9824C20.1016 11.3223 20.2871 11.8672 20.2871 12.6172V17H19.5664ZM17.3691 16.3145C17.9746 16.3145 18.4492 16.1484 18.793 15.8164C19.1406 15.4844 19.3145 15.0195 19.3145 14.4219V13.8418L18.3418 13.8828C17.5684 13.9102 17.0098 14.0312 16.666 14.2461C16.3262 14.457 16.1562 14.7871 16.1562 15.2363C16.1562 15.5879 16.2617 15.8555 16.4727 16.0391C16.6875 16.2227 16.9863 16.3145 17.3691 16.3145ZM23.2695 17H22.2969V7.88281H23.2695V17ZM26.7383 17L24.3008 10.5781H25.3438L26.7266 14.3867C27.0391 15.2773 27.2227 15.8555 27.2773 16.1211H27.3242C27.3672 15.9141 27.502 15.4863 27.7285 14.8379C27.959 14.1855 28.4727 12.7656 29.2695 10.5781H30.3125L27.875 17H26.7383ZM35.293 17L35.0996 16.0859H35.0527C34.7324 16.4883 34.4121 16.7617 34.0918 16.9062C33.7754 17.0469 33.3789 17.1172 32.9023 17.1172C32.2656 17.1172 31.7656 16.9531 31.4023 16.625C31.043 16.2969 30.8633 15.8301 30.8633 15.2246C30.8633 13.9277 31.9004 13.248 33.9746 13.1855L35.0645 13.1504V12.752C35.0645 12.248 34.9551 11.877 34.7363 11.6387C34.5215 11.3965 34.1758 11.2754 33.6992 11.2754C33.1641 11.2754 32.5586 11.4395 31.8828 11.7676L31.584 11.0234C31.9004 10.8516 32.2461 10.7168 32.6211 10.6191C33 10.5215 33.3789 10.4727 33.7578 10.4727C34.5234 10.4727 35.0898 10.6426 35.457 10.9824C35.8281 11.3223 36.0137 11.8672 36.0137 12.6172V17H35.293ZM33.0957 16.3145C33.7012 16.3145 34.1758 16.1484 34.5195 15.8164C34.8672 15.4844 35.041 15.0195 35.041 14.4219V13.8418L34.0684 13.8828C33.2949 13.9102 32.7363 14.0312 32.3926 14.2461C32.0527 14.457 31.8828 14.7871 31.8828 15.2363C31.8828 15.5879 31.9883 15.8555 32.1992 16.0391C32.4141 16.2227 32.7129 16.3145 33.0957 16.3145ZM40.9531 10.4609C41.2383 10.4609 41.4941 10.4844 41.7207 10.5312L41.5859 11.4336C41.3203 11.375 41.0859 11.3457 40.8828 11.3457C40.3633 11.3457 39.918 11.5566 39.5469 11.9785C39.1797 12.4004 38.9961 12.9258 38.9961 13.5547V17H38.0234V10.5781H38.8262L38.9375 11.7676H38.9844C39.2227 11.3496 39.5098 11.0273 39.8457 10.8008C40.1816 10.5742 40.5508 10.4609 40.9531 10.4609ZM48.6055 17.1172C47.6758 17.1172 46.9551 16.832 46.4434 16.2617C45.9355 15.6875 45.6816 14.877 45.6816 13.8301C45.6816 12.7559 45.9395 11.9258 46.4551 11.3398C46.9746 10.7539 47.7129 10.4609 48.6699 10.4609C48.9785 10.4609 49.2871 10.4941 49.5957 10.5605C49.9043 10.627 50.1465 10.7051 50.3223 10.7949L50.0234 11.6211C49.8086 11.5352 49.5742 11.4648 49.3203 11.4102C49.0664 11.3516 48.8418 11.3223 48.6465 11.3223C47.3418 11.3223 46.6895 12.1543 46.6895 13.8184C46.6895 14.6074 46.8477 15.2129 47.1641 15.6348C47.4844 16.0566 47.957 16.2676 48.582 16.2676C49.1172 16.2676 49.666 16.1523 50.2285 15.9219V16.7832C49.7988 17.0059 49.2578 17.1172 48.6055 17.1172ZM57.3008 13.7832C57.3008 14.8301 57.0371 15.6484 56.5098 16.2383C55.9824 16.8242 55.2539 17.1172 54.3242 17.1172C53.75 17.1172 53.2402 16.9824 52.7949 16.7129C52.3496 16.4434 52.0059 16.0566 51.7637 15.5527C51.5215 15.0488 51.4004 14.459 51.4004 13.7832C51.4004 12.7363 51.6621 11.9219 52.1855 11.3398C52.709 10.7539 53.4355 10.4609 54.3652 10.4609C55.2637 10.4609 55.9766 10.7598 56.5039 11.3574C57.0352 11.9551 57.3008 12.7637 57.3008 13.7832ZM52.4082 13.7832C52.4082 14.6035 52.5723 15.2285 52.9004 15.6582C53.2285 16.0879 53.7109 16.3027 54.3477 16.3027C54.9844 16.3027 55.4668 16.0898 55.7949 15.6641C56.127 15.2344 56.293 14.6074 56.293 13.7832C56.293 12.9668 56.127 12.3477 55.7949 11.9258C55.4668 11.5 54.9805 11.2871 54.3359 11.2871C53.6992 11.2871 53.2188 11.4961 52.8945 11.9141C52.5703 12.332 52.4082 12.9551 52.4082 13.7832ZM67.1973 17V12.8223C67.1973 12.3105 67.0879 11.9277 66.8691 11.6738C66.6504 11.416 66.3105 11.2871 65.8496 11.2871C65.2441 11.2871 64.7969 11.4609 64.5078 11.8086C64.2188 12.1562 64.0742 12.6914 64.0742 13.4141V17H63.1016V12.8223C63.1016 12.3105 62.9922 11.9277 62.7734 11.6738C62.5547 11.416 62.2129 11.2871 61.748 11.2871C61.1387 11.2871 60.6914 11.4707 60.4062 11.8379C60.125 12.2012 59.9844 12.7988 59.9844 13.6309V17H59.0117V10.5781H59.8027L59.9609 11.457H60.0078C60.1914 11.1445 60.4492 10.9004 60.7812 10.7246C61.1172 10.5488 61.4922 10.4609 61.9062 10.4609C62.9102 10.4609 63.5664 10.8242 63.875 11.5508H63.9219C64.1133 11.2148 64.3906 10.9492 64.7539 10.7539C65.1172 10.5586 65.5312 10.4609 65.9961 10.4609C66.7227 10.4609 67.2656 10.6484 67.625 11.0234C67.9883 11.3945 68.1699 11.9902 68.1699 12.8105V17H67.1973ZM75.7227 13.7832C75.7227 14.8301 75.459 15.6484 74.9316 16.2383C74.4043 16.8242 73.6758 17.1172 72.7461 17.1172C72.1719 17.1172 71.6621 16.9824 71.2168 16.7129C70.7715 16.4434 70.4277 16.0566 70.1855 15.5527C69.9434 15.0488 69.8223 14.459 69.8223 13.7832C69.8223 12.7363 70.084 11.9219 70.6074 11.3398C71.1309 10.7539 71.8574 10.4609 72.7871 10.4609C73.6855 10.4609 74.3984 10.7598 74.9258 11.3574C75.457 11.9551 75.7227 12.7637 75.7227 13.7832ZM70.8301 13.7832C70.8301 14.6035 70.9941 15.2285 71.3223 15.6582C71.6504 16.0879 72.1328 16.3027 72.7695 16.3027C73.4062 16.3027 73.8887 16.0898 74.2168 15.6641C74.5488 15.2344 74.7148 14.6074 74.7148 13.7832C74.7148 12.9668 74.5488 12.3477 74.2168 11.9258C73.8887 11.5 73.4023 11.2871 72.7578 11.2871C72.1211 11.2871 71.6406 11.4961 71.3164 11.9141C70.9922 12.332 70.8301 12.9551 70.8301 13.7832ZM83.4805 10.4609C83.7656 10.4609 84.0215 10.4844 84.248 10.5312L84.1133 11.4336C83.8477 11.375 83.6133 11.3457 83.4102 11.3457C82.8906 11.3457 82.4453 11.5566 82.0742 11.9785C81.707 12.4004 81.5234 12.9258 81.5234 13.5547V17H80.5508V10.5781H81.3535L81.4648 11.7676H81.5117C81.75 11.3496 82.0371 11.0273 82.373 10.8008C82.709 10.5742 83.0781 10.4609 83.4805 10.4609ZM89.3984 17L89.2051 16.0859H89.1582C88.8379 16.4883 88.5176 16.7617 88.1973 16.9062C87.8809 17.0469 87.4844 17.1172 87.0078 17.1172C86.3711 17.1172 85.8711 16.9531 85.5078 16.625C85.1484 16.2969 84.9688 15.8301 84.9688 15.2246C84.9688 13.9277 86.0059 13.248 88.0801 13.1855L89.1699 13.1504V12.752C89.1699 12.248 89.0605 11.877 88.8418 11.6387C88.627 11.3965 88.2812 11.2754 87.8047 11.2754C87.2695 11.2754 86.6641 11.4395 85.9883 11.7676L85.6895 11.0234C86.0059 10.8516 86.3516 10.7168 86.7266 10.6191C87.1055 10.5215 87.4844 10.4727 87.8633 10.4727C88.6289 10.4727 89.1953 10.6426 89.5625 10.9824C89.9336 11.3223 90.1191 11.8672 90.1191 12.6172V17H89.3984ZM87.2012 16.3145C87.8066 16.3145 88.2812 16.1484 88.625 15.8164C88.9727 15.4844 89.1465 15.0195 89.1465 14.4219V13.8418L88.1738 13.8828C87.4004 13.9102 86.8418 14.0312 86.498 14.2461C86.1582 14.457 85.9883 14.7871 85.9883 15.2363C85.9883 15.5879 86.0938 15.8555 86.3047 16.0391C86.5195 16.2227 86.8184 16.3145 87.2012 16.3145ZM96.2715 15.248C96.2715 15.8457 96.0488 16.3066 95.6035 16.6309C95.1582 16.9551 94.5332 17.1172 93.7285 17.1172C92.877 17.1172 92.2129 16.9824 91.7363 16.7129V15.8105C92.0449 15.9668 92.375 16.0898 92.7266 16.1797C93.082 16.2695 93.4238 16.3145 93.752 16.3145C94.2598 16.3145 94.6504 16.2344 94.9238 16.0742C95.1973 15.9102 95.334 15.6621 95.334 15.3301C95.334 15.0801 95.2246 14.8672 95.0059 14.6914C94.791 14.5117 94.3691 14.3008 93.7402 14.0586C93.1426 13.8359 92.7168 13.6426 92.4629 13.4785C92.2129 13.3105 92.0254 13.1211 91.9004 12.9102C91.7793 12.6992 91.7188 12.4473 91.7188 12.1543C91.7188 11.6309 91.9316 11.2188 92.3574 10.918C92.7832 10.6133 93.3672 10.4609 94.1094 10.4609C94.8008 10.4609 95.4766 10.6016 96.1367 10.8828L95.791 11.6738C95.1465 11.4082 94.5625 11.2754 94.0391 11.2754C93.5781 11.2754 93.2305 11.3477 92.9961 11.4922C92.7617 11.6367 92.6445 11.8359 92.6445 12.0898C92.6445 12.2617 92.6875 12.4082 92.7734 12.5293C92.8633 12.6504 93.0059 12.7656 93.2012 12.875C93.3965 12.9844 93.7715 13.1426 94.3262 13.3496C95.0879 13.627 95.6016 13.9062 95.8672 14.1875C96.1367 14.4688 96.2715 14.8223 96.2715 15.248ZM100.426 17.1172C99.4961 17.1172 98.7754 16.832 98.2637 16.2617C97.7559 15.6875 97.502 14.877 97.502 13.8301C97.502 12.7559 97.7598 11.9258 98.2754 11.3398C98.7949 10.7539 99.5332 10.4609 100.49 10.4609C100.799 10.4609 101.107 10.4941 101.416 10.5605C101.725 10.627 101.967 10.7051 102.143 10.7949L101.844 11.6211C101.629 11.5352 101.395 11.4648 101.141 11.4102C100.887 11.3516 100.662 11.3223 100.467 11.3223C99.1621 11.3223 98.5098 12.1543 98.5098 13.8184C98.5098 14.6074 98.668 15.2129 98.9844 15.6348C99.3047 16.0566 99.7773 16.2676 100.402 16.2676C100.938 16.2676 101.486 16.1523 102.049 15.9219V16.7832C101.619 17.0059 101.078 17.1172 100.426 17.1172ZM104.492 10.5781V14.7441C104.492 15.2676 104.611 15.6582 104.85 15.916C105.088 16.1738 105.461 16.3027 105.969 16.3027C106.641 16.3027 107.131 16.1191 107.439 15.752C107.752 15.3848 107.908 14.7852 107.908 13.9531V10.5781H108.881V17H108.078L107.938 16.1387H107.885C107.686 16.4551 107.408 16.6973 107.053 16.8652C106.701 17.0332 106.299 17.1172 105.846 17.1172C105.064 17.1172 104.479 16.9316 104.088 16.5605C103.701 16.1895 103.508 15.5957 103.508 14.7793V10.5781H104.492ZM115.344 17V12.8457C115.344 12.3223 115.225 11.9316 114.986 11.6738C114.748 11.416 114.375 11.2871 113.867 11.2871C113.195 11.2871 112.703 11.4688 112.391 11.832C112.078 12.1953 111.922 12.7949 111.922 13.6309V17H110.949V10.5781H111.74L111.898 11.457H111.945C112.145 11.1406 112.424 10.8965 112.783 10.7246C113.143 10.5488 113.543 10.4609 113.984 10.4609C114.758 10.4609 115.34 10.6484 115.73 11.0234C116.121 11.3945 116.316 11.9902 116.316 12.8105V17H115.344ZM122.715 17V12.8457C122.715 12.3223 122.596 11.9316 122.357 11.6738C122.119 11.416 121.746 11.2871 121.238 11.2871C120.562 11.2871 120.068 11.4707 119.756 11.8379C119.447 12.2051 119.293 12.8066 119.293 13.6426V17H118.32V7.88281H119.293V10.6426C119.293 10.9746 119.277 11.25 119.246 11.4688H119.305C119.496 11.1602 119.768 10.918 120.119 10.7422C120.475 10.5625 120.879 10.4727 121.332 10.4727C122.117 10.4727 122.705 10.6602 123.096 11.0352C123.49 11.4062 123.688 11.998 123.688 12.8105V17H122.715ZM131.234 13.7832C131.234 14.8301 130.971 15.6484 130.443 16.2383C129.916 16.8242 129.188 17.1172 128.258 17.1172C127.684 17.1172 127.174 16.9824 126.729 16.7129C126.283 16.4434 125.939 16.0566 125.697 15.5527C125.455 15.0488 125.334 14.459 125.334 13.7832C125.334 12.7363 125.596 11.9219 126.119 11.3398C126.643 10.7539 127.369 10.4609 128.299 10.4609C129.197 10.4609 129.91 10.7598 130.438 11.3574C130.969 11.9551 131.234 12.7637 131.234 13.7832ZM126.342 13.7832C126.342 14.6035 126.506 15.2285 126.834 15.6582C127.162 16.0879 127.645 16.3027 128.281 16.3027C128.918 16.3027 129.4 16.0898 129.729 15.6641C130.061 15.2344 130.227 14.6074 130.227 13.7832C130.227 12.9668 130.061 12.3477 129.729 11.9258C129.4 11.5 128.914 11.2871 128.27 11.2871C127.633 11.2871 127.152 11.4961 126.828 11.9141C126.504 12.332 126.342 12.9551 126.342 13.7832Z" fill="#253858"/>
<rect x="0.5" y="0.5" width="139" height="23" rx="11.5" stroke="#97A0AF"/>
</svg>
