<svg width="98" height="24" viewBox="0 0 98 24" fill="none" xmlns="http://www.w3.org/2000/svg">
<path d="M16 12C17.4733 12 18.6666 10.8067 18.6666 9.33334C18.6666 7.86001 17.4733 6.66667 16 6.66667C14.5266 6.66667 13.3333 7.86001 13.3333 9.33334C13.3333 10.8067 14.5266 12 16 12ZM16 13.3333C14.22 13.3333 10.6666 14.2267 10.6666 16V17.3333H21.3333V16C21.3333 14.2267 17.78 13.3333 16 13.3333Z" fill="#253858"/>
<path d="M29.1777 17V8.43359H30.1738V17H29.1777ZM36.7773 17V12.8457C36.7773 12.3223 36.6582 11.9316 36.4199 11.6738C36.1816 11.416 35.8086 11.2871 35.3008 11.2871C34.6289 11.2871 34.1367 11.4688 33.8242 11.832C33.5117 12.1953 33.3555 12.7949 33.3555 13.6309V17H32.3828V10.5781H33.1738L33.332 11.457H33.3789C33.5781 11.1406 33.8574 10.8965 34.2168 10.7246C34.5762 10.5488 34.9766 10.4609 35.418 10.4609C36.1914 10.4609 36.7734 10.6484 37.1641 11.0234C37.5547 11.3945 37.75 11.9902 37.75 12.8105V17H36.7773ZM43.8965 15.248C43.8965 15.8457 43.6738 16.3066 43.2285 16.6309C42.7832 16.9551 42.1582 17.1172 41.3535 17.1172C40.502 17.1172 39.8379 16.9824 39.3613 16.7129V15.8105C39.6699 15.9668 40 16.0898 40.3516 16.1797C40.707 16.2695 41.0488 16.3145 41.377 16.3145C41.8848 16.3145 42.2754 16.2344 42.5488 16.0742C42.8223 15.9102 42.959 15.6621 42.959 15.3301C42.959 15.0801 42.8496 14.8672 42.6309 14.6914C42.416 14.5117 41.9941 14.3008 41.3652 14.0586C40.7676 13.8359 40.3418 13.6426 40.0879 13.4785C39.8379 13.3105 39.6504 13.1211 39.5254 12.9102C39.4043 12.6992 39.3438 12.4473 39.3438 12.1543C39.3438 11.6309 39.5566 11.2188 39.9824 10.918C40.4082 10.6133 40.9922 10.4609 41.7344 10.4609C42.4258 10.4609 43.1016 10.6016 43.7617 10.8828L43.416 11.6738C42.7715 11.4082 42.1875 11.2754 41.6641 11.2754C41.2031 11.2754 40.8555 11.3477 40.6211 11.4922C40.3867 11.6367 40.2695 11.8359 40.2695 12.0898C40.2695 12.2617 40.3125 12.4082 40.3984 12.5293C40.4883 12.6504 40.6309 12.7656 40.8262 12.875C41.0215 12.9844 41.3965 13.1426 41.9512 13.3496C42.7129 13.627 43.2266 13.9062 43.4922 14.1875C43.7617 14.4688 43.8965 14.8223 43.8965 15.248ZM47.5586 16.3145C47.7305 16.3145 47.8965 16.3027 48.0566 16.2793C48.2168 16.252 48.3438 16.2246 48.4375 16.1973V16.9414C48.332 16.9922 48.1758 17.0332 47.9688 17.0645C47.7656 17.0996 47.582 17.1172 47.418 17.1172C46.1758 17.1172 45.5547 16.4629 45.5547 15.1543V11.334H44.6348V10.8652L45.5547 10.4609L45.9648 9.08984H46.5273V10.5781H48.3906V11.334H46.5273V15.1133C46.5273 15.5 46.6191 15.7969 46.8027 16.0039C46.9863 16.2109 47.2383 16.3145 47.5586 16.3145ZM52.6562 10.4609C52.9414 10.4609 53.1973 10.4844 53.4238 10.5312L53.2891 11.4336C53.0234 11.375 52.7891 11.3457 52.5859 11.3457C52.0664 11.3457 51.6211 11.5566 51.25 11.9785C50.8828 12.4004 50.6992 12.9258 50.6992 13.5547V17H49.7266V10.5781H50.5293L50.6406 11.7676H50.6875C50.9258 11.3496 51.2129 11.0273 51.5488 10.8008C51.8848 10.5742 52.2539 10.4609 52.6562 10.4609ZM55.5391 10.5781V14.7441C55.5391 15.2676 55.6582 15.6582 55.8965 15.916C56.1348 16.1738 56.5078 16.3027 57.0156 16.3027C57.6875 16.3027 58.1777 16.1191 58.4863 15.752C58.7988 15.3848 58.9551 14.7852 58.9551 13.9531V10.5781H59.9277V17H59.125L58.9844 16.1387H58.9316C58.7324 16.4551 58.4551 16.6973 58.0996 16.8652C57.748 17.0332 57.3457 17.1172 56.8926 17.1172C56.1113 17.1172 55.5254 16.9316 55.1348 16.5605C54.748 16.1895 54.5547 15.5957 54.5547 14.7793V10.5781H55.5391ZM64.0703 16.3145C64.2422 16.3145 64.4082 16.3027 64.5684 16.2793C64.7285 16.252 64.8555 16.2246 64.9492 16.1973V16.9414C64.8438 16.9922 64.6875 17.0332 64.4805 17.0645C64.2773 17.0996 64.0938 17.1172 63.9297 17.1172C62.6875 17.1172 62.0664 16.4629 62.0664 15.1543V11.334H61.1465V10.8652L62.0664 10.4609L62.4766 9.08984H63.0391V10.5781H64.9023V11.334H63.0391V15.1133C63.0391 15.5 63.1309 15.7969 63.3145 16.0039C63.498 16.2109 63.75 16.3145 64.0703 16.3145ZM71.7812 13.7832C71.7812 14.8301 71.5176 15.6484 70.9902 16.2383C70.4629 16.8242 69.7344 17.1172 68.8047 17.1172C68.2305 17.1172 67.7207 16.9824 67.2754 16.7129C66.8301 16.4434 66.4863 16.0566 66.2441 15.5527C66.002 15.0488 65.8809 14.459 65.8809 13.7832C65.8809 12.7363 66.1426 11.9219 66.666 11.3398C67.1895 10.7539 67.916 10.4609 68.8457 10.4609C69.7441 10.4609 70.457 10.7598 70.9844 11.3574C71.5156 11.9551 71.7812 12.7637 71.7812 13.7832ZM66.8887 13.7832C66.8887 14.6035 67.0527 15.2285 67.3809 15.6582C67.709 16.0879 68.1914 16.3027 68.8281 16.3027C69.4648 16.3027 69.9473 16.0898 70.2754 15.6641C70.6074 15.2344 70.7734 14.6074 70.7734 13.7832C70.7734 12.9668 70.6074 12.3477 70.2754 11.9258C69.9473 11.5 69.4609 11.2871 68.8164 11.2871C68.1797 11.2871 67.6992 11.4961 67.375 11.9141C67.0508 12.332 66.8887 12.9551 66.8887 13.7832ZM76.4219 10.4609C76.707 10.4609 76.9629 10.4844 77.1895 10.5312L77.0547 11.4336C76.7891 11.375 76.5547 11.3457 76.3516 11.3457C75.832 11.3457 75.3867 11.5566 75.0156 11.9785C74.6484 12.4004 74.4648 12.9258 74.4648 13.5547V17H73.4922V10.5781H74.2949L74.4062 11.7676H74.4531C74.6914 11.3496 74.9785 11.0273 75.3145 10.8008C75.6504 10.5742 76.0195 10.4609 76.4219 10.4609ZM81.1035 17.1172C80.1543 17.1172 79.4043 16.8281 78.8535 16.25C78.3066 15.6719 78.0332 14.8691 78.0332 13.8418C78.0332 12.8066 78.2871 11.9844 78.7949 11.375C79.3066 10.7656 79.9922 10.4609 80.8516 10.4609C81.6562 10.4609 82.293 10.7266 82.7617 11.2578C83.2305 11.7852 83.4648 12.4824 83.4648 13.3496V13.9648H79.041C79.0605 14.7188 79.25 15.291 79.6094 15.6816C79.9727 16.0723 80.4824 16.2676 81.1387 16.2676C81.8301 16.2676 82.5137 16.123 83.1895 15.834V16.7012C82.8457 16.8496 82.5195 16.9551 82.2109 17.0176C81.9062 17.084 81.5371 17.1172 81.1035 17.1172ZM80.8398 11.2754C80.3242 11.2754 79.9121 11.4434 79.6035 11.7793C79.2988 12.1152 79.1191 12.5801 79.0645 13.1738H82.4219C82.4219 12.5605 82.2852 12.0918 82.0117 11.7676C81.7383 11.4395 81.3477 11.2754 80.8398 11.2754ZM89.2715 15.248C89.2715 15.8457 89.0488 16.3066 88.6035 16.6309C88.1582 16.9551 87.5332 17.1172 86.7285 17.1172C85.877 17.1172 85.2129 16.9824 84.7363 16.7129V15.8105C85.0449 15.9668 85.375 16.0898 85.7266 16.1797C86.082 16.2695 86.4238 16.3145 86.752 16.3145C87.2598 16.3145 87.6504 16.2344 87.9238 16.0742C88.1973 15.9102 88.334 15.6621 88.334 15.3301C88.334 15.0801 88.2246 14.8672 88.0059 14.6914C87.791 14.5117 87.3691 14.3008 86.7402 14.0586C86.1426 13.8359 85.7168 13.6426 85.4629 13.4785C85.2129 13.3105 85.0254 13.1211 84.9004 12.9102C84.7793 12.6992 84.7188 12.4473 84.7188 12.1543C84.7188 11.6309 84.9316 11.2188 85.3574 10.918C85.7832 10.6133 86.3672 10.4609 87.1094 10.4609C87.8008 10.4609 88.4766 10.6016 89.1367 10.8828L88.791 11.6738C88.1465 11.4082 87.5625 11.2754 87.0391 11.2754C86.5781 11.2754 86.2305 11.3477 85.9961 11.4922C85.7617 11.6367 85.6445 11.8359 85.6445 12.0898C85.6445 12.2617 85.6875 12.4082 85.7734 12.5293C85.8633 12.6504 86.0059 12.7656 86.2012 12.875C86.3965 12.9844 86.7715 13.1426 87.3262 13.3496C88.0879 13.627 88.6016 13.9062 88.8672 14.1875C89.1367 14.4688 89.2715 14.8223 89.2715 15.248Z" fill="#253858"/>
<rect x="0.5" y="0.5" width="97" height="23" rx="11.5" stroke="#97A0AF"/>
</svg>
