<svg width="16" height="16" viewBox="0 0 16 16" fill="none" xmlns="http://www.w3.org/2000/svg">
<circle cx="8" cy="8" r="8" fill="#EE6F2E"/>
<path d="M10.0098 6.50195C10.0098 6.95443 9.87793 7.33203 9.61426 7.63477C9.35059 7.93424 8.97949 8.13607 8.50098 8.24023V8.2793C9.07389 8.35091 9.50358 8.52995 9.79004 8.81641C10.0765 9.09961 10.2197 9.47721 10.2197 9.94922C10.2197 10.6361 9.97721 11.1667 9.49219 11.541C9.00716 11.9121 8.31706 12.0977 7.42188 12.0977C6.63086 12.0977 5.96354 11.9691 5.41992 11.7119V10.6914C5.72266 10.8411 6.04329 10.9567 6.38184 11.0381C6.72038 11.1195 7.0459 11.1602 7.3584 11.1602C7.91178 11.1602 8.3252 11.0576 8.59863 10.8525C8.87207 10.6475 9.00879 10.3301 9.00879 9.90039C9.00879 9.51953 8.85742 9.23958 8.55469 9.06055C8.25195 8.88151 7.77669 8.79199 7.12891 8.79199H6.50879V7.85938H7.13867C8.27799 7.85938 8.84766 7.46549 8.84766 6.67773C8.84766 6.37174 8.74837 6.13574 8.5498 5.96973C8.35124 5.80371 8.05827 5.7207 7.6709 5.7207C7.40072 5.7207 7.1403 5.75977 6.88965 5.83789C6.639 5.91276 6.34277 6.06087 6.00098 6.28223L5.43945 5.48145C6.09375 4.99967 6.85384 4.75879 7.71973 4.75879C8.43913 4.75879 9.00065 4.91341 9.4043 5.22266C9.80794 5.5319 10.0098 5.95833 10.0098 6.50195Z" fill="white"/>
</svg>
