<svg width="16" height="16" viewBox="0 0 16 16" fill="none" xmlns="http://www.w3.org/2000/svg">
<path d="M10.3333 9C10.3333 10.3333 8.66667 11.3333 8.66667 12.3333H7.33333C7.33333 11.3333 5.66667 10.3333 5.66667 9C5.66667 7.71334 6.71333 6.66667 8 6.66667C9.28667 6.66667 10.3333 7.71334 10.3333 9ZM8.66667 13H7.33333V14H8.66667V13ZM12.6667 8.66667C12.6667 9.78667 12.2733 10.8067 11.6133 11.6133L12.56 12.56C13.4533 11.5133 14 10.1533 14 8.66667C14 6.84 13.18 5.20667 11.8933 4.10667L10.9467 5.05334C11.9933 5.90667 12.6667 7.21334 12.6667 8.66667ZM10.6667 3.33334L8 0.666672V2.66667C4.68667 2.66667 2 5.35334 2 8.66667C2 10.1533 2.54667 11.5133 3.44 12.56L4.38667 11.6133C3.72667 10.8067 3.33333 9.78667 3.33333 8.66667C3.33333 6.09334 5.42667 4 8 4V6L10.6667 3.33334Z" fill="#97A0AF"/>
</svg>
