<svg width="14" height="14" viewBox="0 0 14 14" fill="none" xmlns="http://www.w3.org/2000/svg">
<path d="M7 0.333313C3.32 0.333313 0.333332 3.31998 0.333332 6.99998C0.333332 10.68 3.32 13.6666 7 13.6666C10.68 13.6666 13.6667 10.68 13.6667 6.99998C13.6667 3.31998 10.68 0.333313 7 0.333313ZM11.9733 5.07998L10.12 5.84665C9.78 4.93998 9.06667 4.21998 8.15333 3.88665L8.92 2.03331C10.32 2.56665 11.4333 3.67998 11.9733 5.07998ZM7 8.99998C5.89333 8.99998 5 8.10665 5 6.99998C5 5.89331 5.89333 4.99998 7 4.99998C8.10667 4.99998 9 5.89331 9 6.99998C9 8.10665 8.10667 8.99998 7 8.99998ZM5.08667 2.02665L5.86667 3.87998C4.94667 4.21331 4.22 4.93998 3.88 5.85998L2.02667 5.08665C2.56667 3.67998 3.68 2.56665 5.08667 2.02665ZM2.02667 8.91331L3.88 8.14665C4.22 9.06665 4.94 9.78665 5.86 10.12L5.08 11.9733C3.68 11.4333 2.56667 10.32 2.02667 8.91331ZM8.92 11.9733L8.15333 10.12C9.06667 9.77998 9.78667 9.05998 10.12 8.13998L11.9733 8.91998C11.4333 10.32 10.32 11.4333 8.92 11.9733Z" fill="#979696"/>
</svg>