<svg width="16" height="16" viewBox="0 0 16 16" fill="none" xmlns="http://www.w3.org/2000/svg">
<path fill-rule="evenodd" clip-rule="evenodd" d="M11.1133 8.75333C12.0267 9.37333 12.6667 10.2133 12.6667 11.3333V13.3333H15.3333V11.3333C15.3333 9.87999 12.9533 9.01999 11.1133 8.75333Z" fill="#97A0AF"/>
<path d="M6 7.99999C7.47276 7.99999 8.66667 6.80608 8.66667 5.33332C8.66667 3.86056 7.47276 2.66666 6 2.66666C4.52724 2.66666 3.33334 3.86056 3.33334 5.33332C3.33334 6.80608 4.52724 7.99999 6 7.99999Z" fill="#97A0AF"/>
<path fill-rule="evenodd" clip-rule="evenodd" d="M10 7.99999C11.4733 7.99999 12.6667 6.80666 12.6667 5.33332C12.6667 3.85999 11.4733 2.66666 10 2.66666C9.68667 2.66666 9.39333 2.73332 9.11333 2.82666C9.66667 3.51332 10 4.38666 10 5.33332C10 6.27999 9.66667 7.15332 9.11333 7.83999C9.39333 7.93332 9.68667 7.99999 10 7.99999Z" fill="#97A0AF"/>
<path fill-rule="evenodd" clip-rule="evenodd" d="M6 8.66666C4.22 8.66666 0.666668 9.55999 0.666668 11.3333V13.3333H11.3333V11.3333C11.3333 9.55999 7.78 8.66666 6 8.66666Z" fill="#97A0AF"/>
</svg>
