<svg width="16" height="16" viewBox="0 0 16 16" fill="none" xmlns="http://www.w3.org/2000/svg">
<path d="M14.6667 3.81332L11.6 1.23999L10.74 2.25999L13.8067 4.83332L14.6667 3.81332ZM5.25333 2.25999L4.4 1.23999L1.33333 3.80666L2.19333 4.82666L5.25333 2.25999ZM8.33333 5.33332H7.33333V9.33332L10.5 11.2333L11 10.4133L8.33333 8.83332V5.33332ZM8 2.66666C4.68667 2.66666 2 5.35332 2 8.66666C2 11.98 4.68 14.6667 8 14.6667C11.3133 14.6667 14 11.98 14 8.66666C14 5.35332 11.3133 2.66666 8 2.66666ZM8 13.3333C5.42 13.3333 3.33333 11.2467 3.33333 8.66666C3.33333 6.08666 5.42 3.99999 8 3.99999C10.58 3.99999 12.6667 6.08666 12.6667 8.66666C12.6667 11.2467 10.58 13.3333 8 13.3333Z" fill="#97A0AF"/>
</svg>
