<svg width="16" height="16" viewBox="0 0 16 16" fill="none" xmlns="http://www.w3.org/2000/svg">
<path d="M8.66667 2C5.35333 2 2.66667 4.68667 2.66667 8H0.666668L3.26 10.5933L3.30667 10.6867L6 8H4C4 5.42 6.08667 3.33333 8.66667 3.33333C11.2467 3.33333 13.3333 5.42 13.3333 8C13.3333 10.58 11.2467 12.6667 8.66667 12.6667C7.38 12.6667 6.21334 12.14 5.37333 11.2933L4.42667 12.24C5.51333 13.3267 7.00667 14 8.66667 14C11.98 14 14.6667 11.3133 14.6667 8C14.6667 4.68667 11.98 2 8.66667 2ZM8 5.33333V8.66667L10.8533 10.36L11.3333 9.55333L9 8.16667V5.33333H8Z" fill="#97A0AF"/>
</svg>
