<svg width="16" height="16" viewBox="0 0 16 16" fill="none" xmlns="http://www.w3.org/2000/svg">
<path fill-rule="evenodd" clip-rule="evenodd" d="M11.1135 8.7533C12.0269 9.3733 12.6669 10.2133 12.6669 11.3333V13.3333H15.3335V11.3333C15.3335 9.87996 12.9535 9.01996 11.1135 8.7533Z" fill="#97A0AF"/>
<path d="M6.00016 7.99996C7.47292 7.99996 8.66683 6.80605 8.66683 5.33329C8.66683 3.86053 7.47292 2.66663 6.00016 2.66663C4.5274 2.66663 3.3335 3.86053 3.3335 5.33329C3.3335 6.80605 4.5274 7.99996 6.00016 7.99996Z" fill="#97A0AF"/>
<path fill-rule="evenodd" clip-rule="evenodd" d="M10.0002 7.99996C11.4735 7.99996 12.6669 6.80663 12.6669 5.33329C12.6669 3.85996 11.4735 2.66663 10.0002 2.66663C9.68686 2.66663 9.39353 2.73329 9.11353 2.82663C9.66686 3.51329 10.0002 4.38663 10.0002 5.33329C10.0002 6.27996 9.66686 7.15329 9.11353 7.83996C9.39353 7.93329 9.68686 7.99996 10.0002 7.99996Z" fill="#97A0AF"/>
<path fill-rule="evenodd" clip-rule="evenodd" d="M6.00008 8.66663C4.22008 8.66663 0.666748 9.55996 0.666748 11.3333V13.3333H11.3334V11.3333C11.3334 9.55996 7.78008 8.66663 6.00008 8.66663Z" fill="#97A0AF"/>
</svg>
